M48
INCH
T01C.00787
T02C.11811
T03C.02559
T04C.0315
T05C.03937
;LEADER: 12 
;HEADER: 
;CODE  : ASCII 
;FILE  : A33_M2-1-4.drl for  ... layers TOP and BOTTOM
;DESIGN: A33_M2.brd
;T01 Holesize 1. = 7.870000 Tolerance = +0.000000/-0.000000 PLATED MILS Quantity = 539
;T02 Holesize 2. = 118.110000 Tolerance = +0.000000/-0.000000 PLATED MILS Quantity = 1
;T03 Holesize 3. = 25.590000 Tolerance = +0.000000/-0.000000 NON_PLATED MILS Quantity = 2
;T04 Holesize 4. = 31.500000 Tolerance = +0.000000/-0.000000 NON_PLATED MILS Quantity = 2
;T05 Holesize 5. = 39.370000 Tolerance = +0.000000/-0.000000 NON_PLATED MILS Quantity = 2
%
G90
T01
X-003940Y-003910
X-003110Y-002920
X-004100Y-004650
X-002953Y-003335
X-002638Y-003335
X-001550Y-003490
X-003590Y-003930
X-003300Y-007790
X-002180Y-007587
X-002140Y-003170
X-002025Y-003875
X-002230Y-004430
X-002640Y-005230
X-002090Y-006020
X-001900Y-006642
X-002323Y-007115
X-005157Y-003020
X-005157Y-003650
X-005157Y-004280
X-004839Y-005229
X-005157Y-006485
X-004842Y-006170
X-005157Y-006170
X-004842Y-007115
X-004842Y-006800
X-005157Y-007745
X-005157Y-008060
X-005157Y-004595
X-002250Y-007902
X-002150Y-003480
X-005157Y-003335
X-002320Y-003960
X-005157Y-003965
X-002640Y-004910
X-004531Y-005221
X-002636Y-005856
X-005157Y-005855
X-002250Y-006330
X-004150Y-006012
X-002638Y-007115
X-005157Y-006800
X-005157Y-007115
X-002140Y-007310
X-002634Y-007426
X-005157Y-007430
X-004850Y-007750
X-002950Y-003960
X-001520Y-003890
X-004520Y-008050
X-004526Y-005856
X-004090Y-008400
X-003530Y-005610
X-004210Y-007120
X-004120Y-005580
X-002160Y-005020
X-003256Y-005236
X-002954Y-005224
X-001740Y-004210
X-001970Y-003020
X-003790Y-007530
X-004527Y-006800
X-001800Y-006020
X-004840Y-003660
X-004842Y-004595
X-000220Y-009350
X005250Y-001710
X-000550Y-009470
X005100Y-001550
X-004610Y-009040
X003560Y-002180
X-004530Y-008500
X-003090Y-009140
X-004440Y-008850
X-003430Y-008750
X-003710Y-009050
X000028Y-003473
X002660Y004240
X002860Y004240
X003070Y004240
X002660Y004040
X002860Y004040
X003070Y004030
X004060Y003380
X003990Y003570
X004120Y002050
X004010Y001830
X004930Y-001400
X003110Y003320
X000670Y-006630
X003120Y002260
X004130Y-005370
X004410Y-007610
X003820Y-004750
X001470Y001310
X001120Y-000370
X-000800Y-000640
X001050Y000750
X001450Y-001840
X004210Y002560
X004210Y002840
X002430Y-002070
X000080Y-009270
X005140Y-006430
X002840Y-001830
X-000530Y002140
X000475Y004565
X-005415Y-007985
X-004060Y003560
X001550Y-009100
X-004760Y-008830
X002150Y003350
X001320Y001960
X001008Y002271
X001308Y001971
X000070Y001310
X000708Y001371
X-000210Y-000850
X000990Y-005050
X000990Y-009030
X004080Y000700
X003954Y004696
X005600Y004696
X-002589Y001369
X-002589Y001669
X-002289Y001669
X-001989Y001669
X-002589Y001969
R02X000300
X-002589Y002269
R02X000300
X-002589Y002569
R02X000300
X-002589Y002869
R02X000300
X-005592Y-009129
X003708Y-009129
X005208Y-009129
X005508Y-009129
X-004992Y-008829
X004670Y-008840
X-005292Y-008529
X-004992Y-008529
X-000550Y-008580
X005508Y-008529
X-004992Y-006429
X-004992Y-006129
X-004992Y-002829
X-004992Y-002529
X-003192Y-001629
X-003192Y-001029
X-002292Y-001029
X-005592Y-000729
X-005292Y-000729
X-002292Y-000729
X004908Y-000729
X-005592Y-000429
R02X000300
X004908Y-000429
X005208Y-000429
X-004992Y-000129
X-004092Y-000129
X001008Y-000129
X004908Y-000129
X-001992Y000171
X000708Y000171
X004008Y000171
X-005592Y000471
X004908Y000471
X-005592Y000771
X-005292Y001071
X-004692Y001071
X-002892Y001071
X-001992Y001071
X-005292Y001371
X-004692Y001371
X-002892Y001371
X-002892Y002571
X004608Y002571
X004908Y002571
X-002892Y002871
X004608Y002871
X004908Y002871
X-002892Y003171
X004908Y003171
X-004992Y003471
R02X000300
X-002892Y003471
X-002592Y003471
X-001692Y003471
X-001392Y003471
X-005292Y003771
X-003492Y003771
X004608Y003771
X004908Y003771
X-004992Y004071
R03X000300
X-003492Y004071
R02X000300
X-002620Y004070
X-001092Y004071
X-000192Y004071
X-005292Y004371
R04X000300
X002208Y004371
R02X001200
X004908Y004371
X-004692Y004671
X-004392Y004671
X-000492Y004671
R02X000300
X001008Y004671
X002208Y004671
X004608Y004671
X-004692Y004971
X-004392Y004971
X-002280Y004960
X-000792Y004971
R02X003000
X-004692Y005271
X-004392Y005271
X-003192Y005321
X-002892Y005321
X-001692Y005301
R02X000300
X001008Y005271
X004908Y005271
X005208Y005271
X005508Y005271
X005750Y005270
X-000400Y-008400
X002440Y-009480
X-002780Y-001060
X-003380Y-001040
X004940Y002570
X-000970Y-000490
X003050Y-009070
X-002745Y003515
X-003115Y002672
X-003115Y001255
X003770Y-009340
X002130Y005210
X001090Y003220
X-000540Y003200
X-000540Y002987
X-003100Y004310
X-002620Y004300
X-002860Y004300
X-003100Y004530
X-003100Y004770
X001550Y004250
X001760Y004250
X001350Y004250
X001550Y004050
X001760Y004060
X001350Y004050
X005150Y-005340
X004760Y-005370
X003346Y-009320
X005050Y001830
X005330Y-000860
X003580Y-000450
X001650Y001440
X001600Y001990
X004470Y001230
X-003640Y003600
X-002810Y-000520
X-003430Y-000480
X-004050Y-000740
X-004040Y-000530
X-005020Y000710
X-005020Y000260
X-005020Y000480
X-004070Y-000930
X-004160Y-001210
X001600Y-001640
X000810Y-001890
X000410Y-001960
R02X-000400
X001100Y002510
X004760Y-007260
X001100Y002770
X004450Y-007260
X-003890Y-008870
X-003490Y-009170
X-003220Y-008960
X-003070Y-008800
X-002490Y-009350
X-002490Y-009130
X-002190Y-008950
X-002190Y-009170
X-001830Y-008970
X-001830Y-009190
X-001450Y-008970
X-001450Y-009190
X003140Y001890
X002520Y002000
X002120Y002060
X002060Y003650
X-000550Y002680
X004460Y-006640
X001690Y003650
X-000540Y002400
X004450Y-006330
X001420Y-000440
X-000800Y-000170
X005460Y001260
X004060Y-007610
X000660Y-003180
X-003655Y001885
X-001130Y-008960
X-005020Y002490
X-005020Y002270
X-005020Y002720
X-002280Y-001610
X-002700Y-001570
X-003600Y-001570
X-004850Y-002210
X-004620Y-002250
X001930Y-005690
X000380Y-009360
X001390Y003160
X001600Y003150
X001820Y003150
X000680Y-009180
X002380Y-001490
X002380Y-001290
X002160Y-001290
X001940Y-001290
X-000910Y-001290
X-001030Y-001120
X-001140Y-001290
X000410Y-009130
X000080Y-009050
X005200Y-004800
X-000220Y-009130
X005150Y-004270
X-002790Y-009030
X004130Y-004430
X001840Y-001720
X-002190Y-009390
X-001450Y-009410
X004762Y-003170
X002060Y-001720
X002070Y-002000
X005710Y-007830
X005550Y-007990
X002854Y-002054
X-003520Y-004270
X-000490Y-006700
X-001990Y-005640
X000040Y-006950
X-004070Y-006400
X-001680Y-006330
X003650Y-001200
X003440Y-001090
X-001535Y-005440
X-001420Y-008230
X-002020Y-004850
X-003860Y-006330
X003110Y-009430
X-004890Y-009260
X-005550Y-001730
X000100Y000090
X-000060Y000180
X000110Y001660
X-000510Y001570
X-000980Y003470
X-000770Y003470
X-002180Y003520
X-002370Y003520
X-002180Y004030
X-002370Y004030
X-003870Y001970
X-004020Y001830
X-003860Y001490
X-004010Y001320
X-003190Y000350
X-002300Y-000190
X-002300Y000030
X-004020Y-005095
X-001750Y-004520
X-003072Y001728
X-005210Y003510
X-004020Y-005360
X-001750Y-004740
X-004530Y-004920
X-001270Y-008070
X-000960Y-006680
X-003677Y-007287
X-001380Y-007520
X-003864Y-007100
X-001400Y-007300
X-003560Y-006070
X-001630Y-005640
X-003560Y-006290
X-001435Y-005815
X003580Y-000900
X004020Y-001320
X-002790Y-008810
X-002490Y-008910
X-001830Y-009410
X-001130Y-009220
X-005270Y001940
X-003070Y002042
X-000850Y-009420
X004920Y-001700
X004450Y-006000
X-002790Y-009250
X004450Y-002230
X003200Y-001840
X000353Y-003483
X004132Y-002538
X003560Y-001850
X000353Y-003798
X004447Y-002538
X004240Y-002160
X000668Y-003798
X000668Y-004113
X000353Y-004428
X000668Y-003483
X004450Y-005370
X000983Y-006002
X003502Y-005687
X003187Y-006002
X003502Y-003483
X003502Y-003798
X003187Y-003483
X003187Y-003798
X003502Y-004113
X000353Y-006632
X004132Y-006002
X001928Y-006002
X002558Y-006002
X002872Y-006002
X001613Y-005372
X001928Y-005372
X002872Y-005687
X002558Y-005687
X002558Y-005372
X002872Y-005372
X001613Y-004742
X001928Y-004742
X002872Y-004742
X002558Y-004742
X003502Y-004742
X003187Y-004742
X001613Y-004428
X001613Y-004113
X001928Y-004113
X001928Y-004428
X002872Y-004428
X002558Y-004428
X002872Y-004113
X002558Y-004113
X002872Y-003798
X002558Y-003798
X001928Y-003798
X003502Y-004428
X003187Y-004428
X003187Y-004113
X000668Y-006317
X003502Y-005372
X001298Y-006317
X004132Y-004113
X001310Y-006640
X001300Y-006950
X001928Y-006632
X001928Y-006947
X002558Y-006632
X002558Y-006947
X002872Y-006632
X002872Y-006947
X003187Y-006632
X003187Y-006947
X003502Y-006632
X003502Y-006947
X003502Y-006002
X004132Y-003483
X001298Y-004428
X000983Y-004428
X001298Y-004742
X000983Y-004742
X000983Y-005372
X004447Y-003483
X001613Y-003483
X001613Y-003798
X000983Y-003483
X001298Y-003798
X000983Y-003798
X001298Y-003483
X001298Y-004113
X000983Y-004113
X004762Y-003483
X001298Y-006002
X001613Y-006002
X003192Y-006312
X002872Y-003483
X002558Y-003483
X001928Y-003483
X001298Y-005372
X002872Y-006317
X002558Y-006317
X005077Y-003483
X004132Y-003168
X004447Y-003168
X000668Y-005372
X000668Y-004428
X000353Y-004742
X000353Y-005687
X000353Y-006317
X000668Y-005687
X000353Y-006002
X000353Y-005372
X000353Y-004113
X000668Y-004742
X004762Y-004113
X005150Y-004040
X000668Y-006002
X004132Y-002853
X004447Y-002853
X004762Y-002853
X005077Y-002853
T02
X000000Y005535
T03
X004163Y003838
X004163Y001562
T04
X005300Y-000109
X005300Y-001291
T05
X-005540Y003085
X-005540Y-000065
M30
