G04 ================== begin FILE IDENTIFICATION RECORD ==================*
G04 Layout Name:  F:/PCB_PROJECT/a33_pcie/allegro/A33_M2.brd*
G04 Film Name:    DRILL*
G04 File Format:  Gerber RS274X*
G04 File Origin:  Cadence Allegro 17.2-S058*
G04 Origin Date:  Sat Nov 07 21:40:12 2020*
G04 *
G04 Layer:  MANUFACTURING/NCLEGEND-1-4*
G04 Layer:  BOARD GEOMETRY/OUTLINE*
G04 *
G04 Offset:    (0.00 0.00)*
G04 Mirror:    No*
G04 Mode:      Positive*
G04 Rotation:  0*
G04 FullContactRelief:  No*
G04 UndefLineWidth:     1.00*
G04 ================== end FILE IDENTIFICATION RECORD ====================*
%FSLAX25Y25*MOIN*%
%IR0*IPPOS*OFA0.00000B0.00000*MIA0B0*SFA1.00000B1.00000*%
%AMMACRO10*
1,1,.001,.059055,.059055*
20,1,.001,.059055,.059055,.059055,-.059055,0.0*
1,1,.001,.059055,-.059055*
20,1,.001,.059055,-.059055,-.059055,-.059055,0.0*
1,1,.001,-.059055,-.059055*
20,1,.001,-.059055,-.059055,-.059055,.059055,0.0*
1,1,.001,-.059055,.059055*
20,1,.001,-.059055,.059055,.059055,.059055,0.0*
1,1,.001,.059055,.059055*
%
%ADD10MACRO10*%
%AMMACRO11*
1,1,.001,.008154,-.019685*
20,1,.001,.008154,-.019685,-.008154,-.019685,0.0*
1,1,.001,-.008154,-.019685*
20,1,.001,-.008154,-.019685,-.019685,-.008154,0.0*
1,1,.001,-.019685,-.008154*
20,1,.001,-.019685,-.008154,-.019685,.008154,0.0*
1,1,.001,-.019685,.008154*
20,1,.001,-.019685,.008154,-.008154,.019685,0.0*
1,1,.001,-.008154,.019685*
20,1,.001,-.008154,.019685,.008154,.019685,0.0*
1,1,.001,.008154,.019685*
20,1,.001,.008154,.019685,.019685,.008154,0.0*
1,1,.001,.019685,.008154*
20,1,.001,.019685,.008154,.019685,-.008154,0.0*
1,1,.001,.019685,-.008154*
20,1,.001,.019685,-.008154,.008154,-.019685,0.0*
1,1,.001,.008154,-.019685*
%
%ADD11MACRO11*%
%AMMACRO14*
1,1,.001,.003935,0.0*
20,1,.001,.003935,0.0,-.003935,0.0,0.0*
1,1,.001,-.003935,0.0*
1,1,.001,0.0,.003935*
20,1,.001,0.0,.003935,0.0,-.003935,0.0*
1,1,.001,0.0,-.003935*
%
%ADD14MACRO14*%
%AMMACRO12*
1,1,.001,0.0,.01575*
20,1,.001,0.0,.01575,-.01364,.007875,0.0*
1,1,.001,-.01364,.007875*
20,1,.001,-.01364,.007875,-.01364,-.007875,0.0*
1,1,.001,-.01364,-.007875*
20,1,.001,-.01364,-.007875,0.0,-.01575,0.0*
1,1,.001,0.0,-.01575*
20,1,.001,0.0,-.01575,.01364,-.007875,0.0*
1,1,.001,.01364,-.007875*
20,1,.001,.01364,-.007875,.01364,.007875,0.0*
1,1,.001,.01364,.007875*
20,1,.001,.01364,.007875,0.0,.01575,0.0*
1,1,.001,0.0,.01575*
%
%ADD12MACRO12*%
%AMMACRO13*
1,1,.001,.012795,0.0*
20,1,.001,.012795,0.0,.006398,.011081,0.0*
1,1,.001,.006398,.011081*
20,1,.001,.006398,.011081,-.006397,.011081,0.0*
1,1,.001,-.006397,.011081*
20,1,.001,-.006397,.011081,-.012795,0.0,0.0*
1,1,.001,-.012795,0.0*
20,1,.001,-.012795,0.0,-.006398,-.011081,0.0*
1,1,.001,-.006398,-.011081*
20,1,.001,-.006398,-.011081,.006397,-.011081,0.0*
1,1,.001,.006397,-.011081*
20,1,.001,.006397,-.011081,.012795,0.0,0.0*
1,1,.001,.012795,0.0*
%
%ADD13MACRO13*%
%ADD15C,.001*%
G75*
%LPD*%
G75*
G54D10*
X-195050Y-233000D03*
X0Y55354D03*
G54D11*
X-195050Y-308000D03*
X-55400Y-648D03*
Y30848D03*
G54D12*
X-195050Y-283000D03*
X53000Y-12906D03*
Y-1094D03*
G54D13*
X-195050Y-258000D03*
X41630Y15622D03*
Y38378D03*
G54D14*
X-195050Y-208000D03*
X-55917Y-91286D03*
X-52917Y-85286D03*
X-54150Y-79850D03*
X-55500Y-17300D03*
X-52917Y-7286D03*
X-55917D03*
X-52917Y-4286D03*
X-55917D03*
Y4714D03*
X-52917Y13714D03*
Y10714D03*
X-55917Y7714D03*
X-52700Y19400D03*
X-52917Y37714D03*
Y43714D03*
X-48900Y-92600D03*
X-49917Y-88286D03*
X-47600Y-88300D03*
X-46100Y-90400D03*
X-51573Y-80597D03*
X-49917Y-85286D03*
X-48500Y-77500D03*
X-51573Y-74298D03*
Y-77447D03*
Y-71148D03*
Y-67998D03*
X-48424D03*
Y-71148D03*
X-51573Y-61699D03*
X-48424D03*
X-51573Y-64849D03*
X-49917Y-61286D03*
Y-64286D03*
X-51573Y-58550D03*
X-48424Y-45951D03*
X-51573D03*
X-48387Y-52287D03*
X-51573Y-39652D03*
Y-42802D03*
X-48400Y-36600D03*
X-51573Y-33353D03*
Y-36502D03*
Y-30203D03*
X-49917Y-28286D03*
X-46200Y-22500D03*
X-48500Y-22100D03*
X-49917Y-25286D03*
Y-1286D03*
Y-4286D03*
X-50200Y4800D03*
Y2600D03*
Y7100D03*
X-46917Y13714D03*
Y10714D03*
X-50200Y27200D03*
Y22700D03*
Y24900D03*
X-52100Y35100D03*
X-46917Y40714D03*
X-49917D03*
X-46917Y34714D03*
X-49917D03*
X-46917Y46714D03*
Y43714D03*
X-49917D03*
X-46917Y52714D03*
Y49714D03*
X-44400Y-88500D03*
X-40900Y-84000D03*
X-45200Y-80500D03*
X-45300Y-85000D03*
X-45274Y-67998D03*
X-42100Y-71200D03*
X-40700Y-64000D03*
X-41500Y-60124D03*
X-40200Y-53600D03*
X-41200Y-55800D03*
X-45262Y-58562D03*
X-45300Y-49200D03*
X-40200Y-50954D03*
X-45312Y-52212D03*
X-41000Y-46500D03*
X-39400Y-39100D03*
X-41600Y-12100D03*
X-40700Y-9300D03*
X-40500Y-7400D03*
X-40400Y-5300D03*
X-40917Y-1286D03*
X-40100Y13200D03*
X-40200Y18300D03*
X-40917Y40714D03*
X-43917D03*
Y34714D03*
X-40600Y35600D03*
X-43917Y46714D03*
X-40917Y43714D03*
X-43917D03*
Y52714D03*
Y49714D03*
X-34900Y-91700D03*
X-38900Y-88700D03*
X-37100Y-90500D03*
X-34300Y-87500D03*
X-36767Y-72868D03*
X-37900Y-75300D03*
X-32995Y-77905D03*
X-38638Y-70997D03*
X-35600Y-62900D03*
Y-60700D03*
X-38600Y-63300D03*
X-35300Y-56100D03*
X-32563Y-52363D03*
X-35200Y-42700D03*
X-35900Y-39300D03*
X-36000Y-15700D03*
X-33800Y-10400D03*
X-34300Y-4800D03*
X-38600Y14900D03*
X-38700Y19700D03*
X-36550Y18850D03*
X-36400Y36000D03*
X-34917Y40714D03*
Y37714D03*
X-27900Y-92500D03*
Y-88100D03*
Y-90300D03*
X-30700Y-88000D03*
X-32200Y-89600D03*
X-30900Y-91400D03*
X-26338Y-74260D03*
X-26376Y-71148D03*
X-26363Y-58563D03*
X-29538Y-52238D03*
X-26400Y-49100D03*
Y-52300D03*
X-29500Y-39600D03*
X-26376Y-33353D03*
X-29526D03*
X-31100Y-29200D03*
X-27000Y-15700D03*
X-31917Y-16286D03*
X-27800Y-10600D03*
X-31917Y-10286D03*
X-28100Y-5200D03*
X-31900Y3500D03*
X-31151Y12551D03*
X-28917Y13714D03*
Y10714D03*
X-25887Y13686D03*
X-30700Y20425D03*
X-30724Y17276D03*
X-25887Y19686D03*
Y16686D03*
X-31151Y26724D03*
X-28917Y25714D03*
X-25887Y25686D03*
Y22686D03*
X-28917Y31714D03*
Y28714D03*
X-25887Y28686D03*
X-27449Y35151D03*
X-26200Y40700D03*
X-28917Y40714D03*
X-31917D03*
X-25917Y34714D03*
X-28917D03*
X-31000Y45300D03*
X-28600Y43000D03*
X-26200D03*
X-31000Y43100D03*
Y47700D03*
X-28917Y53214D03*
X-31917D03*
X-21900Y-93900D03*
X-24900Y-93500D03*
Y-89100D03*
X-21900Y-91700D03*
Y-89500D03*
X-24900Y-91300D03*
X-21400Y-73100D03*
X-22500Y-79022D03*
X-21800Y-75872D03*
X-23227Y-71148D03*
X-22500Y-63300D03*
X-20900Y-60200D03*
X-19900Y-56400D03*
X-21600Y-50200D03*
X-20200Y-48500D03*
X-23200Y-39600D03*
X-22300Y-44300D03*
X-21500Y-34800D03*
X-20250Y-38750D03*
X-19700Y-30200D03*
X-21400Y-31700D03*
X-22800Y-16100D03*
X-22917Y-7286D03*
Y-10286D03*
X-23000Y300D03*
Y-1900D03*
X-19917Y1714D03*
Y10714D03*
X-19887Y19686D03*
X-22887D03*
X-19887Y16686D03*
X-22887D03*
X-19887Y25686D03*
X-22887D03*
X-19887Y22686D03*
X-22887D03*
X-19887Y28686D03*
X-22887D03*
X-23700Y40300D03*
X-21800D03*
X-23700Y35200D03*
X-21800D03*
X-22800Y49600D03*
X-18300Y-94100D03*
X-14500D03*
Y-91900D03*
Y-89700D03*
X-18300Y-91900D03*
Y-89700D03*
X-12700Y-80700D03*
X-14200Y-82300D03*
X-14000Y-73000D03*
X-13800Y-75200D03*
X-19000Y-66424D03*
X-18000Y-60200D03*
X-16800Y-63300D03*
X-14350Y-58150D03*
X-16300Y-56400D03*
X-15348Y-54397D03*
X-17500Y-47400D03*
Y-45200D03*
X-17400Y-42100D03*
X-15200Y-38900D03*
X-15500Y-34900D03*
X-13917Y34714D03*
X-16917D03*
X-13917Y53014D03*
X-16917D03*
X-8500Y-94200D03*
X-11300Y-92200D03*
Y-89600D03*
X-9600Y-66800D03*
X-11400Y-12900D03*
X-9100D03*
X-10300Y-11200D03*
X-8000Y-6400D03*
Y-1700D03*
X-9700Y-4900D03*
X-7700Y34700D03*
X-9800D03*
X-10917Y40714D03*
Y53014D03*
X-7917Y49714D03*
X800Y-92700D03*
X-5500Y-94700D03*
X-2200Y-93500D03*
Y-91300D03*
X800Y-90500D03*
X-5500Y-85800D03*
X-4000Y-84000D03*
X400Y-69500D03*
X-4900Y-67000D03*
X281Y-34730D03*
X-3900Y-19600D03*
X100D03*
X-2100Y-8500D03*
X-600Y1800D03*
X700Y13100D03*
X-5099Y15701D03*
X-5400Y24000D03*
X-5500Y26800D03*
X-5300Y21400D03*
X-5400Y29874D03*
Y32000D03*
X-1917Y40714D03*
Y46714D03*
X-4917D03*
X3800Y-93600D03*
X4100Y-91300D03*
X6800Y-91800D03*
X3528Y-66323D03*
X6700Y-66300D03*
X6677Y-60024D03*
X3528D03*
Y-63173D03*
X6677D03*
X3528Y-53724D03*
X6677Y-56874D03*
X3528D03*
X6677Y-53724D03*
Y-47425D03*
X3528D03*
Y-41126D03*
X6677Y-44276D03*
X3528D03*
X6677Y-41126D03*
Y-34827D03*
Y-37976D03*
X3528D03*
Y-34827D03*
X6600Y-31800D03*
X4100Y-19600D03*
X1000Y900D03*
X7083Y1714D03*
Y13714D03*
X1100Y16600D03*
X1083Y46714D03*
X4750Y45650D03*
X9900Y-90300D03*
X13000Y-69500D03*
X13100Y-66400D03*
X12976Y-60024D03*
Y-63173D03*
X9827Y-60024D03*
X12976Y-53724D03*
X9827D03*
Y-47425D03*
X12976D03*
X9900Y-50500D03*
X9827Y-41126D03*
X12976D03*
X9827Y-44276D03*
X12976D03*
Y-34827D03*
X9827Y-37976D03*
X12976D03*
X9827Y-34827D03*
X8100Y-18900D03*
X14200Y-4400D03*
X10083Y-1286D03*
X11200Y-3700D03*
X10500Y7500D03*
X13083Y19714D03*
X13200Y19600D03*
X11000Y25100D03*
X10083Y22714D03*
X13900Y31600D03*
X11000Y27700D03*
X10900Y32200D03*
X13500Y40500D03*
Y42500D03*
X10083Y46714D03*
Y52714D03*
X15500Y-91000D03*
X19276Y-69472D03*
Y-66323D03*
X16126Y-60024D03*
X19276D03*
X19300Y-56900D03*
X19276Y-53724D03*
X16126D03*
X19276Y-47425D03*
X16126D03*
X19276Y-44276D03*
Y-41126D03*
X16126D03*
Y-44276D03*
X19276Y-34827D03*
X16126Y-37976D03*
Y-34827D03*
X19276Y-37976D03*
X20700Y-20000D03*
X20600Y-17200D03*
X18400D03*
X19400Y-12900D03*
X16000Y-16400D03*
X14500Y-18400D03*
X14700Y13100D03*
X16000Y19900D03*
X16500Y14400D03*
X18200Y31500D03*
X16000D03*
X16900Y36500D03*
X20600D03*
X17600Y40600D03*
X15500Y40500D03*
X17600Y42500D03*
X15500D03*
X24400Y-94800D03*
X25575Y-69472D03*
Y-66323D03*
Y-63173D03*
Y-60024D03*
Y-53724D03*
Y-56874D03*
Y-47425D03*
Y-41126D03*
Y-44276D03*
Y-34827D03*
Y-37976D03*
X24300Y-20700D03*
X21600Y-12900D03*
X23800D03*
Y-14900D03*
X21200Y20600D03*
X25200Y20000D03*
X21500Y33500D03*
X26600Y40400D03*
X22083Y46714D03*
Y43714D03*
X26600Y42400D03*
X21300Y52100D03*
X22083Y49714D03*
X31100Y-94300D03*
X33465Y-93200D03*
X30500Y-90700D03*
X31874Y-69472D03*
Y-66323D03*
X28724Y-69472D03*
Y-66323D03*
Y-63173D03*
X31924Y-63124D03*
X28724Y-60024D03*
X31874D03*
X28724Y-53724D03*
Y-56874D03*
X31874Y-47425D03*
X28724D03*
X31874Y-41126D03*
Y-44276D03*
X28724Y-41126D03*
Y-44276D03*
Y-34827D03*
Y-37976D03*
X31874D03*
Y-34827D03*
X28537Y-20537D03*
X28400Y-18300D03*
X32000Y-18400D03*
X31400Y18900D03*
X31200Y22600D03*
X31100Y33200D03*
X30700Y40300D03*
X28600Y40400D03*
X34083Y43714D03*
X30700Y42400D03*
X28600D03*
X37700Y-93400D03*
X37083Y-91286D03*
X40600Y-76100D03*
X35024Y-69472D03*
Y-66323D03*
Y-60024D03*
Y-53724D03*
Y-56874D03*
Y-47425D03*
X38200Y-47500D03*
X35024Y-44276D03*
Y-41126D03*
Y-37976D03*
Y-34827D03*
X35600Y-21800D03*
X40200Y-13200D03*
X35600Y-18500D03*
X35800Y-9000D03*
X34400Y-10900D03*
X36500Y-12000D03*
X35800Y-4500D03*
X40083Y1714D03*
X40800Y7000D03*
X40100Y18300D03*
X40600Y33800D03*
X39900Y35700D03*
X39543Y46961D03*
X46700Y-88400D03*
X44497Y-72597D03*
X44100Y-76100D03*
X44600Y-66400D03*
X44500Y-60000D03*
Y-63300D03*
X41323Y-60024D03*
X44500Y-53700D03*
X41300D03*
Y-44300D03*
X41323Y-41126D03*
X44472Y-34827D03*
X41323D03*
X44472Y-28528D03*
X41323D03*
X44472Y-31677D03*
X41323D03*
X44500Y-22300D03*
X42400Y-21600D03*
X44472Y-25378D03*
X41323D03*
X44700Y12300D03*
X41200Y20500D03*
X46083Y25714D03*
X42100Y25600D03*
X46083Y28714D03*
X42100Y28400D03*
X46083Y37714D03*
Y46714D03*
Y43714D03*
X52083Y-91286D03*
X47600Y-72600D03*
X51400Y-64300D03*
X47600Y-53700D03*
X51500Y-53400D03*
X52000Y-48000D03*
X51500Y-40400D03*
X47622Y-41126D03*
X51500Y-42700D03*
X50772Y-34827D03*
X47622D03*
X50772Y-28528D03*
X47622D03*
Y-31700D03*
X49200Y-17000D03*
X49300Y-14000D03*
X51000Y-15500D03*
X52500Y-17100D03*
X53300Y-8600D03*
X49083Y-7286D03*
Y-1286D03*
X52083Y-4286D03*
X49083D03*
Y4714D03*
X50500Y18300D03*
X49400Y25700D03*
X49083Y25714D03*
Y31714D03*
Y28714D03*
Y37714D03*
Y43714D03*
X52083Y52714D03*
X49083D03*
X52083Y49714D03*
X55083Y-91286D03*
X55500Y-79900D03*
X55083Y-85286D03*
X57100Y-78300D03*
X54600Y12600D03*
X56000Y46961D03*
X57500Y52700D03*
X55083Y52714D03*
G54D15*
G01X-240000Y-320500D02*
Y-120500D01*
X256000D01*
Y-320500D01*
X-240000D01*
G01Y-295500D02*
X256000D01*
G01X-240000Y-270500D02*
X256000D01*
G01X-240000Y-245500D02*
X256000D01*
G01X-240000Y-220500D02*
X256000D01*
G01X-240000Y-195500D02*
X256000D01*
G01X-240000Y-170500D02*
X256000D01*
G01X-240000Y-145500D02*
X256000D01*
G01X-228995Y-189250D02*
Y-176750D01*
X-223105D01*
G01X-225275Y-182792D02*
X-228995D01*
G01X-215510Y-176750D02*
X-211790D01*
G01X-213650D02*
Y-189250D01*
G01X-215510D02*
X-211790D01*
G01X-200320Y-183000D02*
X-197220D01*
Y-186750D01*
X-198150Y-188000D01*
X-199235Y-188833D01*
X-200785Y-189250D01*
X-202335Y-188833D01*
X-203420Y-188000D01*
X-204350Y-186750D01*
X-204970Y-185292D01*
X-205280Y-183625D01*
Y-182167D01*
X-204970Y-180917D01*
X-204350Y-179458D01*
X-203420Y-178208D01*
X-202490Y-177375D01*
X-201250Y-176750D01*
X-200165D01*
X-198925Y-177167D01*
X-197995Y-178000D01*
G01X-192260Y-176750D02*
Y-185708D01*
X-191640Y-187584D01*
X-190400Y-188833D01*
X-188850Y-189250D01*
X-187300Y-188833D01*
X-186060Y-187584D01*
X-185440Y-185708D01*
Y-176750D01*
G01X-179550Y-189250D02*
Y-176750D01*
X-175675D01*
X-174435Y-177375D01*
X-173660Y-178208D01*
X-173350Y-179875D01*
X-173660Y-181542D01*
X-174590Y-182583D01*
X-175675Y-183208D01*
X-179550D01*
G01X-175675D02*
X-173350Y-189250D01*
G01X-160950D02*
X-167150D01*
Y-176750D01*
X-160950D01*
G01X-163430Y-182792D02*
X-167150D01*
G01X-150100Y-170500D02*
Y-320500D01*
G01X-150410Y-139250D02*
Y-126750D01*
X-147310D01*
X-146070Y-127375D01*
X-145140Y-128208D01*
X-144365Y-129458D01*
X-143745Y-130917D01*
X-143590Y-133000D01*
X-143745Y-135083D01*
X-144365Y-136542D01*
X-145140Y-137792D01*
X-146070Y-138625D01*
X-147310Y-139250D01*
X-150410D01*
G01X-137700D02*
Y-126750D01*
X-133825D01*
X-132585Y-127375D01*
X-131810Y-128208D01*
X-131500Y-129875D01*
X-131810Y-131542D01*
X-132740Y-132583D01*
X-133825Y-133208D01*
X-137700D01*
G01X-133825D02*
X-131500Y-139250D01*
G01X-124060Y-126750D02*
X-120340D01*
G01X-122200D02*
Y-139250D01*
G01X-124060D02*
X-120340D01*
G01X-112900Y-126750D02*
Y-139250D01*
X-106700D01*
G01X-100500Y-126750D02*
Y-139250D01*
X-94300D01*
G01X-69190Y-127792D02*
X-70120Y-127167D01*
X-71205Y-126750D01*
X-72445D01*
X-73840Y-127375D01*
X-74925Y-128417D01*
X-75700Y-129667D01*
X-76320Y-131750D01*
X-76475Y-133625D01*
X-76165Y-135500D01*
X-75700Y-136750D01*
X-74770Y-138000D01*
X-73685Y-138833D01*
X-72600Y-139250D01*
X-71515D01*
X-70430Y-138833D01*
X-69500Y-138209D01*
X-68725Y-137375D01*
G01X-63455Y-139250D02*
Y-126750D01*
G01X-56945D02*
Y-139250D01*
G01Y-133000D02*
X-63455D01*
G01X-51675Y-139250D02*
X-47800Y-126750D01*
X-43925Y-139250D01*
G01X-45320Y-134875D02*
X-50280D01*
G01X-38500Y-139250D02*
Y-126750D01*
X-34625D01*
X-33385Y-127375D01*
X-32610Y-128208D01*
X-32300Y-129875D01*
X-32610Y-131542D01*
X-33540Y-132583D01*
X-34625Y-133208D01*
X-38500D01*
G01X-34625D02*
X-32300Y-139250D01*
G01X-23000Y-126750D02*
Y-139250D01*
G01X-26565Y-126750D02*
X-19435D01*
G01X-10600Y-139667D02*
X-10910Y-139458D01*
Y-139042D01*
X-10600Y-138833D01*
X-10290Y-139042D01*
Y-139458D01*
X-10600Y-139667D01*
G01Y-134042D02*
X-10910Y-133833D01*
Y-133417D01*
X-10600Y-133208D01*
X-10290Y-133417D01*
Y-133833D01*
X-10600Y-134042D01*
G01X14200Y-126750D02*
Y-139250D01*
G01X10635Y-126750D02*
X17765D01*
G01X26600Y-139250D02*
X25360Y-139042D01*
X24275Y-138209D01*
X23345Y-136958D01*
X22725Y-135500D01*
X22415Y-133833D01*
Y-132167D01*
X22725Y-130500D01*
X23345Y-129042D01*
X24275Y-127792D01*
X25360Y-126958D01*
X26600Y-126750D01*
X27840Y-126958D01*
X28925Y-127792D01*
X29855Y-129042D01*
X30475Y-130500D01*
X30785Y-132167D01*
Y-133833D01*
X30475Y-135500D01*
X29855Y-136958D01*
X28925Y-138209D01*
X27840Y-139042D01*
X26600Y-139250D01*
G01X35900D02*
Y-126750D01*
X39620D01*
X40860Y-127375D01*
X41790Y-128833D01*
X42100Y-130500D01*
X41790Y-132167D01*
X41015Y-133417D01*
X39620Y-134042D01*
X35900D01*
G01X63800Y-126750D02*
Y-139250D01*
G01X61630Y-130917D02*
X65970D01*
G01X76200Y-139250D02*
X75270Y-139042D01*
X74340Y-138209D01*
X73720Y-136750D01*
X73410Y-135083D01*
X73720Y-133417D01*
X74340Y-131958D01*
X75270Y-131125D01*
X76200Y-130917D01*
X77130Y-131125D01*
X78060Y-131958D01*
X78680Y-133417D01*
X78835Y-135083D01*
X78680Y-136750D01*
X78060Y-138209D01*
X77130Y-139042D01*
X76200Y-139250D01*
G01X102240Y-132583D02*
X102860Y-131958D01*
X103325Y-130917D01*
X103635Y-129458D01*
X103325Y-128208D01*
X102705Y-127375D01*
X101620Y-126750D01*
X97435D01*
Y-139250D01*
X102550D01*
X103635Y-138417D01*
X104255Y-137167D01*
X104565Y-135708D01*
X104255Y-134250D01*
X103325Y-133000D01*
X102240Y-132583D01*
X97435D01*
G01X113400Y-139250D02*
X112160Y-139042D01*
X111075Y-138209D01*
X110145Y-136958D01*
X109525Y-135500D01*
X109215Y-133833D01*
Y-132167D01*
X109525Y-130500D01*
X110145Y-129042D01*
X111075Y-127792D01*
X112160Y-126958D01*
X113400Y-126750D01*
X114640Y-126958D01*
X115725Y-127792D01*
X116655Y-129042D01*
X117275Y-130500D01*
X117585Y-132167D01*
Y-133833D01*
X117275Y-135500D01*
X116655Y-136958D01*
X115725Y-138209D01*
X114640Y-139042D01*
X113400Y-139250D01*
G01X125800Y-126750D02*
Y-139250D01*
G01X122235Y-126750D02*
X129365D01*
G01X138200D02*
Y-139250D01*
G01X134635Y-126750D02*
X141765D01*
G01X150600Y-139250D02*
X149360Y-139042D01*
X148275Y-138209D01*
X147345Y-136958D01*
X146725Y-135500D01*
X146415Y-133833D01*
Y-132167D01*
X146725Y-130500D01*
X147345Y-129042D01*
X148275Y-127792D01*
X149360Y-126958D01*
X150600Y-126750D01*
X151840Y-126958D01*
X152925Y-127792D01*
X153855Y-129042D01*
X154475Y-130500D01*
X154785Y-132167D01*
Y-133833D01*
X154475Y-135500D01*
X153855Y-136958D01*
X152925Y-138209D01*
X151840Y-139042D01*
X150600Y-139250D01*
G01X158970D02*
Y-126750D01*
X163000Y-137167D01*
X167030Y-126750D01*
Y-139250D01*
G01X-126695Y-189250D02*
Y-176750D01*
X-120805D01*
G01X-122975Y-182792D02*
X-126695D01*
G01X-113210Y-176750D02*
X-109490D01*
G01X-111350D02*
Y-189250D01*
G01X-113210D02*
X-109490D01*
G01X-102515D02*
Y-176750D01*
X-95385Y-189250D01*
Y-176750D01*
G01X-88410D02*
X-84690D01*
G01X-86550D02*
Y-189250D01*
G01X-88410D02*
X-84690D01*
G01X-77405Y-187584D02*
X-76165Y-188625D01*
X-74770Y-189250D01*
X-73530D01*
X-72290Y-188625D01*
X-71360Y-187584D01*
X-70895Y-186125D01*
X-71205Y-184667D01*
X-71980Y-183417D01*
X-73375Y-182583D01*
X-75235Y-182167D01*
X-76320Y-181333D01*
X-76785Y-179875D01*
X-76475Y-178417D01*
X-75700Y-177375D01*
X-74615Y-176750D01*
X-73530D01*
X-72445Y-177167D01*
X-71515Y-178208D01*
G01X-65005Y-189250D02*
Y-176750D01*
G01X-58495D02*
Y-189250D01*
G01Y-183000D02*
X-65005D01*
G01X-46250Y-189250D02*
X-52450D01*
Y-176750D01*
X-46250D01*
G01X-48730Y-182792D02*
X-52450D01*
G01X-40360Y-189250D02*
Y-176750D01*
X-37260D01*
X-36020Y-177375D01*
X-35090Y-178208D01*
X-34315Y-179458D01*
X-33695Y-180917D01*
X-33540Y-183000D01*
X-33695Y-185083D01*
X-34315Y-186542D01*
X-35090Y-187792D01*
X-36020Y-188625D01*
X-37260Y-189250D01*
X-40360D01*
G01X-29200Y-193417D02*
X-19900D01*
G01X-15405Y-187584D02*
X-14165Y-188625D01*
X-12770Y-189250D01*
X-11530D01*
X-10290Y-188625D01*
X-9360Y-187584D01*
X-8895Y-186125D01*
X-9205Y-184667D01*
X-9980Y-183417D01*
X-11375Y-182583D01*
X-13235Y-182167D01*
X-14320Y-181333D01*
X-14785Y-179875D01*
X-14475Y-178417D01*
X-13700Y-177375D01*
X-12615Y-176750D01*
X-11530D01*
X-10445Y-177167D01*
X-9515Y-178208D01*
G01X-1610Y-176750D02*
X2110D01*
G01X250D02*
Y-189250D01*
G01X-1610D02*
X2110D01*
G01X9705Y-176750D02*
X15595D01*
X9705Y-189250D01*
X15595D01*
G01X28150D02*
X21950D01*
Y-176750D01*
X28150D01*
G01X25670Y-182792D02*
X21950D01*
G01X-119875Y-164250D02*
X-116000Y-151750D01*
X-112125Y-164250D01*
G01X-113520Y-159875D02*
X-118480D01*
G01X-106700Y-151750D02*
Y-164250D01*
X-100500D01*
G01X-94300Y-151750D02*
Y-164250D01*
X-88100D01*
G01X-69810Y-151750D02*
Y-160708D01*
X-69190Y-162584D01*
X-67950Y-163833D01*
X-66400Y-164250D01*
X-64850Y-163833D01*
X-63610Y-162584D01*
X-62990Y-160708D01*
Y-151750D01*
G01X-57565Y-164250D02*
Y-151750D01*
X-50435Y-164250D01*
Y-151750D01*
G01X-43460D02*
X-39740D01*
G01X-41600D02*
Y-164250D01*
G01X-43460D02*
X-39740D01*
G01X-29200Y-151750D02*
Y-164250D01*
G01X-32765Y-151750D02*
X-25635D01*
G01X-20055Y-162584D02*
X-18815Y-163625D01*
X-17420Y-164250D01*
X-16180D01*
X-14940Y-163625D01*
X-14010Y-162584D01*
X-13545Y-161125D01*
X-13855Y-159667D01*
X-14630Y-158417D01*
X-16025Y-157583D01*
X-17885Y-157167D01*
X-18970Y-156333D01*
X-19435Y-154875D01*
X-19125Y-153417D01*
X-18350Y-152375D01*
X-17265Y-151750D01*
X-16180D01*
X-15095Y-152167D01*
X-14165Y-153208D01*
G01X4125Y-164250D02*
X8000Y-151750D01*
X11875Y-164250D01*
G01X10480Y-159875D02*
X5520D01*
G01X17300Y-164250D02*
Y-151750D01*
X21175D01*
X22415Y-152375D01*
X23190Y-153208D01*
X23500Y-154875D01*
X23190Y-156542D01*
X22260Y-157583D01*
X21175Y-158208D01*
X17300D01*
G01X21175D02*
X23500Y-164250D01*
G01X35900D02*
X29700D01*
Y-151750D01*
X35900D01*
G01X33420Y-157792D02*
X29700D01*
G01X55740Y-151750D02*
X59460D01*
G01X57600D02*
Y-164250D01*
G01X55740D02*
X59460D01*
G01X66435D02*
Y-151750D01*
X73565Y-164250D01*
Y-151750D01*
G01X90770Y-164250D02*
Y-151750D01*
X94800Y-162167D01*
X98830Y-151750D01*
Y-164250D01*
G01X105340Y-151750D02*
X109060D01*
G01X107200D02*
Y-164250D01*
G01X105340D02*
X109060D01*
G01X116500Y-151750D02*
Y-164250D01*
X122700D01*
G01X128745Y-162584D02*
X129985Y-163625D01*
X131380Y-164250D01*
X132620D01*
X133860Y-163625D01*
X134790Y-162584D01*
X135255Y-161125D01*
X134945Y-159667D01*
X134170Y-158417D01*
X132775Y-157583D01*
X130915Y-157167D01*
X129830Y-156333D01*
X129365Y-154875D01*
X129675Y-153417D01*
X130450Y-152375D01*
X131535Y-151750D01*
X132620D01*
X133705Y-152167D01*
X134635Y-153208D01*
G01X-80350Y-239250D02*
Y-226750D01*
X-82210Y-229250D01*
G01Y-239250D02*
X-78490D01*
G01X-67950D02*
Y-226750D01*
X-69810Y-229250D01*
G01Y-239250D02*
X-66090D01*
G01X-55550D02*
X-54465Y-239042D01*
X-53225Y-238417D01*
X-52450Y-237375D01*
X-52140Y-235917D01*
X-52450Y-234459D01*
X-53380Y-233208D01*
X-54775Y-232583D01*
X-56325D01*
X-57255Y-232167D01*
X-58030Y-231125D01*
X-58340Y-229667D01*
X-57875Y-228208D01*
X-56790Y-227167D01*
X-55550Y-226750D01*
X-54310Y-227167D01*
X-53225Y-228208D01*
X-52760Y-229667D01*
X-53070Y-231125D01*
X-53845Y-232167D01*
X-54775Y-232583D01*
X-56325D01*
X-57720Y-233208D01*
X-58650Y-234459D01*
X-58960Y-235917D01*
X-58650Y-237375D01*
X-57875Y-238417D01*
X-56635Y-239042D01*
X-55550Y-239250D01*
G01X-43150Y-239667D02*
X-43460Y-239458D01*
Y-239042D01*
X-43150Y-238833D01*
X-42840Y-239042D01*
Y-239458D01*
X-43150Y-239667D01*
G01X-30750Y-239250D02*
Y-226750D01*
X-32610Y-229250D01*
G01Y-239250D02*
X-28890D01*
G01X-18350D02*
Y-226750D01*
X-20210Y-229250D01*
G01Y-239250D02*
X-16490D01*
G01X-77560Y-311750D02*
X-76630Y-313209D01*
X-75390Y-314042D01*
X-73995Y-314250D01*
X-72755Y-314042D01*
X-71515Y-313000D01*
X-70740Y-311750D01*
X-70585Y-310500D01*
X-70895Y-309042D01*
X-71980Y-308000D01*
X-73065Y-307583D01*
X-74460D01*
G01X-73065D02*
X-72135Y-306958D01*
X-71360Y-305917D01*
X-71050Y-304667D01*
X-71360Y-303417D01*
X-72135Y-302375D01*
X-73530Y-301750D01*
X-74925Y-301958D01*
X-76320Y-302792D01*
G01X-64385Y-312792D02*
X-63300Y-313833D01*
X-62060Y-314250D01*
X-60820Y-313833D01*
X-59735Y-312584D01*
X-58960Y-310708D01*
X-58650Y-308833D01*
Y-306542D01*
X-58960Y-304667D01*
X-59735Y-303000D01*
X-60665Y-302167D01*
X-61750Y-301750D01*
X-62990Y-302167D01*
X-63920Y-303000D01*
X-64540Y-304250D01*
X-64850Y-305917D01*
X-64540Y-307375D01*
X-63765Y-308833D01*
X-62835Y-309667D01*
X-61750Y-309875D01*
X-60510Y-309459D01*
X-59580Y-308417D01*
X-58650Y-306542D01*
G01X-49350Y-314667D02*
X-49660Y-314458D01*
Y-314042D01*
X-49350Y-313833D01*
X-49040Y-314042D01*
Y-314458D01*
X-49350Y-314667D01*
G01X-40360Y-311750D02*
X-39430Y-313209D01*
X-38190Y-314042D01*
X-36795Y-314250D01*
X-35555Y-314042D01*
X-34315Y-313000D01*
X-33540Y-311750D01*
X-33385Y-310500D01*
X-33695Y-309042D01*
X-34780Y-308000D01*
X-35865Y-307583D01*
X-37260D01*
G01X-35865D02*
X-34935Y-306958D01*
X-34160Y-305917D01*
X-33850Y-304667D01*
X-34160Y-303417D01*
X-34935Y-302375D01*
X-36330Y-301750D01*
X-37725Y-301958D01*
X-39120Y-302792D01*
G01X-24860Y-314250D02*
X-24550Y-311542D01*
X-24085Y-309250D01*
X-23465Y-307167D01*
X-22690Y-304875D01*
X-21450Y-301750D01*
X-27650D01*
G01X-77095Y-253833D02*
X-76165Y-252584D01*
X-75080Y-251958D01*
X-73840Y-251750D01*
X-72290Y-252167D01*
X-71205Y-253208D01*
X-70895Y-254458D01*
X-71050Y-255709D01*
X-71670Y-256750D01*
X-74770Y-258833D01*
X-76165Y-260292D01*
X-77095Y-262375D01*
X-77405Y-264250D01*
X-70895D01*
G01X-65160Y-262375D02*
X-64230Y-263417D01*
X-63145Y-264042D01*
X-61750Y-264250D01*
X-60355Y-263833D01*
X-59270Y-263000D01*
X-58495Y-261542D01*
X-58340Y-259875D01*
X-58650Y-258208D01*
X-59425Y-257167D01*
X-60510Y-256333D01*
X-61595Y-256125D01*
X-62680Y-256333D01*
X-64075Y-257167D01*
X-63610Y-251750D01*
X-59425D01*
G01X-49350Y-264667D02*
X-49660Y-264458D01*
Y-264042D01*
X-49350Y-263833D01*
X-49040Y-264042D01*
Y-264458D01*
X-49350Y-264667D01*
G01X-40360Y-262375D02*
X-39430Y-263417D01*
X-38345Y-264042D01*
X-36950Y-264250D01*
X-35555Y-263833D01*
X-34470Y-263000D01*
X-33695Y-261542D01*
X-33540Y-259875D01*
X-33850Y-258208D01*
X-34625Y-257167D01*
X-35710Y-256333D01*
X-36795Y-256125D01*
X-37880Y-256333D01*
X-39275Y-257167D01*
X-38810Y-251750D01*
X-34625D01*
G01X-27185Y-262792D02*
X-26100Y-263833D01*
X-24860Y-264250D01*
X-23620Y-263833D01*
X-22535Y-262584D01*
X-21760Y-260708D01*
X-21450Y-258833D01*
Y-256542D01*
X-21760Y-254667D01*
X-22535Y-253000D01*
X-23465Y-252167D01*
X-24550Y-251750D01*
X-25790Y-252167D01*
X-26720Y-253000D01*
X-27340Y-254250D01*
X-27650Y-255917D01*
X-27340Y-257375D01*
X-26565Y-258833D01*
X-25635Y-259667D01*
X-24550Y-259875D01*
X-23310Y-259459D01*
X-22380Y-258417D01*
X-21450Y-256542D01*
G01X-71360Y-286750D02*
X-70430Y-288209D01*
X-69190Y-289042D01*
X-67795Y-289250D01*
X-66555Y-289042D01*
X-65315Y-288000D01*
X-64540Y-286750D01*
X-64385Y-285500D01*
X-64695Y-284042D01*
X-65780Y-283000D01*
X-66865Y-282583D01*
X-68260D01*
G01X-66865D02*
X-65935Y-281958D01*
X-65160Y-280917D01*
X-64850Y-279667D01*
X-65160Y-278417D01*
X-65935Y-277375D01*
X-67330Y-276750D01*
X-68725Y-276958D01*
X-70120Y-277792D01*
G01X-55550Y-289250D02*
Y-276750D01*
X-57410Y-279250D01*
G01Y-289250D02*
X-53690D01*
G01X-43150Y-289667D02*
X-43460Y-289458D01*
Y-289042D01*
X-43150Y-288833D01*
X-42840Y-289042D01*
Y-289458D01*
X-43150Y-289667D01*
G01X-34160Y-287375D02*
X-33230Y-288417D01*
X-32145Y-289042D01*
X-30750Y-289250D01*
X-29355Y-288833D01*
X-28270Y-288000D01*
X-27495Y-286542D01*
X-27340Y-284875D01*
X-27650Y-283208D01*
X-28425Y-282167D01*
X-29510Y-281333D01*
X-30595Y-281125D01*
X-31680Y-281333D01*
X-33075Y-282167D01*
X-32610Y-276750D01*
X-28425D01*
G01X-68260Y-214250D02*
X-67950Y-211542D01*
X-67485Y-209250D01*
X-66865Y-207167D01*
X-66090Y-204875D01*
X-64850Y-201750D01*
X-71050D01*
G01X-55550Y-214667D02*
X-55860Y-214458D01*
Y-214042D01*
X-55550Y-213833D01*
X-55240Y-214042D01*
Y-214458D01*
X-55550Y-214667D01*
G01X-43150Y-214250D02*
X-42065Y-214042D01*
X-40825Y-213417D01*
X-40050Y-212375D01*
X-39740Y-210917D01*
X-40050Y-209459D01*
X-40980Y-208208D01*
X-42375Y-207583D01*
X-43925D01*
X-44855Y-207167D01*
X-45630Y-206125D01*
X-45940Y-204667D01*
X-45475Y-203208D01*
X-44390Y-202167D01*
X-43150Y-201750D01*
X-41910Y-202167D01*
X-40825Y-203208D01*
X-40360Y-204667D01*
X-40670Y-206125D01*
X-41445Y-207167D01*
X-42375Y-207583D01*
X-43925D01*
X-45320Y-208208D01*
X-46250Y-209459D01*
X-46560Y-210917D01*
X-46250Y-212375D01*
X-45475Y-213417D01*
X-44235Y-214042D01*
X-43150Y-214250D01*
G01X-31060D02*
X-30750Y-211542D01*
X-30285Y-209250D01*
X-29665Y-207167D01*
X-28890Y-204875D01*
X-27650Y-201750D01*
X-33850D01*
G01X41043Y-94252D02*
X57087D01*
G03X59055Y-92283I0J1968D01*
G01Y53386D01*
G03X57087Y55354I-1968J0D01*
G01X-57087D01*
G03X-59055Y53386I0J-1968D01*
G01Y-92283D01*
G03X-57087Y-94252I1968J-1D01*
G01X-41043D01*
G02X-39075Y-96220I0J-1968D01*
G01Y-110000D01*
X19783D01*
Y-98583D01*
G02X22146Y-96220I2363J0D01*
G02X24508Y-98583I0J-2362D01*
G01Y-110000D01*
X39075D01*
Y-96220D01*
G02X41043Y-94252I1968J0D01*
G01X39075Y-96220D02*
Y-110000D01*
X24508D01*
Y-98583D01*
G03X22146Y-96220I-2362J1D01*
G03X19783Y-98583I0J-2363D01*
G01Y-110000D01*
X-39075D01*
Y-96220D01*
G03X-41043Y-94252I-1968J0D01*
G01X-57087D01*
G02X-59055Y-92283I0J1968D01*
G01Y53386D01*
G02X-57087Y55354I1968J0D01*
G01X57087D01*
G02X59055Y53386I0J-1968D01*
G01Y-92283D01*
G02X57087Y-94252I-1968J-1D01*
G01X41043D01*
G03X39075Y-96220I0J-1968D01*
G01X51400Y-170500D02*
Y-320500D01*
G01X55585Y-314250D02*
Y-301750D01*
X62715Y-314250D01*
Y-301750D01*
G01X71550Y-314250D02*
X70310Y-314042D01*
X69225Y-313209D01*
X68295Y-311958D01*
X67675Y-310500D01*
X67365Y-308833D01*
Y-307167D01*
X67675Y-305500D01*
X68295Y-304042D01*
X69225Y-302792D01*
X70310Y-301958D01*
X71550Y-301750D01*
X72790Y-301958D01*
X73875Y-302792D01*
X74805Y-304042D01*
X75425Y-305500D01*
X75735Y-307167D01*
Y-308833D01*
X75425Y-310500D01*
X74805Y-311958D01*
X73875Y-313209D01*
X72790Y-314042D01*
X71550Y-314250D01*
G01X80385D02*
Y-301750D01*
X87515Y-314250D01*
Y-301750D01*
G01X94335Y-310083D02*
X98365D01*
G01X105650Y-314250D02*
Y-301750D01*
X109370D01*
X110610Y-302375D01*
X111540Y-303833D01*
X111850Y-305500D01*
X111540Y-307167D01*
X110765Y-308417D01*
X109370Y-309042D01*
X105650D01*
G01X118050Y-301750D02*
Y-314250D01*
X124250D01*
G01X129675D02*
X133550Y-301750D01*
X137425Y-314250D01*
G01X136030Y-309875D02*
X131070D01*
G01X145950Y-301750D02*
Y-314250D01*
G01X142385Y-301750D02*
X149515D01*
G01X161450Y-314250D02*
X155250D01*
Y-301750D01*
X161450D01*
G01X158970Y-307792D02*
X155250D01*
G01X167340Y-314250D02*
Y-301750D01*
X170440D01*
X171680Y-302375D01*
X172610Y-303208D01*
X173385Y-304458D01*
X174005Y-305917D01*
X174160Y-308000D01*
X174005Y-310083D01*
X173385Y-311542D01*
X172610Y-312792D01*
X171680Y-313625D01*
X170440Y-314250D01*
X167340D01*
G01X55585Y-289250D02*
Y-276750D01*
X62715Y-289250D01*
Y-276750D01*
G01X71550Y-289250D02*
X70310Y-289042D01*
X69225Y-288209D01*
X68295Y-286958D01*
X67675Y-285500D01*
X67365Y-283833D01*
Y-282167D01*
X67675Y-280500D01*
X68295Y-279042D01*
X69225Y-277792D01*
X70310Y-276958D01*
X71550Y-276750D01*
X72790Y-276958D01*
X73875Y-277792D01*
X74805Y-279042D01*
X75425Y-280500D01*
X75735Y-282167D01*
Y-283833D01*
X75425Y-285500D01*
X74805Y-286958D01*
X73875Y-288209D01*
X72790Y-289042D01*
X71550Y-289250D01*
G01X80385D02*
Y-276750D01*
X87515Y-289250D01*
Y-276750D01*
G01X94335Y-285083D02*
X98365D01*
G01X105650Y-289250D02*
Y-276750D01*
X109370D01*
X110610Y-277375D01*
X111540Y-278833D01*
X111850Y-280500D01*
X111540Y-282167D01*
X110765Y-283417D01*
X109370Y-284042D01*
X105650D01*
G01X118050Y-276750D02*
Y-289250D01*
X124250D01*
G01X129675D02*
X133550Y-276750D01*
X137425Y-289250D01*
G01X136030Y-284875D02*
X131070D01*
G01X145950Y-276750D02*
Y-289250D01*
G01X142385Y-276750D02*
X149515D01*
G01X161450Y-289250D02*
X155250D01*
Y-276750D01*
X161450D01*
G01X158970Y-282792D02*
X155250D01*
G01X167340Y-289250D02*
Y-276750D01*
X170440D01*
X171680Y-277375D01*
X172610Y-278208D01*
X173385Y-279458D01*
X174005Y-280917D01*
X174160Y-283000D01*
X174005Y-285083D01*
X173385Y-286542D01*
X172610Y-287792D01*
X171680Y-288625D01*
X170440Y-289250D01*
X167340D01*
G01X55585Y-264250D02*
Y-251750D01*
X62715Y-264250D01*
Y-251750D01*
G01X71550Y-264250D02*
X70310Y-264042D01*
X69225Y-263209D01*
X68295Y-261958D01*
X67675Y-260500D01*
X67365Y-258833D01*
Y-257167D01*
X67675Y-255500D01*
X68295Y-254042D01*
X69225Y-252792D01*
X70310Y-251958D01*
X71550Y-251750D01*
X72790Y-251958D01*
X73875Y-252792D01*
X74805Y-254042D01*
X75425Y-255500D01*
X75735Y-257167D01*
Y-258833D01*
X75425Y-260500D01*
X74805Y-261958D01*
X73875Y-263209D01*
X72790Y-264042D01*
X71550Y-264250D01*
G01X80385D02*
Y-251750D01*
X87515Y-264250D01*
Y-251750D01*
G01X94335Y-260083D02*
X98365D01*
G01X105650Y-264250D02*
Y-251750D01*
X109370D01*
X110610Y-252375D01*
X111540Y-253833D01*
X111850Y-255500D01*
X111540Y-257167D01*
X110765Y-258417D01*
X109370Y-259042D01*
X105650D01*
G01X118050Y-251750D02*
Y-264250D01*
X124250D01*
G01X129675D02*
X133550Y-251750D01*
X137425Y-264250D01*
G01X136030Y-259875D02*
X131070D01*
G01X145950Y-251750D02*
Y-264250D01*
G01X142385Y-251750D02*
X149515D01*
G01X161450Y-264250D02*
X155250D01*
Y-251750D01*
X161450D01*
G01X158970Y-257792D02*
X155250D01*
G01X167340Y-264250D02*
Y-251750D01*
X170440D01*
X171680Y-252375D01*
X172610Y-253208D01*
X173385Y-254458D01*
X174005Y-255917D01*
X174160Y-258000D01*
X174005Y-260083D01*
X173385Y-261542D01*
X172610Y-262792D01*
X171680Y-263625D01*
X170440Y-264250D01*
X167340D01*
G01X80850Y-239250D02*
Y-226750D01*
X84570D01*
X85810Y-227375D01*
X86740Y-228833D01*
X87050Y-230500D01*
X86740Y-232167D01*
X85965Y-233417D01*
X84570Y-234042D01*
X80850D01*
G01X93250Y-226750D02*
Y-239250D01*
X99450D01*
G01X104875D02*
X108750Y-226750D01*
X112625Y-239250D01*
G01X111230Y-234875D02*
X106270D01*
G01X121150Y-226750D02*
Y-239250D01*
G01X117585Y-226750D02*
X124715D01*
G01X136650Y-239250D02*
X130450D01*
Y-226750D01*
X136650D01*
G01X134170Y-232792D02*
X130450D01*
G01X142540Y-239250D02*
Y-226750D01*
X145640D01*
X146880Y-227375D01*
X147810Y-228208D01*
X148585Y-229458D01*
X149205Y-230917D01*
X149360Y-233000D01*
X149205Y-235083D01*
X148585Y-236542D01*
X147810Y-237792D01*
X146880Y-238625D01*
X145640Y-239250D01*
X142540D01*
G01X80850Y-214250D02*
Y-201750D01*
X84570D01*
X85810Y-202375D01*
X86740Y-203833D01*
X87050Y-205500D01*
X86740Y-207167D01*
X85965Y-208417D01*
X84570Y-209042D01*
X80850D01*
G01X93250Y-201750D02*
Y-214250D01*
X99450D01*
G01X104875D02*
X108750Y-201750D01*
X112625Y-214250D01*
G01X111230Y-209875D02*
X106270D01*
G01X121150Y-201750D02*
Y-214250D01*
G01X117585Y-201750D02*
X124715D01*
G01X136650Y-214250D02*
X130450D01*
Y-201750D01*
X136650D01*
G01X134170Y-207792D02*
X130450D01*
G01X142540Y-214250D02*
Y-201750D01*
X145640D01*
X146880Y-202375D01*
X147810Y-203208D01*
X148585Y-204458D01*
X149205Y-205917D01*
X149360Y-208000D01*
X149205Y-210083D01*
X148585Y-211542D01*
X147810Y-212792D01*
X146880Y-213625D01*
X145640Y-214250D01*
X142540D01*
G01X80850Y-189250D02*
Y-176750D01*
X84570D01*
X85810Y-177375D01*
X86740Y-178833D01*
X87050Y-180500D01*
X86740Y-182167D01*
X85965Y-183417D01*
X84570Y-184042D01*
X80850D01*
G01X93250Y-176750D02*
Y-189250D01*
X99450D01*
G01X104875D02*
X108750Y-176750D01*
X112625Y-189250D01*
G01X111230Y-184875D02*
X106270D01*
G01X121150Y-176750D02*
Y-189250D01*
G01X117585Y-176750D02*
X124715D01*
G01X136650Y-189250D02*
X130450D01*
Y-176750D01*
X136650D01*
G01X134170Y-182792D02*
X130450D01*
G01X142540Y-189250D02*
Y-176750D01*
X145640D01*
X146880Y-177375D01*
X147810Y-178208D01*
X148585Y-179458D01*
X149205Y-180917D01*
X149360Y-183000D01*
X149205Y-185083D01*
X148585Y-186542D01*
X147810Y-187792D01*
X146880Y-188625D01*
X145640Y-189250D01*
X142540D01*
G01X178500Y-170500D02*
Y-320500D01*
G01X201440Y-212375D02*
X202370Y-213417D01*
X203455Y-214042D01*
X204850Y-214250D01*
X206245Y-213833D01*
X207330Y-213000D01*
X208105Y-211542D01*
X208260Y-209875D01*
X207950Y-208208D01*
X207175Y-207167D01*
X206090Y-206333D01*
X205005Y-206125D01*
X203920Y-206333D01*
X202525Y-207167D01*
X202990Y-201750D01*
X207175D01*
G01X213840Y-211750D02*
X214770Y-213209D01*
X216010Y-214042D01*
X217405Y-214250D01*
X218645Y-214042D01*
X219885Y-213000D01*
X220660Y-211750D01*
X220815Y-210500D01*
X220505Y-209042D01*
X219420Y-208000D01*
X218335Y-207583D01*
X216940D01*
G01X218335D02*
X219265Y-206958D01*
X220040Y-205917D01*
X220350Y-204667D01*
X220040Y-203417D01*
X219265Y-202375D01*
X217870Y-201750D01*
X216475Y-201958D01*
X215080Y-202792D01*
G01X227015Y-212792D02*
X228100Y-213833D01*
X229340Y-214250D01*
X230580Y-213833D01*
X231665Y-212584D01*
X232440Y-210708D01*
X232750Y-208833D01*
Y-206542D01*
X232440Y-204667D01*
X231665Y-203000D01*
X230735Y-202167D01*
X229650Y-201750D01*
X228410Y-202167D01*
X227480Y-203000D01*
X226860Y-204250D01*
X226550Y-205917D01*
X226860Y-207375D01*
X227635Y-208833D01*
X228565Y-209667D01*
X229650Y-209875D01*
X230890Y-209459D01*
X231820Y-208417D01*
X232750Y-206542D01*
G01X204850Y-189250D02*
X203610Y-189042D01*
X202525Y-188209D01*
X201595Y-186958D01*
X200975Y-185500D01*
X200665Y-183833D01*
Y-182167D01*
X200975Y-180500D01*
X201595Y-179042D01*
X202525Y-177792D01*
X203610Y-176958D01*
X204850Y-176750D01*
X206090Y-176958D01*
X207175Y-177792D01*
X208105Y-179042D01*
X208725Y-180500D01*
X209035Y-182167D01*
Y-183833D01*
X208725Y-185500D01*
X208105Y-186958D01*
X207175Y-188209D01*
X206090Y-189042D01*
X204850Y-189250D01*
G01X206090Y-185917D02*
X207950Y-189250D01*
G01X217250Y-176750D02*
Y-189250D01*
G01X213685Y-176750D02*
X220815D01*
G01X229650Y-189250D02*
Y-183625D01*
X226550Y-176750D01*
G01X232750D02*
X229650Y-183625D01*
G01X214305Y-303833D02*
X215235Y-302584D01*
X216320Y-301958D01*
X217560Y-301750D01*
X219110Y-302167D01*
X220195Y-303208D01*
X220505Y-304458D01*
X220350Y-305709D01*
X219730Y-306750D01*
X216630Y-308833D01*
X215235Y-310292D01*
X214305Y-312375D01*
X213995Y-314250D01*
X220505D01*
G01X214305Y-278833D02*
X215235Y-277584D01*
X216320Y-276958D01*
X217560Y-276750D01*
X219110Y-277167D01*
X220195Y-278208D01*
X220505Y-279458D01*
X220350Y-280709D01*
X219730Y-281750D01*
X216630Y-283833D01*
X215235Y-285292D01*
X214305Y-287375D01*
X213995Y-289250D01*
X220505D01*
G01X214305Y-253833D02*
X215235Y-252584D01*
X216320Y-251958D01*
X217560Y-251750D01*
X219110Y-252167D01*
X220195Y-253208D01*
X220505Y-254458D01*
X220350Y-255709D01*
X219730Y-256750D01*
X216630Y-258833D01*
X215235Y-260292D01*
X214305Y-262375D01*
X213995Y-264250D01*
X220505D01*
G01X217250Y-239250D02*
Y-226750D01*
X215390Y-229250D01*
G01Y-239250D02*
X219110D01*
M02*
