G04 ================== begin FILE IDENTIFICATION RECORD ==================*
G04 Layout Name:  F:/PCB_PROJECT/a33_pcie/allegro/A33_M2.brd*
G04 Film Name:    GND*
G04 File Format:  Gerber RS274X*
G04 File Origin:  Cadence Allegro 17.2-S058*
G04 Origin Date:  Sat Nov 07 21:40:12 2020*
G04 *
G04 Layer:  BOARD GEOMETRY/OUTLINE*
G04 Layer:  ETCH/L2*
G04 Layer:  PIN/L2*
G04 Layer:  VIA CLASS/L2*
G04 *
G04 Offset:    (0.00 0.00)*
G04 Mirror:    No*
G04 Mode:      Positive*
G04 Rotation:  0*
G04 FullContactRelief:  No*
G04 UndefLineWidth:     0.00*
G04 ================== end FILE IDENTIFICATION RECORD ====================*
%FSLAX25Y25*MOIN*%
%IR0*IPPOS*OFA0.00000B0.00000*MIA0B0*SFA1.00000B1.00000*%
%ADD10C,.01772*%
%ADD11C,.15748*%
%ADD12C,.01*%
%ADD13C,.004*%
%ADD14C,.007*%
%ADD15C,.008*%
%ADD16C,.0035*%
%ADD17C,.02208*%
G75*
%LPD*%
G75*
G36*
G01X-57087Y54853D02*
X57087D01*
G02X58554Y53386I0J-1467D01*
G01Y-77227D01*
G02X57874Y-77512I-400J0D01*
G03X57100Y-77196I-773J-788D01*
G03X55996Y-78300I0J-1104D01*
G03X55998Y-78373I1104J-6D01*
G02X55573Y-78798I-399J-26D01*
G03X55500Y-78796I-67J-1102D01*
G03X56604Y-79900I0J-1104D01*
G03X56602Y-79827I-1104J6D01*
G02X57027Y-79402I399J26D01*
G03X57100Y-79404I67J1102D01*
G03X57874Y-79088I1J1104D01*
G02X58554Y-79373I280J-285D01*
G01Y-92284D01*
G02X57087Y-93751I-1467J0D01*
G01X41043D01*
G03X38581Y-96033I0J-2469D01*
G01X38567Y-96218D01*
X23760D01*
G03X22146Y-95719I-1615J-2364D01*
G03X20532Y-96218I1J-2863D01*
G01X-4235D01*
G02X-4535Y-95553I0J400D01*
G03X-4212Y-94700I-965J853D01*
G03X-4871Y-93576I-1288J0D01*
G01X-4974Y-93519D01*
Y-92218D01*
X-3973Y-91218D01*
G02X-3294Y-91447I283J-283D01*
G03X-3046Y-92009I1094J147D01*
G02X-3079Y-92559I-306J-258D01*
G03X-3488Y-93500I878J-941D01*
G03X-912I1288J0D01*
G03X-1005Y-93021I-1288J-1D01*
G01X-1054Y-92898D01*
X-941Y-92786D01*
G02X-270Y-92970I283J-282D01*
G03X800Y-93804I1070J269D01*
G03X1904Y-92700I0J1104D01*
G03X1553Y-91893I-1103J0D01*
G02Y-91307I273J293D01*
G03X1904Y-90500I-752J807D01*
G03X1070Y-89430I-1103J0D01*
G02X886Y-88759I98J388D01*
G01X3718Y-85926D01*
X33200D01*
G03X33572Y-85772I0J526D01*
G01X42572Y-76772D01*
G03X42598Y-76745I-366J378D01*
G02X43219Y-76766I302J-262D01*
G03X44100Y-77204I881J667D01*
G03Y-74996I0J1104D01*
G03X43106Y-75619I0J-1104D01*
G01X43052Y-75731D01*
X42726D01*
Y-75118D01*
X43372Y-74472D01*
G03X43526Y-74100I-372J372D01*
G01Y-73870D01*
G02X43830Y-73699I200J0D01*
G03X44497Y-73885I667J1103D01*
G03X45785Y-72597I0J1288D01*
G03X45736Y-72247I-1288J-2D01*
G01X45705Y-72134D01*
X46212Y-71626D01*
X46329D01*
G02X46500Y-71930I0J-200D01*
G03X46312Y-72600I1100J-670D01*
G03X47600Y-73888I1288J0D01*
G03X48724Y-73229I0J1288D01*
G01X48781Y-73126D01*
X50700D01*
G03X51072Y-72972I0J526D01*
G01X57172Y-66872D01*
G03X57326Y-66500I-372J372D01*
G01Y2900D01*
G03X57172Y3272I-526J0D01*
G01X50172Y10272D01*
G03X49800Y10426I-372J-372D01*
G01X6218D01*
X3926Y12718D01*
Y24582D01*
X4818Y25474D01*
X5902D01*
Y25125D01*
G03X6854Y24174I951J0D01*
G03X7452Y24385I1J951D01*
G02X7956I252J-311D01*
G03X8554Y24174I597J740D01*
G03X9261Y24489I0J951D01*
G02X9900Y24429I297J-268D01*
G03X11000Y23812I1100J672D01*
G03X12288Y25100I0J1288D01*
G03X11822Y26092I-1289J0D01*
G02Y26708I255J308D01*
G03X12288Y27700I-823J992D01*
G03X9712I-1288J0D01*
G01Y27682D01*
G02X9312Y27276I-400J-6D01*
G01X4289D01*
G03X3917Y27122I0J-526D01*
G01X2278Y25483D01*
G03X2124Y25111I372J-372D01*
G01Y17969D01*
G02X1558Y17605I-400J0D01*
G03X1100Y17704I-457J-1005D01*
G03Y15496I0J-1104D01*
G03X1558Y15595I1J1104D01*
G02X2124Y15231I166J-364D01*
G01Y12189D01*
G03X2278Y11817I526J0D01*
G01X5317Y8778D01*
G03X5689Y8624I372J372D01*
G01X9182D01*
G02X9532Y8031I-1J-400D01*
G03X9396Y7500I969J-531D01*
G03X11604I1104J0D01*
G03X11468Y8031I-1105J0D01*
G02X11818Y8624I351J193D01*
G01X49271D01*
X55524Y2371D01*
Y695D01*
G02X54818Y438I-400J1D01*
G03X53000Y1283I-1818J-1533D01*
G03Y-3471I0J-2377D01*
G03X54818Y-2626I0J2378D01*
G02X55524Y-2883I306J-258D01*
G01Y-11117D01*
G02X54818Y-11374I-400J1D01*
G03X53000Y-10529I-1818J-1533D01*
G03X50624Y-12827I0J-2377D01*
G02X49979Y-13129I-400J13D01*
G03X49300Y-12896I-678J-871D01*
G03Y-15104I0J-1104D01*
G01X49309D01*
G02X49712Y-15503I3J-400D01*
G03X49713Y-15539I1288J18D01*
G02X49471Y-15741I-200J-6D01*
G03X49200Y-15712I-272J-1259D01*
G03X47912Y-17000I0J-1288D01*
G03X48780Y-18218I1289J0D01*
G03X48828Y-18272I417J322D01*
G01X53074Y-22518D01*
Y-23463D01*
G02X52391Y-23746I-400J0D01*
G01X44272Y-15628D01*
G03X43900Y-15474I-372J-372D01*
G01X30700D01*
G03X30328Y-15628I0J-526D01*
G01X28863Y-17092D01*
X28750Y-17061D01*
G03X28400Y-17012I-352J-1239D01*
G03X27112Y-18300I0J-1288D01*
G03X27596Y-19306I1287J0D01*
G02X27663Y-19863I-250J-313D01*
G03X27433Y-20537I874J-674D01*
G03X29641I1104J0D01*
G03X29322Y-19761I-1103J0D01*
G02X29321Y-19200I285J281D01*
G03X29688Y-18300I-920J900D01*
G03X29639Y-17950I-1288J-2D01*
G01X29608Y-17837D01*
X30918Y-16526D01*
X43682D01*
X52374Y-25218D01*
Y-34482D01*
X52042Y-34814D01*
X51860Y-34632D01*
X51847Y-34576D01*
G03X50772Y-33723I-1075J-251D01*
G03X50078Y-33968I0J-1104D01*
G02X49426Y-33657I-252J311D01*
G01Y-32978D01*
G03X49272Y-32606I-526J0D01*
G01X48830Y-32163D01*
X48861Y-32050D01*
G03X48910Y-31700I-1239J352D01*
G03X47622Y-30412I-1288J0D01*
G03X47168Y-30495I1J-1288D01*
G02X46626Y-30121I-142J374D01*
G01Y-29918D01*
X46924Y-29620D01*
X47053Y-29683D01*
G03X47622Y-29816I570J1155D01*
G03X46334Y-28528I0J1288D01*
G03X46337Y-28620I1288J-4D01*
G01X46344Y-28712D01*
X45925Y-29130D01*
X45707Y-28911D01*
X45730Y-28804D01*
G03X45760Y-28528I-1258J276D01*
G03X45555Y-27830I-1288J1D01*
G02X45636Y-27306I336J216D01*
G03X45672Y-27272I-343J399D01*
G01X46572Y-26372D01*
G03X46726Y-26000I-372J372D01*
G01Y-24000D01*
G03X46572Y-23628I-526J0D01*
G01X45708Y-22763D01*
X45739Y-22650D01*
G03X45788Y-22300I-1239J352D01*
G03X44500Y-21012I-1288J0D01*
G03X44006Y-21110I-1J-1288D01*
G02X43509Y-20945I-153J369D01*
G03X42400Y-20312I-1109J-655D01*
G03X41232Y-21058I0J-1287D01*
G01X41178Y-21174D01*
X40900D01*
G03X40528Y-21328I0J-526D01*
G01X38528Y-23328D01*
G03X38374Y-23700I372J-372D01*
G01Y-24182D01*
X31382Y-31174D01*
X30000D01*
G03X29628Y-31328I0J-526D01*
G01X27355Y-33600D01*
X25710D01*
G02X25427Y-32917I0J400D01*
G01X34518Y-23826D01*
X36200D01*
G03X36572Y-23672I0J526D01*
G01X37472Y-22772D01*
G03X37626Y-22400I-372J372D01*
G01Y-20000D01*
G03X37472Y-19628I-526J0D01*
G01X36808Y-18963D01*
X36839Y-18850D01*
G03X36888Y-18500I-1239J352D01*
G03X35600Y-19788I-1288J0D01*
G03X35950Y-19739I-2J1288D01*
G01X36063Y-19708D01*
X36574Y-20218D01*
Y-20529D01*
G02X36270Y-20700I-200J0D01*
G03X35600Y-20512I-670J-1100D01*
G03X34781Y-20806I0J-1288D01*
G02X34126Y-20497I-255J309D01*
G01Y-20300D01*
G03X33972Y-19928I-526J0D01*
G01X33111Y-19066D01*
X33169Y-18940D01*
G03X33288Y-18400I-1169J541D01*
G03X32000Y-19688I-1288J0D01*
G03X32132Y-19681I-2J1288D01*
G01X32227Y-19671D01*
X33074Y-20518D01*
Y-21782D01*
X22634Y-32221D01*
G02X21952Y-31938I-282J283D01*
G01Y-23811D01*
X23231Y-22531D01*
G03X23452Y-22000I-530J532D01*
G01Y-21631D01*
X23705D01*
X23751Y-21658D01*
G03X24300Y-21804I549J959D01*
G03Y-19596I0J1104D01*
G03X23971Y-19646I-1J-1104D01*
G02X23452Y-19264I-119J382D01*
G01Y-18711D01*
X36131Y-6031D01*
G03X36331Y-5673I-531J531D01*
G03X37088Y-4500I-530J1173D01*
G03X34512I-1288J0D01*
G03X34684Y-5143I1288J0D01*
G01X34761Y-5276D01*
X26334Y-13703D01*
G02X25652Y-13420I-282J283D01*
G01Y-12054D01*
X23346Y-9748D01*
X-11346D01*
X-12452Y-10854D01*
Y-12156D01*
G03X-12688Y-12900I1052J-743D01*
G03X-12452Y-13644I1288J-1D01*
G01Y-14146D01*
X-10546Y-16052D01*
X8779D01*
G02X9062Y-16734I0J-400D01*
G01X8184Y-17612D01*
X8100D01*
G03X9388Y-18900I0J-1288D01*
G01Y-18816D01*
X10953Y-17252D01*
X13196D01*
G02X13542Y-17851I-1J-400D01*
G03X13396Y-18400I959J-549D01*
G03X15604I1104J0D01*
G03X15580Y-18171I-1105J0D01*
G02X15978Y-17688I391J83D01*
G01X16000D01*
G03X16765Y-17436I0J1287D01*
G02X17375Y-17609I238J-321D01*
G03X18400Y-18304I1025J408D01*
G03X19207Y-17953I0J1103D01*
G02X19793I293J-273D01*
G03X20600Y-18304I807J752D01*
G03X21704Y-17200I0J1104D01*
G03X21558Y-16651I-1105J0D01*
G02X21904Y-16052I347J199D01*
G01X23221D01*
X23261Y-16070D01*
G03X23468Y-16145I541J1169D01*
G01X23520Y-16158D01*
X23699Y-16338D01*
X22169Y-17869D01*
G03X21948Y-18400I530J-532D01*
G01Y-18758D01*
G02X21323Y-19088I-400J0D01*
G03X20700Y-18896I-622J-912D01*
G03Y-21104I0J-1104D01*
G03X21323Y-20912I1J1104D01*
G02X21948Y-21242I225J-330D01*
G01Y-21689D01*
X20669Y-22969D01*
G03X20448Y-23500I530J-532D01*
G01Y-33537D01*
G02X19843Y-33880I-400J0D01*
G03X19276Y-33723I-567J-947D01*
G03Y-35931I0J-1104D01*
G03X19843Y-35774I0J1104D01*
G02X20448Y-36117I205J-343D01*
G01Y-53945D01*
X19695Y-54698D01*
X18000D01*
G03X17504Y-54904I1J-702D01*
G01X14104Y-58304D01*
G03X13898Y-58800I496J-497D01*
G01Y-58938D01*
G02X13588Y-59105I-200J0D01*
G03X12976Y-58920I-612J-920D01*
G03Y-61128I0J-1104D01*
G03X13588Y-60943I0J1105D01*
G02X13898Y-61110I110J-167D01*
G01Y-61259D01*
X13247Y-61910D01*
X13149Y-61897D01*
G03X12976Y-61885I-175J-1276D01*
G03X14264Y-63173I0J-1288D01*
G03X14252Y-63001I-1288J-3D01*
G01X14239Y-62902D01*
X15096Y-62046D01*
G03X15302Y-61550I-496J497D01*
G01Y-61467D01*
G02X15814Y-61083I400J0D01*
G03X16126Y-61128I312J1059D01*
G03X17230Y-60024I0J1104D01*
G03X16335Y-58940I-1104J0D01*
G02X16128Y-58264I75J393D01*
G01X17533Y-56859D01*
G02X18210Y-57078I282J-283D01*
G03X19300Y-58004I1090J179D01*
G03X20088Y-57673I0J1103D01*
G02X20774Y-57953I286J-280D01*
G01Y-65295D01*
G02X20082Y-65568I-400J0D01*
G03X19276Y-65219I-806J-756D01*
G03Y-67427I0J-1104D01*
G03X20082Y-67078I0J1105D01*
G02X20774Y-67351I292J-273D01*
G01Y-68444D01*
G02X20082Y-68717I-400J0D01*
G03X19276Y-68368I-806J-756D01*
G03Y-70576I0J-1104D01*
G03X20375Y-69582I0J1105D01*
G01X20393Y-69402D01*
X20774D01*
Y-70382D01*
X16982Y-74174D01*
X-6500D01*
G03X-6872Y-74328I0J-526D01*
G01X-8618Y-76074D01*
X-12373D01*
G02X-12752Y-75548I1J400D01*
G03X-12696Y-75200I-1048J347D01*
G03X-13127Y-74325I-1104J0D01*
G02X-13180Y-73740I244J317D01*
G03X-12896Y-73000I-820J739D01*
G03X-15104I-1104J0D01*
G03X-14673Y-73875I1104J0D01*
G02X-14620Y-74460I-244J-317D01*
G03X-14904Y-75200I820J-739D01*
G03X-14848Y-75548I1104J-1D01*
G02X-15227Y-76074I-380J-126D01*
G01X-18100D01*
G03X-18472Y-76228I0J-526D01*
G01X-20874Y-78629D01*
G02X-21514Y-78526I-283J283D01*
G03X-22500Y-77918I-986J-496D01*
G03X-23604Y-79022I0J-1104D01*
G03X-22767Y-80093I1104J0D01*
G01X-22713Y-80107D01*
X-22532Y-80287D01*
X-22918Y-80674D01*
X-34100D01*
G03X-34367Y-80746I-1J-526D01*
G01X-34413Y-80774D01*
X-34500D01*
G03X-34872Y-80928I0J-526D01*
G01X-39118Y-85174D01*
X-39610D01*
G02X-39953Y-84568I0J400D01*
G03X-39796Y-84000I-947J567D01*
G03X-42004I-1104J0D01*
G03X-41847Y-84568I1104J-1D01*
G02X-42190Y-85174I-343J-206D01*
G01X-42482D01*
X-43028Y-84628D01*
G03X-43400Y-84474I-372J-372D01*
G01X-44119D01*
X-44176Y-84371D01*
G03X-45300Y-83712I-1124J-629D01*
G03X-46588Y-85000I0J-1288D01*
G03X-45474Y-86276I1288J0D01*
G02X-45363Y-86619I-27J-198D01*
G03X-45372Y-86628I367J-376D01*
G01X-46272Y-87528D01*
G03X-46426Y-87900I372J-372D01*
G01Y-89146D01*
X-46556Y-89195D01*
G03X-47388Y-90400I457J-1205D01*
G03X-44812I1288J0D01*
G03X-44822Y-90238I-1288J2D01*
G02X-44419Y-89788I397J50D01*
G01X-44400D01*
G03X-43182Y-88920I0J1289D01*
G03X-43128Y-88872I-322J417D01*
G01X-41882Y-87626D01*
X-40245D01*
G02X-39887Y-88206I0J-400D01*
G03X-40004Y-88700I987J-495D01*
G03X-38900Y-89804I1104J0D01*
G03X-38798Y-89799I-3J1104D01*
G02X-38367Y-90269I37J-398D01*
G03X-38388Y-90500I1267J-232D01*
G03X-37100Y-91788I1288J0D01*
G03X-36542Y-91661I0J1289D01*
G02X-35978Y-91936I173J-361D01*
G03X-34900Y-92804I1078J235D01*
G03X-33816Y-91910I0J1104D01*
G02X-33141Y-91704I392J-77D01*
G01X-33072Y-91772D01*
G03X-32700Y-91926I372J372D01*
G01X-32081D01*
X-32024Y-92029D01*
G03X-30900Y-92688I1124J629D01*
G03X-29694Y-91851I0J1287D01*
G01X-29678Y-91810D01*
X-29506Y-91638D01*
X-29108Y-92037D01*
X-29139Y-92150D01*
G03X-29188Y-92500I1239J-352D01*
G03X-26612I1288J0D01*
G03X-26923Y-91661I-1287J0D01*
G02Y-91139I303J261D01*
G03X-26612Y-90300I-976J839D01*
G03X-26661Y-89950I-1288J-2D01*
G01X-26692Y-89837D01*
X-26596Y-89740D01*
G02X-25978Y-89805I283J-283D01*
G03X-25779Y-90041I1077J706D01*
G02X-25746Y-90591I-273J-292D01*
G03X-26004Y-91300I845J-709D01*
G03X-25653Y-92107I1103J0D01*
G02Y-92693I-273J-293D01*
G03X-26004Y-93500I752J-807D01*
G03X-23796I1104J0D01*
G03X-24147Y-92693I-1103J0D01*
G02Y-92107I273J293D01*
G03X-23796Y-91300I-752J807D01*
G03X-24054Y-90591I-1103J0D01*
G02X-24021Y-90041I306J258D01*
G03X-23612Y-89100I-878J941D01*
G03X-23661Y-88750I-1288J-2D01*
G01X-23692Y-88637D01*
X-23182Y-88126D01*
X-22615D01*
Y-88424D01*
X-22692Y-88484D01*
G03X-23188Y-89500I793J-1016D01*
G03X-22779Y-90441I1287J0D01*
G02X-22746Y-90991I-273J-292D01*
G03Y-92409I845J-709D01*
G02X-22779Y-92959I-306J-258D01*
G03X-23188Y-93900I878J-941D01*
G03X-20612I1288J0D01*
G03X-20661Y-93550I-1288J-2D01*
G01X-20692Y-93437D01*
X-19781Y-92526D01*
G02X-19180Y-92567I283J-283D01*
G03X-19146Y-92609I875J673D01*
G02X-19179Y-93159I-306J-258D01*
G03X-19588Y-94100I878J-941D01*
G03X-17012I1288J0D01*
G03X-17061Y-93750I-1288J-2D01*
G01X-17092Y-93637D01*
X-16128Y-92672D01*
G03X-15974Y-92300I-372J372D01*
G01Y-91980D01*
X-15613D01*
X-15578Y-92137D01*
G03X-15346Y-92609I1078J237D01*
G02X-15379Y-93159I-306J-258D01*
G03X-15788Y-94100I878J-941D01*
G03X-14500Y-95388I1288J0D01*
G03X-13232Y-94327I0J1288D01*
G01X-13221Y-94266D01*
X-12628Y-93672D01*
G03X-12474Y-93300I-372J372D01*
G01Y-92868D01*
X-12184D01*
X-12124Y-92934D01*
G03X-11300Y-93304I825J734D01*
G03X-10196Y-92200I0J1104D01*
G03X-10231Y-91926I-1104J-2D01*
G02X-9843Y-91426I388J100D01*
G01X-6723D01*
Y-91637D01*
X-6724Y-91647D01*
G03X-6726Y-91700I524J-46D01*
G01Y-92482D01*
X-7553Y-93309D01*
X-7693Y-93196D01*
G03X-8500Y-92912I-807J-1005D01*
G03Y-95488I0J-1288D01*
G03X-7257Y-94539I0J1289D01*
G01X-7244Y-94488D01*
X-6975Y-94219D01*
X-6763Y-94431D01*
X-6777Y-94529D01*
G03X-6788Y-94700I1277J-168D01*
G03X-6465Y-95553I1288J0D01*
G02X-6765Y-96218I-300J-265D01*
G01X-38567D01*
X-38581Y-96033D01*
G03X-41043Y-93751I-2462J-187D01*
G01X-47597D01*
G02X-47944Y-93151I0J400D01*
G03X-47796Y-92600I-956J552D01*
G03X-50004I-1104J0D01*
G03X-49856Y-93151I1104J1D01*
G02X-50203Y-93751I-347J-200D01*
G01X-57087D01*
G02X-58554Y-92284I0J1467D01*
G01Y-2218D01*
G02X-57807Y-2020I400J0D01*
G03X-55400Y-3418I2407J1373D01*
G03Y2122I0J2770D01*
G03X-57807Y724I0J-2771D01*
G02X-58554Y922I-347J198D01*
G01Y29278D01*
G02X-57807Y29476I400J0D01*
G03X-55400Y28078I2407J1373D01*
G03Y33618I0J2770D01*
G03X-57807Y32220I0J-2771D01*
G02X-58554Y32418I-347J198D01*
G01Y53386D01*
G02X-57087Y54853I1467J0D01*
G37*
G36*
G01X-3582Y-81526D02*
X663D01*
G02X946Y-82209I0J-400D01*
G01X-2818Y-85974D01*
X-4100D01*
G03X-4472Y-86128I0J-526D01*
G01X-5118Y-86774D01*
X-8663D01*
G02X-8946Y-86091I0J400D01*
G01X-6282Y-83426D01*
X-5700D01*
G03X-5328Y-83272I0J526D01*
G01X-3582Y-81526D01*
G37*
G36*
G01X-11200Y-10100D02*
X23200D01*
X25300Y-12200D01*
Y-14400D01*
X24000Y-15700D01*
X17081D01*
G03X16000Y-15112I-1081J-700D01*
G03X15034Y-15548I0J-1288D01*
G01X10600D01*
G03X10160Y-15671I1J-852D01*
G01X10112Y-15700D01*
X-10400D01*
X-12100Y-14000D01*
Y-11000D01*
X-11200Y-10100D01*
G37*
%LPC*%
G75*
G36*
G01X-36353Y-62093D02*
G03Y-61507I-273J293D01*
G02X-36704Y-60700I752J807D01*
G02X-34496I1104J0D01*
G02X-34847Y-61507I-1103J0D01*
G03Y-62093I273J-293D01*
G02X-34496Y-62900I-752J-807D01*
G02X-36704I-1104J0D01*
G02X-36353Y-62093I1103J0D01*
G37*
G36*
G01X-21667Y-49098D02*
G03X-21294Y-48646I-24J399D01*
G02X-21304Y-48500I1094J148D01*
G02X-19096I1104J0D01*
G02X-20133Y-49602I-1104J0D01*
G03X-20506Y-50054I24J-399D01*
G02X-20496Y-50200I-1094J-148D01*
G02X-22704I-1104J0D01*
G02X-21667Y-49098I1104J0D01*
G37*
G36*
G01X-18253Y-46593D02*
G03Y-46007I-273J293D01*
G02X-18604Y-45200I752J807D01*
G02X-16396I1104J0D01*
G02X-16747Y-46007I-1103J0D01*
G03Y-46593I273J-293D01*
G02X-16396Y-47400I-752J-807D01*
G02X-18604I-1104J0D01*
G02X-18253Y-46593I1103J0D01*
G37*
G36*
G01X-41252Y-6592D02*
G03X-41225Y-6033I-272J293D01*
G02X-41504Y-5300I825J734D01*
G02X-39296I1104J0D01*
G02X-39648Y-6108I-1103J0D01*
G03X-39675Y-6667I272J-293D01*
G02X-39396Y-7400I-825J-734D01*
G02X-39725Y-8187I-1104J-1D01*
G03X-39779Y-8692I280J-285D01*
G02X-39596Y-9300I-921J-609D01*
G02X-41804I-1104J0D01*
G02X-41475Y-8513I1104J1D01*
G03X-41421Y-8008I-280J285D01*
G02X-41604Y-7400I921J609D01*
G02X-41252Y-6592I1103J0D01*
G37*
G36*
G01X9447Y-4248D02*
X9912Y-3784D01*
Y-3700D01*
G02X11200Y-4988I1288J0D01*
G01X11116D01*
X10402Y-5702D01*
G02X9800Y-5952I-603J602D01*
G01X-6347D01*
X-6712Y-6316D01*
Y-6400D01*
G02X-8000Y-5112I-1288J0D01*
G01X-7916D01*
X-7302Y-4498D01*
G02X-6700Y-4248I603J-602D01*
G01X9447D01*
G37*
G36*
G01X-23753Y-1093D02*
G03Y-507I-273J293D01*
G02X-24104Y300I752J807D01*
G02X-21896I1104J0D01*
G02X-22247Y-507I-1103J0D01*
G03Y-1093I273J-293D01*
G02X-21896Y-1900I-752J-807D01*
G02X-24104I-1104J0D01*
G02X-23753Y-1093I1103J0D01*
G37*
G36*
G01X-62Y598D02*
G03X-307Y736I-192J-55D01*
G02X-600Y696I-294J1064D01*
G02Y2904I0J1104D01*
G02X462Y2102I0J-1104D01*
G03X707Y1964I192J55D01*
G02X1000Y2004I294J-1064D01*
G02X2104Y900I0J-1104D01*
G02X2028Y497I-1104J0D01*
G03X2400Y-48I372J-145D01*
G01X8072D01*
X8910Y790D01*
G02X9300Y952I391J-390D01*
G01X13200D01*
G02X13590Y790I-1J-552D01*
G01X14590Y-210D01*
G02X14752Y-600I-390J-391D01*
G01Y-3236D01*
G02X15488Y-4400I-552J-1164D01*
G02X12912I-1288J0D01*
G02X13648Y-3236I1288J0D01*
G01Y-828D01*
X12972Y-152D01*
X9528D01*
X8690Y-990D01*
G02X8300Y-1152I-391J390D01*
G01X-6319D01*
G03X-6717Y-1587I0J-400D01*
G02X-6712Y-1700I-1283J-113D01*
G02X-8000Y-412I-1288J0D01*
G02X-7674Y-454I0J-1288D01*
G01X-7563Y-483D01*
X-7290Y-210D01*
G02X-6900Y-48I391J-390D01*
G01X-400D01*
G03X-28Y497I0J400D01*
G02X-62Y598I1028J402D01*
G37*
G36*
G01X23928Y19748D02*
X22166D01*
G02X21200Y19312I-966J852D01*
G02Y21888I0J1288D01*
G02X22166Y21452I0J-1288D01*
G01X24600D01*
G02X25106Y21285I-1J-852D01*
G02X25200Y21288I88J-1285D01*
G02X26488Y20000I0J-1288D01*
G01Y19916D01*
X26653Y19752D01*
X30434D01*
G02X31400Y20188I966J-852D01*
G02Y17612I0J-1288D01*
G02X30434Y18048I0J1288D01*
G01X26300D01*
G02X25698Y18298I1J852D01*
G01X25284Y18712D01*
X25200D01*
G02X23973Y19609I0J1288D01*
G01X23928Y19748D01*
G37*
G36*
G01X15192Y30748D02*
G03X14633Y30775I-293J-272D01*
G02X13900Y30496I-734J825D01*
G02Y32704I0J1104D01*
G02X14708Y32352I0J-1103D01*
G03X15267Y32325I293J272D01*
G02X16000Y32604I734J-825D01*
G02X16807Y32253I0J-1103D01*
G03X17393I293J273D01*
G02X18200Y32604I807J-752D01*
G02Y30396I0J-1104D01*
G02X17393Y30747I0J1103D01*
G03X16807I-293J-273D01*
G02X16000Y30396I-807J752D01*
G02X15192Y30748I0J1103D01*
G37*
G36*
G01X-6181Y30654D02*
G03Y31220I-283J283D01*
G02X-6504Y32000I780J780D01*
G02X-4296I1104J0D01*
G02X-4619Y31220I-1103J0D01*
G03Y30654I283J-283D01*
G02X-4296Y29874I-780J-780D01*
G02X-6504I-1104J0D01*
G02X-6181Y30654I1103J0D01*
G37*
G36*
G01X-8471Y33910D02*
G03X-9029I-279J-287D01*
G02X-9800Y33596I-771J790D01*
G02Y35804I0J1104D01*
G02X-9029Y35490I0J-1104D01*
G03X-8471I279J287D01*
G02X-7700Y35804I771J-790D01*
G02Y33596I0J-1104D01*
G02X-8471Y33910I0J1104D01*
G37*
G36*
G01X-22497Y34344D02*
G03X-23003I-253J-310D01*
G02X-23700Y34096I-697J855D01*
G02Y36304I0J1104D01*
G02X-23003Y36056I0J-1103D01*
G03X-22497I253J310D01*
G02X-21800Y36304I697J-855D01*
G02Y34096I0J-1104D01*
G02X-22497Y34344I0J1103D01*
G37*
G36*
G01Y39444D02*
G03X-23003I-253J-310D01*
G02X-23700Y39196I-697J855D01*
G02Y41404I0J1104D01*
G02X-23003Y41156I0J-1103D01*
G03X-22497I253J310D01*
G02X-21800Y41404I697J-855D01*
G02Y39196I0J-1104D01*
G02X-22497Y39444I0J1103D01*
G37*
G36*
G01X27334Y43225D02*
G03X27866I266J298D01*
G02X28600Y43504I734J-826D01*
G02X29371Y43190I0J-1104D01*
G03X29929I279J287D01*
G02X30700Y43504I771J-790D01*
G02X31804Y42400I0J-1104D01*
G02X31490Y41629I-1104J0D01*
G03Y41071I287J-279D01*
G02X31804Y40300I-790J-771D01*
G02X30700Y39196I-1104J0D01*
G02X29892Y39548I0J1103D01*
G03X29333Y39575I-293J-272D01*
G02X28600Y39296I-734J825D01*
G02X27866Y39575I0J1105D01*
G03X27334I-266J-298D01*
G02X26600Y39296I-734J826D01*
G02X25496Y40400I0J1104D01*
G02X25775Y41134I1105J0D01*
G03Y41666I-298J266D01*
G02X25496Y42400I826J734D01*
G02X26600Y43504I1104J0D01*
G02X27334Y43225I0J-1105D01*
G37*
G36*
G01X14234Y43325D02*
G03X14766I266J298D01*
G02X15500Y43604I734J-826D01*
G02X16271Y43290I0J-1104D01*
G03X16829I279J287D01*
G02X17600Y43604I771J-790D01*
G02X18704Y42500I0J-1104D01*
G02X18456Y41803I-1103J0D01*
G03Y41297I310J-253D01*
G02X18704Y40600I-855J-697D01*
G02X17600Y39496I-1104J0D01*
G02X16867Y39775I1J1104D01*
G03X16308Y39748I-266J-299D01*
G02X15500Y39396I-808J751D01*
G02X14766Y39675I0J1105D01*
G03X14234I-266J-298D01*
G02X13500Y39396I-734J826D01*
G02X12396Y40500I0J1104D01*
G02X12675Y41234I1105J0D01*
G03Y41766I-298J266D01*
G02X12396Y42500I826J734D01*
G02X13500Y43604I1104J0D01*
G02X14234Y43325I0J-1105D01*
G37*
G36*
G01X3293Y-92053D02*
G02X2996Y-91300I806J753D01*
G02X5204I1104J0D01*
G02X4687Y-92235I-1104J0D01*
G03X4607Y-92847I212J-339D01*
G02X4904Y-93600I-806J-753D01*
G02X2696I-1104J0D01*
G02X3213Y-92665I1104J0D01*
G03X3293Y-92053I-212J339D01*
G37*
G36*
G01X-39693Y-64452D02*
G02X-40700Y-65104I-1007J452D01*
G02Y-62896I0J1104D01*
G02X-40166Y-63034I0J-1104D01*
G03X-39607Y-62848I194J350D01*
G02X-38600Y-62196I1007J-452D01*
G02Y-64404I0J-1104D01*
G02X-39134Y-64266I0J1104D01*
G03X-39693Y-64452I-194J-350D01*
G37*
G36*
G01X-16371Y-54812D02*
G02X-16452Y-54397I1023J415D01*
G02X-14244I1104J0D01*
G02X-15024Y-55452I-1103J0D01*
G03X-15277Y-55985I118J-382D01*
G02X-15196Y-56400I-1023J-415D01*
G02X-17404I-1104J0D01*
G02X-16624Y-55345I1103J0D01*
G03X-16371Y-54812I-118J382D01*
G37*
G36*
G01X-41165Y-54135D02*
G02X-41304Y-53600I965J536D01*
G02X-39096I1104J0D01*
G02X-39969Y-54679I-1103J0D01*
G03X-40235Y-55265I84J-391D01*
G02X-40096Y-55800I-965J-536D01*
G02X-42304I-1104J0D01*
G02X-41431Y-54721I1103J0D01*
G03X-41165Y-54135I-84J391D01*
G37*
G36*
G01X-47775Y-22933D02*
G02X-48500Y-23204I-725J834D01*
G02Y-20996I0J1104D01*
G02X-47537Y-21561I0J-1103D01*
G03X-46925Y-21667I349J195D01*
G02X-46200Y-21396I725J-834D01*
G02Y-23604I0J-1104D01*
G02X-47163Y-23039I0J1103D01*
G03X-47775Y-22933I-349J-195D01*
G37*
G36*
G01X34735Y-9291D02*
G02X34696Y-9000I1066J291D01*
G02X36904I1104J0D01*
G02X35837Y-10103I-1104J0D01*
G03X35465Y-10609I14J-400D01*
G02X35486Y-10702I-1065J-289D01*
G03X36045Y-10994I393J72D01*
G02X36500Y-10896I455J-1007D01*
G02Y-13104I0J-1104D01*
G02X35414Y-12198I0J1104D01*
G03X34855Y-11906I-393J-72D01*
G02X34400Y-12004I-455J1007D01*
G02X33296Y-10900I0J1104D01*
G02X34363Y-9797I1104J0D01*
G03X34735Y-9291I-14J400D01*
G37*
G36*
G01X-50911Y6256D02*
G02X-51304Y7100I710J844D01*
G02X-49096I1104J0D01*
G02X-49489Y6256I-1103J0D01*
G03Y5644I258J-306D01*
G02X-49096Y4800I-710J-844D01*
G02X-49447Y3993I-1103J0D01*
G03Y3407I273J-293D01*
G02X-49096Y2600I-752J-807D01*
G02X-51304I-1104J0D01*
G02X-50953Y3407I1103J0D01*
G03Y3993I-273J293D01*
G02X-51304Y4800I752J807D01*
G02X-50911Y5644I1103J0D01*
G03Y6256I-258J306D01*
G37*
G36*
G01X-39695Y14756D02*
G02X-39704Y14900I1095J141D01*
G02X-38600Y13796I1104J0D01*
G01X-38607D01*
G03X-39005Y13344I-2J-400D01*
G02X-38996Y13200I-1095J-141D01*
G02X-40100Y14304I-1104J0D01*
G01X-40093D01*
G03X-39695Y14756I2J400D01*
G37*
G36*
G01X-39801Y19776D02*
G02X-38700Y20804I1101J-76D01*
G02X-37651Y20045I0J-1104D01*
G03X-37079Y19819I380J125D01*
G02X-36550Y19954I529J-969D01*
G02Y17746I0J-1104D01*
G02X-37599Y18505I0J1104D01*
G03X-38171Y18731I-380J-125D01*
G02X-38700Y18596I-529J969D01*
G03X-39099Y18224I0J-400D01*
G02X-40200Y17196I-1101J76D01*
G02Y19404I0J1104D01*
G03X-39801Y19776I0J400D01*
G37*
G36*
G01X40228Y19977D02*
G02X40096Y20500I972J523D01*
G02X42304I1104J0D01*
G02X41365Y19408I-1104J0D01*
G03X41072Y18823I59J-396D01*
G02X41204Y18300I-972J-523D01*
G02X41194Y18155I-1104J3D01*
G03X41597Y17703I397J-52D01*
G01X41630D01*
G02X43711Y15622I0J-2081D01*
G02X42776Y13885I-2081J0D01*
G03X42997Y13152I221J-333D01*
G01X43734D01*
G02X44700Y13588I966J-852D01*
G02Y11012I0J-1288D01*
G02X43734Y11448I0J1288D01*
G01X21200D01*
G02X20598Y11698I1J852D01*
G01X18177Y14119D01*
G03X17523Y13986I-283J-283D01*
G02X16500Y13296I-1023J413D01*
G02X16275Y13319I-1J1104D01*
G03X15797Y12973I-81J-392D01*
G02X14700Y11996I-1097J127D01*
G02Y14204I0J1104D01*
G02X14925Y14181I1J-1104D01*
G03X15403Y14527I81J392D01*
G02X16086Y15423I1097J-128D01*
G03X16219Y16077I-150J371D01*
G01X15398Y16898D01*
G02X15148Y17500I602J603D01*
G01Y18934D01*
G02X14712Y19900I852J966D01*
G02X17288I1288J0D01*
G02X16852Y18934I-1288J0D01*
G01Y17853D01*
X21553Y13152D01*
X40263D01*
G03X40484Y13885I0J400D01*
G02X39549Y15622I1146J1737D01*
G02X39854Y16707I2082J0D01*
G03X39669Y17284I-341J209D01*
G02X38996Y18300I430J1016D01*
G02X39935Y19392I1104J0D01*
G03X40228Y19977I-59J396D01*
G37*
G36*
G01X-5917Y23024D02*
G02X-6504Y24000I518J976D01*
G02X-4296I1104J0D01*
G02X-4810Y23067I-1104J0D01*
G03X-4783Y22376I214J-338D01*
G02X-4196Y21400I-518J-976D01*
G02X-6404I-1104J0D01*
G02X-5890Y22333I1104J0D01*
G03X-5917Y23024I-214J338D01*
G37*
G36*
G01X-50911Y26356D02*
G02X-51304Y27200I710J844D01*
G02X-49096I1104J0D01*
G02X-49489Y26356I-1103J0D01*
G03Y25744I258J-306D01*
G02X-49096Y24900I-710J-844D01*
G02X-49447Y24093I-1103J0D01*
G03Y23507I273J-293D01*
G02X-49096Y22700I-752J-807D01*
G02X-51304I-1104J0D01*
G02X-50953Y23507I1103J0D01*
G03Y24093I-273J293D01*
G02X-51304Y24900I752J807D01*
G02X-50911Y25744I1103J0D01*
G03Y26356I-258J306D01*
G37*
G36*
G01X39825Y37343D02*
G02X39549Y38378I1805J1036D01*
G02X41630Y36297I2081J0D01*
G02X41428Y36307I2J2081D01*
G03X40993Y35853I-39J-398D01*
G02X41004Y35700I-1093J-155D01*
G02X40923Y35285I-1104J0D01*
G03X41109Y34780I371J-150D01*
G02X41704Y33800I-510J-980D01*
G02X39496I-1104J0D01*
G02X39577Y34215I1104J0D01*
G03X39391Y34720I-371J150D01*
G02X38796Y35700I510J980D01*
G02X39590Y36760I1105J0D01*
G03X39825Y37343I-112J384D01*
G37*
G36*
G01X-31665Y46819D02*
G02X-32104Y47700I665J881D01*
G02X-29896I1104J0D01*
G02X-30335Y46819I-1104J0D01*
G03Y46181I242J-319D01*
G02X-29896Y45300I-665J-881D01*
G02X-30247Y44493I-1103J0D01*
G03Y43907I273J-293D01*
G02X-30091Y43727I-751J-809D01*
G03X-29453Y43701I329J228D01*
G02X-28600Y44104I853J-701D01*
G02X-27719Y43665I0J-1104D01*
G03X-27081I319J242D01*
G02X-26200Y44104I881J-665D01*
G02Y41896I0J-1104D01*
G02X-27081Y42335I0J1104D01*
G03X-27719I-319J-242D01*
G02X-28600Y41896I-881J665D01*
G02X-29509Y42373I0J1105D01*
G03X-30147Y42399I-329J-228D01*
G02X-31000Y41996I-853J701D01*
G02X-32104Y43100I0J1104D01*
G02X-31753Y43907I1103J0D01*
G03Y44493I-273J293D01*
G02X-32104Y45300I752J807D01*
G02X-31665Y46181I1104J0D01*
G03Y46819I-242J319D01*
G37*
G54D17*
X3528Y-34827D03*
X9827Y-60024D03*
X3528Y-66323D03*
X9827Y-53724D03*
X12976D03*
X9827Y-47425D03*
X12976D03*
X9827Y-44276D03*
X12976D03*
Y-34827D03*
X9827Y-41126D03*
X12976D03*
X9827Y-37976D03*
X12976D03*
X9827Y-34827D03*
X16126Y-37976D03*
Y-34827D03*
X-26376Y-71148D03*
X-26338Y-74260D03*
X-51573Y-33353D03*
X-45200Y-80500D03*
X-15500Y-34900D03*
X3528Y-56874D03*
X-45262Y-58562D03*
X-29538Y-52238D03*
X-32563Y-52363D03*
X-18000Y-60200D03*
X-26363Y-58563D03*
X6677Y-44276D03*
Y-56874D03*
X-35900Y-39300D03*
X-45312Y-52212D03*
X-51573Y-58550D03*
Y-45951D03*
Y-39652D03*
X-19700Y-30200D03*
X-29526Y-33353D03*
X-31100Y-29200D03*
X-48500Y-77500D03*
X-37900Y-75300D03*
X-22500Y-63300D03*
X-51573Y-67998D03*
X-39400Y-39100D03*
X-45274Y-67998D03*
X-42100Y-71200D03*
X-51573Y-74298D03*
X-9600Y-66800D03*
X-15200Y-38900D03*
X-48400Y-36600D03*
X-23200Y-39600D03*
X-26376Y-33353D03*
X-41000Y-46500D03*
X-48424Y-45951D03*
X-29500Y-39600D03*
X-21500Y-34800D03*
X3528Y-44276D03*
X-21400Y-73100D03*
X-26400Y-49100D03*
X3528Y-63173D03*
X-41500Y-60124D03*
X3528Y-60024D03*
X6677Y-41126D03*
Y-34827D03*
X3528Y-47425D03*
Y-53724D03*
X6677Y-47425D03*
Y-53724D03*
X-17400Y-42100D03*
X6677Y-60024D03*
X3528Y-41126D03*
Y-37976D03*
X6677D03*
X-51573Y-71148D03*
X-35300Y-56100D03*
X-36000Y-15700D03*
X-40200Y-50954D03*
X281Y-34730D03*
X400Y-69500D03*
X-4900Y-67000D03*
X-36767Y-72868D03*
X-19900Y-56400D03*
X-45300Y-49200D03*
X-38638Y-70997D03*
X-16800Y-63300D03*
X-35200Y-42700D03*
X-14350Y-58150D03*
X-22800Y-16100D03*
X10900Y32200D03*
X50772Y-28528D03*
X42100Y25600D03*
Y28400D03*
X-30700Y20425D03*
X-52700Y19400D03*
X-5500Y26800D03*
X-34300Y-4800D03*
X-30724Y17276D03*
X-27000Y-15700D03*
X6700Y-66300D03*
X-41600Y-12100D03*
X4750Y45650D03*
X-31900Y3500D03*
X20600Y36500D03*
X-36400Y36000D03*
X-52100Y35100D03*
X-28100Y-5200D03*
X40200Y-13200D03*
X100Y-19600D03*
X4100D03*
X-3900D03*
X31200Y22600D03*
X31100Y33200D03*
X-5099Y15701D03*
X6600Y-31800D03*
X13000Y-69500D03*
X16900Y36500D03*
X13100Y-66400D03*
X54600Y12600D03*
X53300Y-8600D03*
X6800Y-91800D03*
X31100Y-94300D03*
X37700Y-93400D03*
X33465Y-93200D03*
X-40600Y35600D03*
X-54150Y-79850D03*
X50500Y18300D03*
X21300Y52100D03*
X-55500Y-17300D03*
%LPD*%
G75*
G54D10*
X-55917Y-91286D03*
X-52917Y-85286D03*
Y-7286D03*
X-55917D03*
X-52917Y-4286D03*
X-55917D03*
Y4714D03*
X-52917Y13714D03*
Y10714D03*
X-55917Y7714D03*
X-52917Y37714D03*
Y43714D03*
X-49917Y-88286D03*
X-47600Y-88300D03*
X-46100Y-90400D03*
X-51573Y-80597D03*
X-49917Y-85286D03*
X-51573Y-77447D03*
X-48424Y-67998D03*
Y-71148D03*
X-51573Y-61699D03*
X-48424D03*
X-51573Y-64849D03*
X-49917Y-61286D03*
Y-64286D03*
X-48387Y-52287D03*
X-51573Y-42802D03*
Y-36502D03*
Y-30203D03*
X-49917Y-28286D03*
Y-25286D03*
Y-1286D03*
Y-4286D03*
X-46917Y13714D03*
Y10714D03*
Y40714D03*
X-49917D03*
X-46917Y34714D03*
X-49917D03*
X-46917Y46714D03*
Y43714D03*
X-49917D03*
X-46917Y52714D03*
Y49714D03*
X-44400Y-88500D03*
X-45300Y-85000D03*
X-40917Y-1286D03*
Y40714D03*
X-43917D03*
Y34714D03*
Y46714D03*
X-40917Y43714D03*
X-43917D03*
Y52714D03*
Y49714D03*
X-37100Y-90500D03*
X-34300Y-87500D03*
X-32995Y-77905D03*
X-33800Y-10400D03*
X-34917Y40714D03*
Y37714D03*
X-27900Y-92500D03*
Y-88100D03*
Y-90300D03*
X-30900Y-91400D03*
X-26400Y-52300D03*
X-31917Y-16286D03*
X-27800Y-10600D03*
X-31917Y-10286D03*
X-31151Y12551D03*
X-28917Y13714D03*
Y10714D03*
X-25887Y13686D03*
Y19686D03*
Y16686D03*
X-31151Y26724D03*
X-28917Y25714D03*
X-25887Y25686D03*
Y22686D03*
X-28917Y31714D03*
Y28714D03*
X-25887Y28686D03*
X-27449Y35151D03*
X-26200Y40700D03*
X-28917Y40714D03*
X-31917D03*
X-25917Y34714D03*
X-28917D03*
Y53214D03*
X-31917D03*
X-21900Y-93900D03*
X-24900Y-89100D03*
X-21900Y-89500D03*
X-21800Y-75872D03*
X-23227Y-71148D03*
X-20900Y-60200D03*
X-22300Y-44300D03*
X-20250Y-38750D03*
X-21400Y-31700D03*
X-22917Y-7286D03*
Y-10286D03*
X-19917Y1714D03*
Y10714D03*
X-19887Y19686D03*
X-22887D03*
X-19887Y16686D03*
X-22887D03*
X-19887Y25686D03*
X-22887D03*
X-19887Y22686D03*
X-22887D03*
X-19887Y28686D03*
X-22887D03*
X-22800Y49600D03*
X-18300Y-94100D03*
X-14500D03*
X-19000Y-66424D03*
X-13917Y34714D03*
X-16917D03*
X-13917Y53014D03*
X-16917D03*
X-8500Y-94200D03*
X-11400Y-12900D03*
X-9100D03*
X-10300Y-11200D03*
X-8000Y-6400D03*
Y-1700D03*
X-9700Y-4900D03*
X-10917Y40714D03*
Y53014D03*
X-7917Y49714D03*
X-5500Y-94700D03*
X-2200Y-93500D03*
X-5500Y-85800D03*
X-4000Y-84000D03*
X-2100Y-8500D03*
X700Y13100D03*
X-1917Y40714D03*
Y46714D03*
X-4917D03*
X6677Y-63173D03*
X7083Y1714D03*
Y13714D03*
X1083Y46714D03*
X9900Y-90300D03*
X12976Y-63173D03*
X9900Y-50500D03*
X8100Y-18900D03*
X14200Y-4400D03*
X10083Y-1286D03*
X11200Y-3700D03*
X13083Y19714D03*
X13200Y19600D03*
X11000Y25100D03*
X10083Y22714D03*
X11000Y27700D03*
X10083Y46714D03*
Y52714D03*
X15500Y-91000D03*
X19276Y-60024D03*
Y-53724D03*
X16126D03*
X19276Y-47425D03*
X16126D03*
X19276Y-44276D03*
Y-41126D03*
X16126D03*
Y-44276D03*
X19276Y-37976D03*
X19400Y-12900D03*
X16000Y-16400D03*
Y19900D03*
X24400Y-94800D03*
X21600Y-12900D03*
X23800D03*
Y-14900D03*
X21200Y20600D03*
X25200Y20000D03*
X21500Y33500D03*
X22083Y46714D03*
Y43714D03*
Y49714D03*
X30500Y-90700D03*
X28400Y-18300D03*
X32000Y-18400D03*
X31400Y18900D03*
X34083Y43714D03*
X37083Y-91286D03*
X35600Y-21800D03*
Y-18500D03*
X35800Y-4500D03*
X40083Y1714D03*
X40800Y7000D03*
X39543Y46961D03*
X46700Y-88400D03*
X44497Y-72597D03*
X44472Y-28528D03*
X41323D03*
X44472Y-31677D03*
X41323D03*
X44500Y-22300D03*
X42400Y-21600D03*
X44472Y-25378D03*
X41323D03*
X44700Y12300D03*
X46083Y25714D03*
Y28714D03*
Y37714D03*
Y46714D03*
Y43714D03*
X52083Y-91286D03*
X47600Y-72600D03*
X51400Y-64300D03*
X47622Y-28528D03*
Y-31700D03*
X49200Y-17000D03*
X51000Y-15500D03*
X52500Y-17100D03*
X49083Y-7286D03*
Y-1286D03*
X52083Y-4286D03*
X49083D03*
Y4714D03*
X49400Y25700D03*
X49083Y25714D03*
Y31714D03*
Y28714D03*
Y37714D03*
Y43714D03*
X52083Y52714D03*
X49083D03*
X52083Y49714D03*
X55083Y-91286D03*
Y-85286D03*
X56000Y46961D03*
X57500Y52700D03*
X55083Y52714D03*
G54D11*
X0Y55354D03*
G54D12*
G01X-8000Y-6400D02*
X-6700Y-5100D01*
X9800D01*
X11200Y-3700D01*
G01X16000Y-16400D02*
X10600D01*
X8100Y-18900D01*
G01X10200Y-1400D02*
X10100D01*
G01X44700Y12300D02*
X21200D01*
X16000Y17500D01*
Y19900D01*
G01X25200Y20000D02*
X26300Y18900D01*
X31400D01*
G01X21200Y20600D02*
X24600D01*
X25200Y20000D01*
G54D13*
G01X-21900Y-89100D02*
Y-89500D01*
G01X-8000Y-1700D02*
X-6900Y-600D01*
X8300D01*
X9300Y400D01*
X13200D01*
X14200Y-600D01*
Y-4400D01*
G01X47622Y-31700D02*
Y-31677D01*
G54D14*
G01X21200Y-54186D02*
X19986Y-55400D01*
X18000D01*
X14600Y-58800D01*
Y-61550D01*
X12976Y-63173D01*
G54D15*
G01X35800Y-4500D02*
X35600Y-4700D01*
Y-5500D01*
X22700Y-18400D01*
Y-22000D01*
X21200Y-23500D01*
Y-54186D01*
G54D16*
G01X35600Y-18500D02*
X37100Y-20000D01*
Y-22400D01*
X36200Y-23300D01*
X34300D01*
X23600Y-34000D01*
Y-55200D01*
X22700Y-56100D01*
Y-71200D01*
X17800Y-76100D01*
X-5900D01*
X-7800Y-78000D01*
X-17500D01*
X-22200Y-82700D01*
X-33900D01*
X-38300Y-87100D01*
X-42100D01*
X-43500Y-88500D01*
X-44400D01*
G01X35600Y-21800D02*
X35500Y-21700D01*
X34900D01*
X22900Y-33700D01*
Y-54900D01*
X22000Y-55800D01*
Y-70900D01*
X17500Y-75400D01*
X-6200D01*
X-8100Y-77300D01*
X-17800D01*
X-22500Y-82000D01*
X-34200D01*
X-38600Y-86400D01*
X-42400D01*
X-43000Y-87000D01*
X-45000D01*
X-45900Y-87900D01*
Y-90200D01*
X-46100Y-90400D01*
G01X32000Y-18400D02*
Y-18700D01*
X33600Y-20300D01*
Y-22000D01*
X22200Y-33400D01*
Y-54600D01*
X21300Y-55500D01*
Y-70600D01*
X17200Y-74700D01*
X-6500D01*
X-8400Y-76600D01*
X-18100D01*
X-22700Y-81200D01*
X-34100D01*
X-34200Y-81300D01*
X-34500D01*
X-38900Y-85700D01*
X-42700D01*
X-43400Y-85000D01*
X-45300D01*
G01X42400Y-21600D02*
X42300Y-21700D01*
X40900D01*
X38900Y-23700D01*
Y-24400D01*
X31600Y-31700D01*
X30000D01*
X26900Y-34800D01*
Y-54300D01*
X26100Y-55100D01*
X24700D01*
X23600Y-56200D01*
Y-72500D01*
X19300Y-76800D01*
X-5600D01*
X-7500Y-78700D01*
X-17200D01*
X-21900Y-83400D01*
X-33600D01*
X-37100Y-86900D01*
Y-90500D01*
G01X-34300Y-87500D02*
Y-86200D01*
X-32200Y-84100D01*
X-21600D01*
X-16900Y-79400D01*
X-7200D01*
X-5300Y-77500D01*
X21699D01*
X27100Y-72099D01*
Y-56300D01*
X27900Y-55500D01*
X29200D01*
X30400Y-54300D01*
Y-33950D01*
X31950Y-32400D01*
X32599D01*
X39700Y-25299D01*
Y-24600D01*
X40700Y-23600D01*
X42694D01*
X44472Y-25378D01*
G01X-30900Y-91400D02*
X-32700D01*
X-33700Y-90400D01*
Y-89000D01*
X-32800Y-88100D01*
Y-86400D01*
X-31200Y-84800D01*
X-21300D01*
X-20100Y-83600D01*
X-11200D01*
X-7700Y-80100D01*
X-6900D01*
X-5000Y-78200D01*
X26300D01*
X30200Y-74300D01*
Y-58700D01*
X33600Y-55300D01*
Y-32601D01*
X40823Y-25378D01*
X41323D01*
G01X44500Y-22300D02*
X46200Y-24000D01*
Y-26000D01*
X45300Y-26900D01*
X40849D01*
X36400Y-31349D01*
Y-60600D01*
X33400Y-63600D01*
Y-72100D01*
X26600Y-78900D01*
X-4700D01*
X-6600Y-80800D01*
X-7400D01*
X-10900Y-84300D01*
X-19800D01*
X-21000Y-85500D01*
X-28500D01*
X-29386Y-86386D01*
Y-91014D01*
X-27900Y-92500D01*
G01X41323Y-28528D02*
X40972D01*
X37900Y-31600D01*
Y-45000D01*
X39500Y-46600D01*
Y-50000D01*
X37900Y-51600D01*
Y-68600D01*
X26900Y-79600D01*
X-4400D01*
X-6300Y-81500D01*
X-7100D01*
X-10600Y-85000D01*
X-19500D01*
X-20700Y-86200D01*
X-26000D01*
X-27900Y-88100D01*
G01Y-90300D02*
X-26400Y-88800D01*
Y-88100D01*
X-25200Y-86900D01*
X-20400D01*
X-19200Y-85700D01*
X-10300D01*
X-6800Y-82200D01*
X-6000D01*
X-4100Y-80300D01*
X27200D01*
X38600Y-68900D01*
Y-52400D01*
X40200Y-50800D01*
Y-46300D01*
X38600Y-44700D01*
Y-34400D01*
X41323Y-31677D01*
G01X44472D02*
Y-32728D01*
X43000Y-34200D01*
Y-56100D01*
X40000Y-59100D01*
Y-69500D01*
X27800Y-81700D01*
X2200D01*
X-2600Y-86500D01*
X-4100D01*
X-4900Y-87300D01*
X-15600D01*
X-15700Y-87400D01*
X-18900D01*
X-19800Y-88300D01*
Y-91800D01*
X-21900Y-93900D01*
G01X-24900Y-89100D02*
X-23400Y-87600D01*
X-20100D01*
X-18900Y-86400D01*
X-10000D01*
X-6500Y-82900D01*
X-5700D01*
X-3800Y-81000D01*
X27500D01*
X39300Y-69200D01*
Y-53100D01*
X40900Y-51500D01*
Y-46000D01*
X39300Y-44400D01*
Y-35000D01*
X40800Y-33500D01*
X42200D01*
X42900Y-32800D01*
Y-30100D01*
X44472Y-28528D01*
G01X47622D02*
X47272D01*
X46100Y-29700D01*
Y-60300D01*
X44600Y-61800D01*
X43700D01*
X42700Y-62800D01*
Y-64100D01*
X40700Y-66100D01*
Y-69800D01*
X28100Y-82400D01*
X2500D01*
X-2300Y-87200D01*
X-3700D01*
X-4500Y-88000D01*
X-15300D01*
X-16500Y-89200D01*
Y-92300D01*
X-18300Y-94100D01*
G01X47622Y-31700D02*
X48900Y-32978D01*
Y-61100D01*
X45400Y-64600D01*
X43201D01*
X41400Y-66401D01*
Y-70100D01*
X28400Y-83100D01*
X2800D01*
X-2000Y-87900D01*
X-3400D01*
X-6400Y-90900D01*
X-12200D01*
X-13000Y-91700D01*
Y-93300D01*
X-13800Y-94100D01*
X-14500D01*
G01X49200Y-17000D02*
Y-17900D01*
X53600Y-22300D01*
Y-65100D01*
X51000Y-67700D01*
X45300D01*
X29200Y-83800D01*
X3100D01*
X-1700Y-88600D01*
X-3100D01*
X-6200Y-91700D01*
Y-92700D01*
X-7700Y-94200D01*
X-8500D01*
G01X-5500Y-94700D02*
Y-92000D01*
X-2800Y-89300D01*
X-1400D01*
X3300Y-84600D01*
X30200D01*
X42300Y-72500D01*
Y-71700D01*
X45400Y-68600D01*
X51300D01*
X54400Y-65500D01*
Y-21900D01*
X51000Y-18500D01*
Y-15500D01*
G01X-2200Y-93500D02*
Y-93300D01*
X-700Y-91800D01*
Y-89600D01*
X3500Y-85400D01*
X33200D01*
X42200Y-76400D01*
Y-74900D01*
X43000Y-74100D01*
Y-72000D01*
X45700Y-69300D01*
X51800D01*
X55200Y-65900D01*
Y-21500D01*
X53100Y-19400D01*
Y-17700D01*
X52500Y-17100D01*
G01X44497Y-72597D02*
X45994Y-71100D01*
X48200D01*
X48950Y-71850D01*
X50389D01*
X56050Y-66189D01*
Y2589D01*
X49489Y9150D01*
X5689D01*
X2650Y12189D01*
Y25111D01*
X4289Y26750D01*
X10050D01*
X11000Y27700D01*
G01Y25100D02*
X10100Y26000D01*
X9404D01*
G03X8979Y25575I0J-425D01*
G01Y25125D01*
G02X8129I-425J0D01*
G01Y25575D01*
G03X7279I-425J0D01*
G01Y25125D01*
G02X6429I-425J0D01*
G01Y25575D01*
G03X6004Y26000I-425J0D01*
G01X4600D01*
X3400Y24800D01*
Y12500D01*
X6000Y9900D01*
X49800D01*
X56800Y2900D01*
Y-66500D01*
X50700Y-72600D01*
X47600D01*
G01X51400Y-64300D02*
X50000Y-62900D01*
Y-37600D01*
X52900Y-34700D01*
Y-25000D01*
X43900Y-16000D01*
X30700D01*
X28400Y-18300D01*
M02*
