G04 ================== begin FILE IDENTIFICATION RECORD ==================*
G04 Layout Name:  F:/PCB_PROJECT/a33_pcie/allegro/A33_M2.brd*
G04 Film Name:    PASET_BOTTON*
G04 File Format:  Gerber RS274X*
G04 File Origin:  Cadence Allegro 17.2-S058*
G04 Origin Date:  Sat Nov 07 21:40:13 2020*
G04 *
G04 Layer:  PIN/PASTEMASK_BOTTOM*
G04 Layer:  PACKAGE GEOMETRY/PASTEMASK_BOTTOM*
G04 Layer:  BOARD GEOMETRY/OUTLINE*
G04 *
G04 Offset:    (0.00 0.00)*
G04 Mirror:    No*
G04 Mode:      Positive*
G04 Rotation:  0*
G04 FullContactRelief:  No*
G04 UndefLineWidth:     6.00*
G04 ================== end FILE IDENTIFICATION RECORD ====================*
%FSLAX25Y25*MOIN*%
%IR0*IPPOS*OFA0.00000B0.00000*MIA0B0*SFA1.00000B1.00000*%
%ADD17R,.06X.06*%
%ADD10R,.025X.025*%
%ADD20R,.02362X.00984*%
%ADD24R,.03937X.03937*%
%ADD21R,.01968X.00787*%
%ADD18R,.01181X.04331*%
%ADD16R,.04331X.01181*%
%ADD19R,.12402X.12402*%
%ADD12R,.05512X.04724*%
%ADD22R,.01181X.02756*%
%ADD15C,.15748*%
%ADD11R,.08661X.04724*%
%ADD13R,.06299X.02756*%
%ADD14R,.02756X.06299*%
%ADD23R,.06299X.03937*%
%ADD25C,.006*%
G75*
%LPD*%
G75*
G54D10*
X-54500Y-76100D03*
Y-67100D03*
Y-71100D03*
Y-62100D03*
Y-53100D03*
Y-58100D03*
Y-49100D03*
Y-40100D03*
Y-45100D03*
Y-36100D03*
Y-31100D03*
X-49500Y-49100D03*
X-46200Y-39700D03*
Y-34700D03*
Y-30700D03*
Y-25700D03*
X-50000Y-19100D03*
X-42200Y-39700D03*
Y-34700D03*
Y-25700D03*
Y-30700D03*
X-45000Y-19100D03*
X-41000Y-19200D03*
X-36000D03*
X-32000D03*
X-27000D03*
X-23000D03*
X-18000D03*
X-3900Y-16100D03*
X100D03*
X-3900Y-11100D03*
X100D03*
X5000Y-74000D03*
Y-69000D03*
X6100Y-50500D03*
X4100Y-16100D03*
Y-11100D03*
X3000Y9100D03*
X5000Y14300D03*
Y18300D03*
X10500Y-73000D03*
X10000Y-68000D03*
Y-63000D03*
X10500Y-57000D03*
X11100Y-50500D03*
X14500Y-25500D03*
Y-30500D03*
X10500Y-25500D03*
Y-30500D03*
X12100Y-16100D03*
X8100D03*
X12100Y-11100D03*
X8100D03*
X8000Y9100D03*
X10000Y14300D03*
Y18300D03*
X15500Y-73000D03*
X16000Y-68000D03*
Y-63000D03*
X15500Y-57000D03*
X20100Y-50500D03*
X15100D03*
X18500Y-25500D03*
Y-30500D03*
X17500Y23000D03*
Y28000D03*
X22500Y-69000D03*
Y-64000D03*
Y-60000D03*
Y-55000D03*
X24900Y-50500D03*
X22500Y-41700D03*
Y-36700D03*
X26500Y-25500D03*
Y-30500D03*
X22500Y-25500D03*
Y-30500D03*
X26600Y-15700D03*
Y-11700D03*
X24300Y35700D03*
X29900Y-50500D03*
X33900D03*
X30500Y-25500D03*
Y-30500D03*
X34500Y-25500D03*
Y-30500D03*
X31600Y-15700D03*
Y-11700D03*
X29300Y35700D03*
X37900Y-67000D03*
Y-62000D03*
X38900Y-50500D03*
X38600Y-41500D03*
Y-36500D03*
X38500Y-25500D03*
Y-30500D03*
X41900Y-67000D03*
X47200D03*
X41900Y-62000D03*
X47200D03*
X44100Y-45500D03*
Y-50500D03*
X45500Y15600D03*
X44200Y22000D03*
Y33900D03*
X54000Y-59500D03*
Y-54500D03*
X50000Y-45500D03*
Y-50500D03*
X54000Y-45500D03*
Y-50500D03*
X50500Y15600D03*
X49200Y22000D03*
Y33900D03*
G54D11*
X-53825Y-11672D03*
Y49352D03*
G54D20*
X22647Y23947D03*
Y29853D03*
X28553Y23947D03*
Y29853D03*
G54D12*
X-16030Y-11672D03*
G54D21*
X22647Y25916D03*
Y27884D03*
X28553Y25916D03*
Y27884D03*
G54D13*
X-14061Y-6947D03*
Y-2616D03*
Y1714D03*
Y6045D03*
Y10376D03*
Y14706D03*
Y19037D03*
Y23368D03*
Y27698D03*
G54D22*
X25600Y22963D03*
Y30837D03*
G54D23*
X44732Y-15661D03*
Y-9756D03*
Y1661D03*
G54D14*
X-16030Y45809D03*
G54D15*
X0Y55354D03*
G54D24*
X48866Y-22354D03*
Y8354D03*
X57134Y-22354D03*
Y8354D03*
G54D25*
G01X41043Y-94252D02*
X57087D01*
G03X59055Y-92283I0J1968D01*
G01Y53386D01*
G03X57087Y55354I-1968J0D01*
G01X-57087D01*
G03X-59055Y53386I0J-1968D01*
G01Y-92283D01*
G03X-57087Y-94252I1968J-1D01*
G01X-41043D01*
G02X-39075Y-96220I0J-1968D01*
G01Y-110000D01*
X19783D01*
Y-98583D01*
G02X22146Y-96220I2363J0D01*
G02X24508Y-98583I0J-2362D01*
G01Y-110000D01*
X39075D01*
Y-96220D01*
G02X41043Y-94252I1968J0D01*
G01X39075Y-96220D02*
Y-110000D01*
X24508D01*
Y-98583D01*
G03X22146Y-96220I-2362J1D01*
G03X19783Y-98583I0J-2363D01*
G01Y-110000D01*
X-39075D01*
Y-96220D01*
G03X-41043Y-94252I-1968J0D01*
G01X-57087D01*
G02X-59055Y-92283I0J1968D01*
G01Y53386D01*
G02X-57087Y55354I1968J0D01*
G01X57087D01*
G02X59055Y53386I0J-1968D01*
G01Y-92283D01*
G02X57087Y-94252I-1968J-1D01*
G01X41043D01*
G03X39075Y-96220I0J-1968D01*
G54D16*
X14458Y563D03*
Y-1406D03*
Y6468D03*
Y4500D03*
Y2532D03*
Y10406D03*
Y8437D03*
X34142Y-1406D03*
Y563D03*
Y2532D03*
Y4500D03*
Y6468D03*
Y8437D03*
Y10406D03*
G54D17*
X15250Y46500D03*
X28750D03*
G54D18*
X18394Y-5342D03*
X20363D03*
Y14342D03*
X18394D03*
X22332Y-5342D03*
X24300D03*
X26268D03*
Y14342D03*
X24300D03*
X22332D03*
X28237Y-5342D03*
X30206D03*
Y14342D03*
X28237D03*
G54D19*
X24300Y4500D03*
M02*
