G04 ================== begin FILE IDENTIFICATION RECORD ==================*
G04 Layout Name:  F:/PCB_PROJECT/a33_pcie/allegro/A33_M2.brd*
G04 Film Name:    SILK_TOP*
G04 File Format:  Gerber RS274X*
G04 File Origin:  Cadence Allegro 17.2-S058*
G04 Origin Date:  Sat Nov 07 21:40:12 2020*
G04 *
G04 Layer:  BOARD GEOMETRY/SILKSCREEN_TOP*
G04 Layer:  PACKAGE GEOMETRY/SILKSCREEN_TOP*
G04 Layer:  BOARD GEOMETRY/OUTLINE*
G04 *
G04 Offset:    (0.00 0.00)*
G04 Mirror:    No*
G04 Mode:      Positive*
G04 Rotation:  0*
G04 FullContactRelief:  No*
G04 UndefLineWidth:     6.00*
G04 ================== end FILE IDENTIFICATION RECORD ====================*
%FSLAX25Y25*MOIN*%
%IR0*IPPOS*OFA0.00000B0.00000*MIA0B0*SFA1.00000B1.00000*%
%ADD10C,.006*%
%ADD11C,.00578*%
G75*
%LPD*%
G75*
G36*
G01X-17400Y-82400D02*
G03I-1000J0D01*
G37*
G54D10*
G01X41043Y-94252D02*
X57087D01*
G03X59055Y-92283I0J1968D01*
G01Y53386D01*
G03X57087Y55354I-1968J0D01*
G01X-57087D01*
G03X-59055Y53386I0J-1968D01*
G01Y-92283D01*
G03X-57087Y-94252I1968J-1D01*
G01X-41043D01*
G02X-39075Y-96220I0J-1968D01*
G01Y-110000D01*
X19783D01*
Y-98583D01*
G02X22146Y-96220I2363J0D01*
G02X24508Y-98583I0J-2362D01*
G01Y-110000D01*
X39075D01*
Y-96220D01*
G02X41043Y-94252I1968J0D01*
G01X39075Y-96220D02*
Y-110000D01*
X24508D01*
Y-98583D01*
G03X22146Y-96220I-2362J1D01*
G03X19783Y-98583I0J-2363D01*
G01Y-110000D01*
X-39075D01*
Y-96220D01*
G03X-41043Y-94252I-1968J0D01*
G01X-57087D01*
G02X-59055Y-92283I0J1968D01*
G01Y53386D01*
G02X-57087Y55354I1968J0D01*
G01X57087D01*
G02X59055Y53386I0J-1968D01*
G01Y-92283D01*
G02X57087Y-94252I-1968J-1D01*
G01X41043D01*
G03X39075Y-96220I0J-1968D01*
G01X-7500Y-73867D02*
X-10000Y-73200D01*
X-7500Y-72533D01*
G01X-8375Y-72773D02*
Y-73627D01*
G01X-8000Y-71587D02*
X-7708Y-71427D01*
X-7542Y-71213D01*
X-7500Y-70973D01*
X-7542Y-70760D01*
X-7750Y-70547D01*
X-8000Y-70413D01*
X-8250Y-70387D01*
X-8542Y-70440D01*
X-8750Y-70627D01*
X-8833Y-70813D01*
Y-71053D01*
G01Y-70813D02*
X-8958Y-70653D01*
X-9167Y-70520D01*
X-9417Y-70467D01*
X-9667Y-70520D01*
X-9875Y-70653D01*
X-10000Y-70893D01*
X-9958Y-71133D01*
X-9792Y-71373D01*
G01X-8000Y-69387D02*
X-7708Y-69227D01*
X-7542Y-69013D01*
X-7500Y-68773D01*
X-7542Y-68560D01*
X-7750Y-68347D01*
X-8000Y-68213D01*
X-8250Y-68187D01*
X-8542Y-68240D01*
X-8750Y-68427D01*
X-8833Y-68613D01*
Y-68853D01*
G01Y-68613D02*
X-8958Y-68453D01*
X-9167Y-68320D01*
X-9417Y-68267D01*
X-9667Y-68320D01*
X-9875Y-68453D01*
X-10000Y-68693D01*
X-9958Y-68933D01*
X-9792Y-69173D01*
G01X-6667Y-67400D02*
Y-65800D01*
G01X-7500Y-65093D02*
X-10000D01*
X-7917Y-64400D01*
X-10000Y-63707D01*
X-7500D01*
G01X-7417Y-62200D02*
X-7458Y-62253D01*
X-7542D01*
X-7583Y-62200D01*
X-7542Y-62147D01*
X-7458D01*
X-7417Y-62200D01*
G01X-9583Y-60507D02*
X-9833Y-60347D01*
X-9958Y-60160D01*
X-10000Y-59947D01*
X-9917Y-59680D01*
X-9708Y-59493D01*
X-9458Y-59440D01*
X-9208Y-59467D01*
X-9000Y-59573D01*
X-8583Y-60107D01*
X-8292Y-60347D01*
X-7875Y-60507D01*
X-7500Y-60560D01*
Y-59440D01*
G01X-9167Y-56080D02*
X-7500Y-55600D01*
X-9167Y-55120D01*
G01X-7500Y-53400D02*
X-10000D01*
X-9500Y-53720D01*
G01X-7500D02*
Y-53080D01*
G01X-7417Y-51200D02*
X-7458Y-51253D01*
X-7542D01*
X-7583Y-51200D01*
X-7542Y-51147D01*
X-7458D01*
X-7417Y-51200D01*
G01X-10000Y-49000D02*
X-9917Y-49213D01*
X-9708Y-49373D01*
X-9458Y-49480D01*
X-9125Y-49560D01*
X-8750Y-49587D01*
X-8375Y-49560D01*
X-8042Y-49480D01*
X-7792Y-49373D01*
X-7583Y-49213D01*
X-7500Y-49000D01*
X-7583Y-48787D01*
X-7792Y-48627D01*
X-8042Y-48520D01*
X-8375Y-48440D01*
X-8750Y-48413D01*
X-9125Y-48440D01*
X-9458Y-48520D01*
X-9708Y-48627D01*
X-9917Y-48787D01*
X-10000Y-49000D01*
G01X-9583Y-45107D02*
X-9833Y-44947D01*
X-9958Y-44760D01*
X-10000Y-44547D01*
X-9917Y-44280D01*
X-9708Y-44093D01*
X-9458Y-44040D01*
X-9208Y-44067D01*
X-9000Y-44173D01*
X-8583Y-44707D01*
X-8292Y-44947D01*
X-7875Y-45107D01*
X-7500Y-45160D01*
Y-44040D01*
G01X-10000Y-42400D02*
X-9917Y-42613D01*
X-9708Y-42773D01*
X-9458Y-42880D01*
X-9125Y-42960D01*
X-8750Y-42987D01*
X-8375Y-42960D01*
X-8042Y-42880D01*
X-7792Y-42773D01*
X-7583Y-42613D01*
X-7500Y-42400D01*
X-7583Y-42187D01*
X-7792Y-42027D01*
X-8042Y-41920D01*
X-8375Y-41840D01*
X-8750Y-41813D01*
X-9125Y-41840D01*
X-9458Y-41920D01*
X-9708Y-42027D01*
X-9917Y-42187D01*
X-10000Y-42400D01*
G01X-9583Y-40707D02*
X-9833Y-40547D01*
X-9958Y-40360D01*
X-10000Y-40147D01*
X-9917Y-39880D01*
X-9708Y-39693D01*
X-9458Y-39640D01*
X-9208Y-39667D01*
X-9000Y-39773D01*
X-8583Y-40307D01*
X-8292Y-40547D01*
X-7875Y-40707D01*
X-7500Y-40760D01*
Y-39640D01*
G01X-10000Y-38000D02*
X-9917Y-38213D01*
X-9708Y-38373D01*
X-9458Y-38480D01*
X-9125Y-38560D01*
X-8750Y-38587D01*
X-8375Y-38560D01*
X-8042Y-38480D01*
X-7792Y-38373D01*
X-7583Y-38213D01*
X-7500Y-38000D01*
X-7583Y-37787D01*
X-7792Y-37627D01*
X-8042Y-37520D01*
X-8375Y-37440D01*
X-8750Y-37413D01*
X-9125Y-37440D01*
X-9458Y-37520D01*
X-9708Y-37627D01*
X-9917Y-37787D01*
X-10000Y-38000D01*
G01X-7417Y-35800D02*
X-7458Y-35853D01*
X-7542D01*
X-7583Y-35800D01*
X-7542Y-35747D01*
X-7458D01*
X-7417Y-35800D01*
G01X-7500Y-33600D02*
X-10000D01*
X-9500Y-33920D01*
G01X-7500D02*
Y-33280D01*
G01Y-31400D02*
X-10000D01*
X-9500Y-31720D01*
G01X-7500D02*
Y-31080D01*
G01X-7417Y-29200D02*
X-7458Y-29253D01*
X-7542D01*
X-7583Y-29200D01*
X-7542Y-29147D01*
X-7458D01*
X-7417Y-29200D01*
G01X-7500Y-26680D02*
X-10000D01*
X-8208Y-27667D01*
Y-26333D01*
G01X-53300Y17900D02*
Y8900D01*
X-57300D01*
Y17900D01*
X-53300D01*
G01Y26900D02*
Y17900D01*
X-57300D01*
Y26900D01*
X-53300D01*
G01X-53400Y42100D02*
Y33100D01*
X-57400D01*
Y42100D01*
X-53400D01*
G01X-38926Y43294D02*
Y55106D01*
X-54674D01*
Y43294D01*
X-38926D01*
G01X-22636Y-81581D02*
X-52164D01*
Y-29219D01*
X-22636D01*
Y-81581D01*
G01X-52100Y-15100D02*
X-46100D01*
G01X-52100Y-12100D02*
Y-17100D01*
X-46100D01*
Y-12100D01*
G01X-52100Y-10100D02*
Y-5100D01*
X-46100D01*
Y-10100D01*
G01X-38100Y900D02*
X-52100D01*
Y8900D01*
X-38100D01*
Y900D01*
G01X-47100Y14900D02*
X-52100D01*
Y8900D01*
X-47100D01*
G01Y20900D02*
X-52100D01*
Y14900D01*
X-47100D01*
G01X-38100Y20900D02*
X-52100D01*
Y28900D01*
X-38100D01*
Y20900D01*
G01X-47100Y28900D02*
X-52100D01*
Y34900D01*
X-47100D01*
G01Y40900D02*
X-52100D01*
Y34900D01*
X-47100D01*
G01X-43300Y49200D02*
G03I-3500J0D01*
G01X-46100Y-14100D02*
Y-5100D01*
X-42100D01*
Y-14100D01*
X-46100D01*
G01X-40100Y-6100D02*
Y-11100D01*
X-34100D01*
Y-6100D01*
G01X-40100Y-4100D02*
Y900D01*
X-34100D01*
Y-4100D01*
G01X-45100Y14900D02*
X-40100D01*
Y8900D01*
X-45100D01*
G01Y20900D02*
X-40100D01*
Y14900D01*
X-45100D01*
G01Y28900D02*
X-40100D01*
Y34900D01*
X-45100D01*
G01Y40900D02*
X-40100D01*
Y34900D01*
X-45100D01*
G01X-34100Y-6100D02*
Y-11100D01*
X-28100D01*
Y-6100D01*
G01X-34100Y-4100D02*
Y900D01*
X-28100D01*
Y-4100D01*
G01X-33748Y6252D02*
X-2252D01*
Y37748D01*
X-33748D01*
Y6252D01*
G01X-34586Y40000D02*
G03I-1414J0D01*
G01X-31500Y45500D02*
Y42500D01*
X-35500D01*
Y45500D01*
G01X-31500Y48500D02*
Y51500D01*
X-35500D01*
Y48500D01*
G01X-28100Y-6100D02*
Y-11100D01*
X-22100D01*
Y-6100D01*
G01X-28100Y-4100D02*
Y900D01*
X-22100D01*
Y-4100D01*
G01X-23500Y50500D02*
X-31500D01*
Y42500D01*
X-23500D01*
G01X-14100Y900D02*
Y-13100D01*
X-22100D01*
Y900D01*
X-14100D01*
G01X-21500Y50500D02*
X-13500D01*
Y42500D01*
X-21500D01*
G01X-8100Y-6100D02*
Y-11100D01*
X-14100D01*
Y-6100D01*
G01X-8100Y-4100D02*
Y900D01*
X-14100D01*
Y-4100D01*
G01X-9500Y45500D02*
Y42500D01*
X-13500D01*
Y45500D01*
G01X-9500Y48500D02*
Y51500D01*
X-13500D01*
Y48500D01*
G01X-8100Y-6100D02*
Y-11100D01*
X-2100D01*
Y-6100D01*
G01X-8100Y-4100D02*
Y900D01*
X-2100D01*
Y-4100D01*
G01X1000Y-86500D02*
Y-89500D01*
X-3000D01*
Y-86500D01*
G01X1000Y-83500D02*
Y-80500D01*
X-3000D01*
Y-83500D01*
G01X-3559Y-76559D02*
X51559D01*
Y-21441D01*
X-3559D01*
Y-76559D01*
G01X-2100Y-6100D02*
Y-11100D01*
X3900D01*
Y-6100D01*
G01X-2100Y-4100D02*
Y900D01*
X3900D01*
Y-4100D01*
G01X-3000Y41500D02*
X-6000D01*
Y45500D01*
X-3000D01*
G01X0Y41500D02*
X3000D01*
Y45500D01*
X0D01*
G01X12921Y-81063D02*
X3079D01*
Y-88937D01*
X12921D01*
Y-81063D01*
G01X3900Y-6100D02*
Y-11100D01*
X9900D01*
Y-6100D01*
G01X3900Y-4100D02*
Y900D01*
X9900D01*
Y-4100D01*
G01X7400Y2300D02*
X4400D01*
Y6300D01*
X7400D01*
G01X8900Y7300D02*
X3900D01*
Y13300D01*
X8900D01*
G01Y19300D02*
X3900D01*
Y13300D01*
X8900D01*
G01Y19300D02*
X3900D01*
Y25300D01*
X8900D01*
G01X3900Y33300D02*
X17900D01*
Y25300D01*
X3900D01*
Y33300D01*
G01X8900D02*
X3900D01*
Y39300D01*
X8900D01*
G01X6900D02*
X3900D01*
Y43300D01*
X6900D01*
G01X10400Y2300D02*
X13400D01*
Y6300D01*
X10400D01*
G01X10900Y7300D02*
X15900D01*
Y13300D01*
X10900D01*
G01Y19300D02*
X15900D01*
Y13300D01*
X10900D01*
G01Y19300D02*
X15900D01*
Y25300D01*
X10900D01*
G01Y33300D02*
X15900D01*
Y39300D01*
X10900D01*
G01X9900D02*
X12900D01*
Y43300D01*
X9900D01*
G01X19000Y-86500D02*
Y-89500D01*
X15000D01*
Y-86500D01*
G01X19000Y-83500D02*
Y-80500D01*
X15000D01*
Y-83500D01*
G01X15300Y-9200D02*
X21300D01*
G01X15300Y-6200D02*
Y-11200D01*
X21300D01*
Y-6200D01*
G01X15300Y-4200D02*
Y800D01*
X21300D01*
Y-4200D01*
G01X23200Y11900D02*
Y2900D01*
X19200D01*
Y11900D01*
X23200D01*
G01Y20900D02*
Y11900D01*
X19200D01*
Y20900D01*
X23200D01*
G01X30774Y43294D02*
Y55106D01*
X15026D01*
Y43294D01*
X30774D01*
G01X26400Y49200D02*
G03I-3500J0D01*
G01X21300Y-9200D02*
X27300D01*
G01X21300Y-6200D02*
Y-11200D01*
X27300D01*
Y-6200D01*
G01X21300Y-4200D02*
Y800D01*
X27300D01*
Y-4200D01*
G01X27200Y11900D02*
Y2900D01*
X23200D01*
Y11900D01*
X27200D01*
G01Y20900D02*
Y11900D01*
X23200D01*
Y20900D01*
X27200D01*
G01X37000Y-86500D02*
Y-89500D01*
X33000D01*
Y-86500D01*
G01X37000Y-83500D02*
Y-80500D01*
X33000D01*
Y-83500D01*
G01X31600Y-13700D02*
X40600D01*
Y-17700D01*
X31600D01*
Y-13700D01*
G01X27300Y-9200D02*
X33300D01*
G01X27300Y-6200D02*
Y-11200D01*
X33300D01*
Y-6200D01*
G01X27300Y-4200D02*
Y800D01*
X33300D01*
Y-4200D01*
G01X31200Y11900D02*
Y2900D01*
X27200D01*
Y11900D01*
X31200D01*
G01Y20900D02*
Y11900D01*
X27200D01*
Y20900D01*
X31200D01*
G01X38701Y-86953D02*
Y-81047D01*
X51299D01*
Y-86953D01*
X38701D01*
G01X35700Y-9200D02*
X41700D01*
G01X35700Y-6200D02*
Y-11200D01*
X41700D01*
Y-6200D01*
G01X35700Y-4200D02*
Y800D01*
X41700D01*
Y-4200D01*
G01X38795Y9402D02*
Y44598D01*
X67535D01*
Y9402D01*
X38795D01*
G01X49500Y-93000D02*
X40500D01*
Y-89000D01*
X49500D01*
Y-93000D01*
G01X41700Y-9200D02*
X47700D01*
G01X41700Y-6200D02*
Y-11200D01*
X47700D01*
Y-6200D01*
G01X41700Y-4200D02*
Y800D01*
X47700D01*
Y-4200D01*
G01X57000Y-86500D02*
Y-89500D01*
X53000D01*
Y-86500D01*
G01X57000Y-83500D02*
Y-80500D01*
X53000D01*
Y-83500D01*
G01X52500Y-33500D02*
X58500D01*
G01X52500Y-30500D02*
Y-35500D01*
X58500D01*
Y-30500D01*
G01X52500Y-28500D02*
Y-23500D01*
X58500D01*
Y-28500D01*
G01Y-68500D02*
Y-71500D01*
X54500D01*
Y-68500D01*
G01Y-59500D02*
Y-62500D01*
X58500D01*
Y-59500D01*
G01Y-65500D02*
Y-62500D01*
X54500D01*
Y-65500D01*
G01Y-56500D02*
Y-53500D01*
X58500D01*
Y-56500D01*
G01Y-50500D02*
Y-53500D01*
X54500D01*
Y-50500D01*
G01X58500Y-47500D02*
Y-44500D01*
X54500D01*
Y-47500D01*
G01Y-41500D02*
Y-44500D01*
X58500D01*
Y-41500D01*
G01X54500Y-38500D02*
Y-35500D01*
X58500D01*
Y-38500D01*
G01Y-14500D02*
Y-23500D01*
X54500D01*
Y-14500D01*
X58500D01*
G01X66236Y9402D02*
Y44598D01*
G54D11*
G01X-19684Y-29809D02*
X-55116D01*
Y-80991D01*
X-19684D01*
Y-29809D01*
M02*
