G04 ================== begin FILE IDENTIFICATION RECORD ==================*
G04 Layout Name:  F:/PCB_PROJECT/a33_pcie/allegro/A33_M2.brd*
G04 Film Name:    SILK_BOTTOM*
G04 File Format:  Gerber RS274X*
G04 File Origin:  Cadence Allegro 17.2-S058*
G04 Origin Date:  Sat Nov 07 21:40:12 2020*
G04 *
G04 Layer:  PACKAGE GEOMETRY/SILKSCREEN_BOTTOM*
G04 Layer:  BOARD GEOMETRY/SILKSCREEN_BOTTOM*
G04 Layer:  BOARD GEOMETRY/OUTLINE*
G04 *
G04 Offset:    (0.00 0.00)*
G04 Mirror:    No*
G04 Mode:      Positive*
G04 Rotation:  0*
G04 FullContactRelief:  No*
G04 UndefLineWidth:     6.00*
G04 ================== end FILE IDENTIFICATION RECORD ====================*
%FSLAX25Y25*MOIN*%
%IR0*IPPOS*OFA0.00000B0.00000*MIA0B0*SFA1.00000B1.00000*%
%ADD10C,.006*%
G75*
%LPD*%
G75*
G36*
G01X14300Y-6500D02*
G03I-1000J0D01*
G37*
G54D10*
G01X41043Y-94252D02*
X57087D01*
G03X59055Y-92283I0J1968D01*
G01Y53386D01*
G03X57087Y55354I-1968J0D01*
G01X-57087D01*
G03X-59055Y53386I0J-1968D01*
G01Y-92283D01*
G03X-57087Y-94252I1968J-1D01*
G01X-41043D01*
G02X-39075Y-96220I0J-1968D01*
G01Y-110000D01*
X19783D01*
Y-98583D01*
G02X22146Y-96220I2363J0D01*
G02X24508Y-98583I0J-2362D01*
G01Y-110000D01*
X39075D01*
Y-96220D01*
G02X41043Y-94252I1968J0D01*
G01X39075Y-96220D02*
Y-110000D01*
X24508D01*
Y-98583D01*
G03X22146Y-96220I-2362J1D01*
G03X19783Y-98583I0J-2363D01*
G01Y-110000D01*
X-39075D01*
Y-96220D01*
G03X-41043Y-94252I-1968J0D01*
G01X-57087D01*
G02X-59055Y-92283I0J1968D01*
G01Y53386D01*
G02X-57087Y55354I1968J0D01*
G01X57087D01*
G02X59055Y53386I0J-1968D01*
G01Y-92283D01*
G02X57087Y-94252I-1968J-1D01*
G01X41043D01*
G03X39075Y-96220I0J-1968D01*
G01X47685Y5992D02*
Y-19992D01*
X58315D01*
Y5992D01*
X47685D01*
G01X58315Y-1488D02*
X64220D01*
Y-6606D01*
X58315D01*
G01X-16030Y-10097D02*
Y47777D01*
X-71148D01*
Y-10097D01*
X-16030D01*
G01X-56500Y-75100D02*
Y-78100D01*
X-52500D01*
Y-75100D01*
G01Y-66100D02*
Y-69100D01*
X-56500D01*
Y-66100D01*
G01Y-72100D02*
Y-69100D01*
X-52500D01*
Y-72100D01*
G01Y-57100D02*
Y-60100D01*
X-56500D01*
Y-57100D01*
G01X-52500Y-63100D02*
Y-60100D01*
X-56500D01*
Y-63100D01*
G01X-52500Y-54100D02*
Y-51100D01*
X-56500D01*
Y-54100D01*
G01X-47500Y-47100D02*
X-56500D01*
Y-51100D01*
X-47500D01*
Y-47100D01*
G01X-52500D02*
Y-38100D01*
X-56500D01*
Y-47100D01*
X-52500D01*
G01X-56500Y-35100D02*
Y-38100D01*
X-52500D01*
Y-35100D01*
G01X-56500Y-32100D02*
Y-29100D01*
X-52500D01*
Y-32100D01*
G01X-44200Y-38700D02*
Y-41700D01*
X-48200D01*
Y-38700D01*
G01X-44200Y-35700D02*
Y-32700D01*
X-48200D01*
Y-35700D01*
G01Y-23700D02*
Y-32700D01*
X-44200D01*
Y-23700D01*
X-48200D01*
G01X-49000Y-17100D02*
X-52000D01*
Y-21100D01*
X-49000D01*
G01X-44200Y-38700D02*
Y-41700D01*
X-40200D01*
Y-38700D01*
G01X-44200Y-35700D02*
Y-32700D01*
X-40200D01*
Y-35700D01*
G01Y-32700D02*
Y-23700D01*
X-44200D01*
Y-32700D01*
X-40200D01*
G01X-46000Y-17100D02*
X-43000D01*
Y-21100D01*
X-46000D01*
G01X-40000Y-17200D02*
X-43000D01*
Y-21200D01*
X-40000D01*
G01X-31000Y-17200D02*
X-34000D01*
Y-21200D01*
X-31000D01*
G01X-37000Y-17200D02*
X-34000D01*
Y-21200D01*
X-37000D01*
G01X-28000Y-17200D02*
X-25000D01*
Y-21200D01*
X-28000D01*
G01X-22000Y-17200D02*
X-25000D01*
Y-21200D01*
X-22000D01*
G01X-19000Y-17200D02*
X-16000D01*
Y-21200D01*
X-19000D01*
G01X-1900Y-18100D02*
Y-9100D01*
X-5900D01*
Y-18100D01*
X-1900D01*
G01X2100D02*
Y-9100D01*
X-1900D01*
Y-18100D01*
X2100D01*
G01X3000Y-73000D02*
Y-76000D01*
X7000D01*
Y-73000D01*
G01X3000Y-70000D02*
Y-67000D01*
X7000D01*
Y-70000D01*
G01X7100Y-52500D02*
X4100D01*
Y-48500D01*
X7100D01*
G01X6100Y-18100D02*
Y-9100D01*
X2100D01*
Y-18100D01*
X6100D01*
G01X10100D02*
Y-9100D01*
X6100D01*
Y-18100D01*
X10100D01*
G01X4000Y11100D02*
X1000D01*
Y7100D01*
X4000D01*
G01X6000Y12300D02*
X3000D01*
Y16300D01*
X6000D01*
G01X3000D02*
X12000D01*
Y20300D01*
X3000D01*
Y16300D01*
G01X8500Y-75000D02*
X17500D01*
Y-71000D01*
X8500D01*
Y-75000D01*
G01X8000Y-67000D02*
Y-70000D01*
X12000D01*
Y-67000D01*
G01X8000Y-64000D02*
Y-61000D01*
X12000D01*
Y-64000D01*
G01X11500Y-59000D02*
X8500D01*
Y-55000D01*
X11500D01*
G01X10100Y-52500D02*
X13100D01*
Y-48500D01*
X10100D01*
G01X16100Y-52500D02*
X13100D01*
Y-48500D01*
X16100D01*
G01X16500Y-26500D02*
Y-23500D01*
X12500D01*
Y-26500D01*
G01X16500Y-29500D02*
Y-32500D01*
X12500D01*
Y-29500D01*
G01Y-26500D02*
Y-23500D01*
X8500D01*
Y-26500D01*
G01X12500Y-29500D02*
Y-32500D01*
X8500D01*
Y-29500D01*
G01X14100Y-18100D02*
Y-9100D01*
X10100D01*
Y-18100D01*
X14100D01*
G01X7000Y11100D02*
X10000D01*
Y7100D01*
X7000D01*
G01X9000Y12300D02*
X12000D01*
Y16300D01*
X9000D01*
G01X18250Y41500D02*
X10200D01*
Y51500D01*
X18250D01*
G01X14000Y-67000D02*
Y-70000D01*
X18000D01*
Y-67000D01*
G01X14000Y-64000D02*
Y-61000D01*
X18000D01*
Y-64000D01*
G01X14500Y-59000D02*
X17500D01*
Y-55000D01*
X14500D01*
G01X19100Y-52500D02*
X22100D01*
Y-48500D01*
X19100D01*
G01X20500Y-26500D02*
Y-23500D01*
X16500D01*
Y-26500D01*
G01X20500Y-29500D02*
Y-32500D01*
X16500D01*
Y-29500D01*
G01X14458Y14342D02*
X34142D01*
Y-5342D01*
X14458D01*
Y14342D01*
G01X19500Y24000D02*
Y21000D01*
X15500D01*
Y24000D01*
G01X19500Y27000D02*
Y30000D01*
X15500D01*
Y27000D01*
G01X20500Y-68000D02*
Y-71000D01*
X24500D01*
Y-68000D01*
G01X20500Y-65000D02*
Y-62000D01*
X24500D01*
Y-65000D01*
G01X20500Y-59000D02*
Y-62000D01*
X24500D01*
Y-59000D01*
G01X20500Y-56000D02*
Y-53000D01*
X24500D01*
Y-56000D01*
G01X25900Y-48500D02*
X22900D01*
Y-52500D01*
X25900D01*
G01X20500Y-40700D02*
Y-43700D01*
X24500D01*
Y-40700D01*
G01X20500Y-37700D02*
Y-34700D01*
X24500D01*
Y-37700D01*
G01X28500Y-26500D02*
Y-23500D01*
X24500D01*
Y-26500D01*
G01X28500Y-29500D02*
Y-32500D01*
X24500D01*
Y-29500D01*
G01Y-26500D02*
Y-23500D01*
X20500D01*
Y-26500D01*
G01X24500Y-29500D02*
Y-32500D01*
X20500D01*
Y-29500D01*
G01X24600Y-13700D02*
X33600D01*
Y-9700D01*
X24600D01*
Y-13700D01*
G01Y-17700D02*
X33600D01*
Y-13700D01*
X24600D01*
Y-17700D01*
G01X22175Y21900D02*
G03I-788J0D01*
G01X22647Y22963D02*
X28553D01*
Y30837D01*
X22647D01*
Y22963D01*
G01X22300Y33700D02*
X31300D01*
Y37700D01*
X22300D01*
Y33700D01*
G01X25750Y51500D02*
X33800D01*
Y41500D01*
X25750D01*
G01X28900Y-48500D02*
X31900D01*
Y-52500D01*
X28900D01*
G01X34900Y-48500D02*
X31900D01*
Y-52500D01*
X34900D01*
G01X32500Y-26500D02*
Y-23500D01*
X28500D01*
Y-26500D01*
G01X32500Y-29500D02*
Y-32500D01*
X28500D01*
Y-29500D01*
G01X36500Y-26500D02*
Y-23500D01*
X32500D01*
Y-26500D01*
G01X36500Y-29500D02*
Y-32500D01*
X32500D01*
Y-29500D01*
G01X39900Y-66000D02*
Y-69000D01*
X43900D01*
Y-66000D01*
G01X35900D02*
Y-69000D01*
X39900D01*
Y-66000D01*
G01Y-63000D02*
Y-60000D01*
X43900D01*
Y-63000D01*
G01X35900D02*
Y-60000D01*
X39900D01*
Y-63000D01*
G01X37900Y-48500D02*
X40900D01*
Y-52500D01*
X37900D01*
G01X36600Y-40500D02*
Y-43500D01*
X40600D01*
Y-40500D01*
G01X36600Y-37500D02*
Y-34500D01*
X40600D01*
Y-37500D01*
G01X40500Y-26500D02*
Y-23500D01*
X36500D01*
Y-26500D01*
G01X40500Y-29500D02*
Y-32500D01*
X36500D01*
Y-29500D01*
G01X45200Y-66000D02*
Y-69000D01*
X49200D01*
Y-66000D01*
G01X45200Y-63000D02*
Y-60000D01*
X49200D01*
Y-63000D01*
G01X46100Y-46500D02*
Y-43500D01*
X42100D01*
Y-46500D01*
G01X46100Y-49500D02*
Y-52500D01*
X42100D01*
Y-49500D01*
G01X52500Y17600D02*
X43500D01*
Y13600D01*
X52500D01*
Y17600D01*
G01X42200Y20000D02*
X51200D01*
Y24000D01*
X42200D01*
Y20000D01*
G01Y31900D02*
X51200D01*
Y35900D01*
X42200D01*
Y31900D01*
G01X52000Y-58500D02*
Y-61500D01*
X56000D01*
Y-58500D01*
G01X52000Y-55500D02*
Y-52500D01*
X56000D01*
Y-55500D01*
G01X52000Y-46500D02*
Y-43500D01*
X48000D01*
Y-46500D01*
G01X52000Y-49500D02*
Y-52500D01*
X48000D01*
Y-49500D01*
G01X56000Y-52500D02*
Y-43500D01*
X52000D01*
Y-52500D01*
X56000D01*
M02*
