G04 ================== begin FILE IDENTIFICATION RECORD ==================*
G04 Layout Name:  F:/PCB_PROJECT/a33_pcie/allegro/A33_M2.brd*
G04 Film Name:    SOLDER_TOP*
G04 File Format:  Gerber RS274X*
G04 File Origin:  Cadence Allegro 17.2-S058*
G04 Origin Date:  Sat Nov 07 21:40:12 2020*
G04 *
G04 Layer:  VIA CLASS/SOLDERMASK_TOP*
G04 Layer:  PIN/SOLDERMASK_TOP*
G04 Layer:  PACKAGE GEOMETRY/SOLDERMASK_TOP*
G04 Layer:  BOARD GEOMETRY/OUTLINE*
G04 *
G04 Offset:    (0.00 0.00)*
G04 Mirror:    No*
G04 Mode:      Positive*
G04 Rotation:  0*
G04 FullContactRelief:  No*
G04 UndefLineWidth:     6.00*
G04 ================== end FILE IDENTIFICATION RECORD ====================*
%FSLAX25Y25*MOIN*%
%IR0*IPPOS*OFA0.00000B0.00000*MIA0B0*SFA1.00000B1.00000*%
%ADD29C,.0315*%
%ADD12C,.01614*%
%ADD10R,.025X.025*%
%ADD23R,.04331X.04331*%
%ADD28C,.02559*%
%ADD18R,.00984X.03189*%
%ADD17R,.03189X.00984*%
%ADD13R,.035X.04*%
%ADD15R,.04X.035*%
%ADD20R,.065X.055*%
%ADD14R,.03941X.06303*%
%ADD21R,.06303X.03941*%
%ADD16R,.01417X.08701*%
%ADD24R,.05945X.02402*%
%ADD26R,.03941X.07091*%
%ADD25R,.05945X.01181*%
%ADD30R,.04764X.07126*%
%ADD22C,.15787*%
%ADD19R,.21658X.21658*%
%ADD11R,.04764X.06732*%
%ADD27R,.05748X.07126*%
%ADD31C,.006*%
G75*
%LPD*%
G75*
G36*
G01X-39075Y-110000D02*
Y-99765D01*
X19783D01*
Y-110000D01*
X-39075D01*
G37*
G36*
G01X39075D02*
Y-99819D01*
X24508D01*
Y-110000D01*
X39075D01*
G37*
G54D10*
X-55300Y10900D03*
Y19900D03*
Y15900D03*
Y24900D03*
X-55400Y35100D03*
Y40100D03*
X-44100Y-12100D03*
Y-7100D03*
X-33500Y44500D03*
Y49500D03*
X-11500Y44500D03*
Y49500D03*
X-1000Y-87500D03*
Y-82500D03*
X-4000Y43500D03*
X1000D03*
X6400Y4300D03*
X5900Y41300D03*
X11400Y4300D03*
X10900Y41300D03*
X17000Y-87500D03*
Y-82500D03*
X21200Y4900D03*
Y13900D03*
Y9900D03*
Y18900D03*
X25200Y4900D03*
Y13900D03*
Y9900D03*
Y18900D03*
X33600Y-15700D03*
X29200Y4900D03*
Y13900D03*
Y9900D03*
Y18900D03*
X35000Y-87500D03*
Y-82500D03*
X38600Y-15700D03*
X42500Y-91000D03*
X47500D03*
X55000Y-87500D03*
Y-82500D03*
X56500Y-69500D03*
Y-60500D03*
Y-64500D03*
Y-55500D03*
Y-51500D03*
Y-46500D03*
Y-42500D03*
Y-37500D03*
Y-21500D03*
Y-16500D03*
G54D11*
X-55363Y49200D03*
X-38237D03*
X14337D03*
X31463D03*
G54D20*
X-27000Y46500D03*
X-18000D03*
G54D30*
X56000Y7039D03*
Y46961D03*
G54D21*
X-18100Y-10100D03*
Y-2100D03*
G54D12*
X-49998Y-72723D03*
X-46849D03*
X-49998Y-75872D03*
X-46849D03*
X-49998Y-79022D03*
X-46849D03*
X-49998Y-66424D03*
X-46849D03*
X-49998Y-69573D03*
X-46849D03*
X-49998Y-60124D03*
X-46849D03*
X-49998Y-63274D03*
X-46849D03*
X-49998Y-53825D03*
X-46849D03*
X-49998Y-56975D03*
X-46849D03*
X-49998Y-47526D03*
X-46849D03*
X-49998Y-50676D03*
X-46849D03*
X-49998Y-41227D03*
X-46849D03*
X-49998Y-44376D03*
X-46849D03*
X-49998Y-34928D03*
X-46849D03*
X-49998Y-38077D03*
X-46849D03*
X-49998Y-31778D03*
X-46849D03*
X-43699Y-72723D03*
Y-75872D03*
Y-79022D03*
Y-66424D03*
Y-69573D03*
Y-60124D03*
Y-63274D03*
Y-53825D03*
Y-56975D03*
Y-47526D03*
Y-50676D03*
Y-41227D03*
Y-44376D03*
Y-34928D03*
Y-38077D03*
Y-31778D03*
X-31101Y-72723D03*
X-27951D03*
X-31101Y-75872D03*
X-27951D03*
X-31101Y-79022D03*
X-27951D03*
X-31101Y-66424D03*
X-27951D03*
X-31101Y-69573D03*
X-27951D03*
X-31101Y-60124D03*
X-27951D03*
X-31101Y-63274D03*
X-27951D03*
X-31101Y-53825D03*
X-27951D03*
X-31101Y-56975D03*
X-27951D03*
X-31101Y-47526D03*
X-27951D03*
X-31101Y-50676D03*
X-27951D03*
X-31101Y-41227D03*
X-27951D03*
X-31101Y-44376D03*
X-27951D03*
X-31101Y-34928D03*
X-27951D03*
X-31101Y-38077D03*
X-27951D03*
X-31101Y-31778D03*
X-27951D03*
X-24802Y-72723D03*
Y-75872D03*
Y-79022D03*
Y-66424D03*
Y-69573D03*
Y-60124D03*
Y-63274D03*
Y-53825D03*
Y-56975D03*
Y-47526D03*
Y-50676D03*
Y-41227D03*
Y-44376D03*
Y-34928D03*
Y-38077D03*
Y-31778D03*
X-1197Y-74197D03*
Y-71047D03*
Y-67898D03*
Y-64748D03*
Y-61598D03*
Y-58449D03*
Y-55299D03*
Y-52150D03*
Y-49000D03*
Y-45850D03*
Y-42701D03*
Y-39551D03*
Y-36402D03*
Y-33252D03*
Y-30102D03*
Y-26953D03*
Y-23803D03*
X5102Y-74197D03*
X1953D03*
X5102Y-71047D03*
X1953D03*
X5102Y-67898D03*
X1953D03*
X5102Y-64748D03*
X1953D03*
X5102Y-61598D03*
X1953D03*
X5102Y-58449D03*
X1953D03*
X5102Y-55299D03*
X1953D03*
X5102Y-52150D03*
X1953D03*
X5102Y-49000D03*
X1953D03*
X5102Y-45850D03*
X1953D03*
X5102Y-42701D03*
X1953D03*
X5102Y-39551D03*
X1953D03*
X5102Y-36402D03*
X1953D03*
X5102Y-33252D03*
X1953D03*
X5102Y-30102D03*
X1953D03*
X5102Y-26953D03*
X1953D03*
X5102Y-23803D03*
X1953D03*
X11402Y-74197D03*
X8252D03*
X11402Y-71047D03*
X8252D03*
X11402Y-67898D03*
X8252D03*
X11402Y-64748D03*
X8252D03*
X11402Y-61598D03*
X8252D03*
X11402Y-58449D03*
X8252D03*
X11402Y-55299D03*
X8252D03*
X11402Y-52150D03*
X8252D03*
X11402Y-49000D03*
X8252D03*
X11402Y-45850D03*
X8252D03*
X11402Y-42701D03*
X8252D03*
X11402Y-39551D03*
X8252D03*
X11402Y-36402D03*
X8252D03*
X11402Y-33252D03*
X8252D03*
X11402Y-30102D03*
X8252D03*
X11402Y-26953D03*
X8252D03*
X11402Y-23803D03*
X8252D03*
X17701Y-74197D03*
X14551D03*
X17701Y-71047D03*
X14551D03*
X17701Y-67898D03*
X14551D03*
X17701Y-64748D03*
X14551D03*
X17701Y-61598D03*
X14551D03*
X17701Y-58449D03*
X14551D03*
X17701Y-55299D03*
X14551D03*
X17701Y-52150D03*
X14551D03*
X17701Y-49000D03*
X14551D03*
X17701Y-45850D03*
X14551D03*
X17701Y-42701D03*
X14551D03*
X17701Y-39551D03*
X14551D03*
X17701Y-36402D03*
X14551D03*
X17701Y-33252D03*
X14551D03*
X17701Y-30102D03*
X14551D03*
X17701Y-26953D03*
X14551D03*
X17701Y-23803D03*
X14551D03*
X27150Y-74197D03*
X24000D03*
X20850D03*
X27150Y-71047D03*
X24000D03*
X20850D03*
X27150Y-67898D03*
X24000D03*
X20850D03*
X27150Y-64748D03*
X24000D03*
X20850D03*
X27150Y-61598D03*
X24000D03*
X20850D03*
X27150Y-58449D03*
X24000D03*
X20850D03*
X27150Y-55299D03*
X24000D03*
X20850D03*
X27150Y-52150D03*
X24000D03*
X20850D03*
X27150Y-49000D03*
X24000D03*
X20850D03*
X27150Y-45850D03*
X24000D03*
X20850D03*
X27150Y-42701D03*
X24000D03*
X20850D03*
X27150Y-39551D03*
X24000D03*
X20850D03*
X27150Y-36402D03*
X24000D03*
X20850D03*
X27150Y-33252D03*
X24000D03*
X20850D03*
X27150Y-30102D03*
X24000D03*
X20850D03*
X27150Y-26953D03*
X24000D03*
X20850D03*
X27150Y-23803D03*
X24000D03*
X20850D03*
X33449Y-74197D03*
X30299D03*
X33449Y-71047D03*
X30299D03*
X33449Y-67898D03*
X30299D03*
X33449Y-64748D03*
X30299D03*
X33449Y-61598D03*
X30299D03*
X33449Y-58449D03*
X30299D03*
X33449Y-55299D03*
X30299D03*
X33449Y-52150D03*
X30299D03*
X33449Y-49000D03*
X30299D03*
X33449Y-45850D03*
X30299D03*
X33449Y-42701D03*
X30299D03*
X33449Y-39551D03*
X30299D03*
X33449Y-36402D03*
X30299D03*
X33449Y-33252D03*
X30299D03*
X33449Y-30102D03*
X30299D03*
Y-26953D03*
X33449Y-23803D03*
X30299D03*
X39748Y-74197D03*
X36598D03*
X39748Y-71047D03*
X36598D03*
X39748Y-67898D03*
X36598D03*
X39748Y-64748D03*
X36598D03*
X39748Y-61598D03*
Y-58449D03*
X36598D03*
X39748Y-55299D03*
Y-52150D03*
X36598D03*
X39748Y-49000D03*
Y-45850D03*
X36598D03*
X39748Y-42701D03*
Y-39551D03*
Y-36402D03*
Y-33252D03*
X36598D03*
X39748Y-30102D03*
X36598D03*
X39748Y-26953D03*
X36598D03*
X39748Y-23803D03*
X36598D03*
X46047Y-74197D03*
X42898D03*
X46047Y-71047D03*
X42898D03*
X46047Y-67898D03*
X42898D03*
X46047Y-64748D03*
X42898D03*
X46047Y-61598D03*
X42898D03*
X46047Y-58449D03*
X42898D03*
X46047Y-55299D03*
X42898D03*
X46047Y-52150D03*
X42898D03*
X46047Y-49000D03*
X42898D03*
X46047Y-45850D03*
X42898D03*
X46047Y-42701D03*
X42898D03*
X46047Y-39551D03*
X42898D03*
X46047Y-36402D03*
X42898D03*
X46047Y-33252D03*
X42898D03*
X46047Y-30102D03*
X42898D03*
X46047Y-26953D03*
X42898D03*
X46047Y-23803D03*
X42898D03*
X49197Y-74197D03*
Y-71047D03*
Y-67898D03*
Y-64748D03*
Y-61598D03*
Y-58449D03*
Y-55299D03*
Y-52150D03*
Y-49000D03*
Y-45850D03*
Y-42701D03*
Y-39551D03*
Y-36402D03*
Y-33252D03*
Y-30102D03*
Y-26953D03*
Y-23803D03*
G54D31*
G01X41043Y-94252D02*
X57087D01*
G03X59055Y-92283I0J1968D01*
G01Y53386D01*
G03X57087Y55354I-1968J0D01*
G01X-57087D01*
G03X-59055Y53386I0J-1968D01*
G01Y-92283D01*
G03X-57087Y-94252I1968J-1D01*
G01X-41043D01*
G02X-39075Y-96220I0J-1968D01*
G01Y-110000D01*
X19783D01*
Y-98583D01*
G02X22146Y-96220I2363J0D01*
G02X24508Y-98583I0J-2362D01*
G01Y-110000D01*
X39075D01*
Y-96220D01*
G02X41043Y-94252I1968J0D01*
G01X39075Y-96220D02*
Y-110000D01*
X24508D01*
Y-98583D01*
G03X22146Y-96220I-2362J1D01*
G03X19783Y-98583I0J-2363D01*
G01Y-110000D01*
X-39075D01*
Y-96220D01*
G03X-41043Y-94252I-1968J0D01*
G01X-57087D01*
G02X-59055Y-92283I0J1968D01*
G01Y53386D01*
G02X-57087Y55354I1968J0D01*
G01X57087D01*
G02X59055Y53386I0J-1968D01*
G01Y-92283D01*
G02X57087Y-94252I-1968J-1D01*
G01X41043D01*
G03X39075Y-96220I0J-1968D01*
G54D22*
X0Y55354D03*
G54D13*
X-49100Y-14200D03*
Y-8000D03*
X-37100Y-8200D03*
Y-2000D03*
X-25100Y-8200D03*
X-31100D03*
X-25100Y-2000D03*
X-31100D03*
X-5100Y-8200D03*
X-11100D03*
X-5100Y-2000D03*
X-11100D03*
X900Y-8200D03*
Y-2000D03*
X6900Y-8200D03*
Y-2000D03*
X18300Y-8300D03*
Y-2100D03*
X24300Y-8300D03*
Y-2100D03*
X30300Y-8300D03*
Y-2100D03*
X38700Y-8300D03*
Y-2100D03*
X44700Y-8300D03*
Y-2100D03*
X55500Y-32600D03*
Y-26400D03*
G54D14*
X-49100Y4900D03*
Y24900D03*
X-41100Y4900D03*
Y24900D03*
X6900Y29300D03*
X14900D03*
G54D23*
X4654Y-87559D03*
Y-82441D03*
X11346Y-87559D03*
Y-82441D03*
G54D24*
X35941Y14205D03*
Y17354D03*
Y40150D03*
Y37000D03*
G54D15*
X-49200Y11900D03*
Y17900D03*
Y31900D03*
Y37900D03*
X-43000Y11900D03*
Y17900D03*
Y31900D03*
Y37900D03*
X6800Y10300D03*
Y16300D03*
Y22300D03*
Y36300D03*
X13000Y10300D03*
Y16300D03*
Y22300D03*
Y36300D03*
G54D25*
X35941Y20110D03*
Y26016D03*
Y24047D03*
Y22079D03*
Y33890D03*
Y31921D03*
Y29953D03*
Y27984D03*
G54D16*
X-36417Y-104094D03*
X-34449D03*
X-32480D03*
X-30512D03*
X-28543D03*
X-26575D03*
X-24606D03*
X-22638D03*
X-20669D03*
X-18701D03*
X-16732D03*
X-14764D03*
X-12795D03*
X-10827D03*
X-8858D03*
X-6890D03*
X-4921D03*
X-2953D03*
X-984D03*
X984D03*
X2953D03*
X4921D03*
X6890D03*
X8858D03*
X10827D03*
X12795D03*
X14764D03*
X16732D03*
X26575D03*
X28543D03*
X30512D03*
X32480D03*
X34449D03*
X36417D03*
G54D26*
X40079Y-84000D03*
X49921D03*
G54D17*
X-33748Y9402D03*
Y10976D03*
Y12551D03*
Y14126D03*
Y15701D03*
Y17276D03*
Y18850D03*
Y20425D03*
Y22000D03*
Y23575D03*
Y25150D03*
Y26724D03*
Y28299D03*
Y29874D03*
Y31449D03*
Y33024D03*
Y34598D03*
X-2252Y12551D03*
Y10976D03*
Y9402D03*
Y20425D03*
Y18850D03*
Y17276D03*
Y15701D03*
Y14126D03*
Y26724D03*
Y25150D03*
Y23575D03*
Y22000D03*
Y33024D03*
Y31449D03*
Y29874D03*
Y28299D03*
Y34598D03*
G54D27*
X39543Y7039D03*
Y46961D03*
G54D18*
X-27449Y6252D03*
X-29024D03*
X-30598D03*
Y37748D03*
X-29024D03*
X-27449D03*
X-19575Y6252D03*
X-21150D03*
X-22724D03*
X-24299D03*
X-25874D03*
Y37748D03*
X-24299D03*
X-22724D03*
X-21150D03*
X-19575D03*
X-13276Y6252D03*
X-14850D03*
X-16425D03*
X-18000D03*
Y37748D03*
X-16425D03*
X-14850D03*
X-13276D03*
X-6976Y6252D03*
X-8551D03*
X-10126D03*
X-11701D03*
Y37748D03*
X-10126D03*
X-8551D03*
X-6976D03*
X-5402Y6252D03*
Y37748D03*
G54D19*
X-18000Y22000D03*
G54D28*
X41630Y15622D03*
Y38378D03*
G54D29*
X53000Y-12906D03*
Y-1094D03*
M02*
