G04 ================== begin FILE IDENTIFICATION RECORD ==================*
G04 Layout Name:  F:/PCB_PROJECT/a33_pcie/allegro/A33_M2.brd*
G04 Film Name:    TOP*
G04 File Format:  Gerber RS274X*
G04 File Origin:  Cadence Allegro 17.2-S058*
G04 Origin Date:  Sat Nov 07 21:40:12 2020*
G04 *
G04 Layer:  BOARD GEOMETRY/OUTLINE*
G04 Layer:  ETCH/TOP*
G04 Layer:  PIN/TOP*
G04 Layer:  VIA CLASS/TOP*
G04 *
G04 Offset:    (0.00 0.00)*
G04 Mirror:    No*
G04 Mode:      Positive*
G04 Rotation:  0*
G04 FullContactRelief:  No*
G04 UndefLineWidth:     6.00*
G04 ================== end FILE IDENTIFICATION RECORD ====================*
%FSLAX25Y25*MOIN*%
%IR0*IPPOS*OFA0.00000B0.00000*MIA0B0*SFA1.00000B1.00000*%
%ADD12R,.025X.025*%
%ADD10C,.01772*%
%ADD20R,.00945X.0315*%
%ADD14C,.01575*%
%ADD19R,.0315X.00945*%
%ADD11C,.03937*%
%ADD25R,.03937X.03937*%
%ADD22R,.06X.05*%
%ADD15R,.03X.038*%
%ADD17R,.038X.03*%
%ADD27R,.05906X.01181*%
%ADD26R,.05906X.02362*%
%ADD24C,.15748*%
%ADD21R,.21654X.21654*%
%ADD30R,.04724X.07087*%
%ADD18R,.01378X.08661*%
%ADD13R,.04724X.06693*%
%ADD29R,.05709X.07087*%
%ADD28R,.03937X.07087*%
%ADD16R,.03937X.06299*%
%ADD23R,.06299X.03937*%
%ADD31C,.01*%
%ADD32C,.02*%
%ADD33C,.015*%
%ADD34C,.004*%
%ADD35C,.005*%
%ADD36C,.006*%
%ADD37C,.0035*%
%ADD38C,.00578*%
%ADD41C,.02576*%
%ADD40C,.04754*%
%ADD39C,.02378*%
G75*
%LPD*%
G75*
G36*
G01X29825Y-20537D02*
G03X29446Y-19625I-1287J0D01*
G02X29414Y-19095I283J283D01*
G03X29688Y-18301I-1014J794D01*
G01Y-18300D01*
G03X27112I-1288J0D01*
G03X27491Y-19212I1287J0D01*
G02X27523Y-19742I-283J-283D01*
G03X27249Y-20536I1014J-794D01*
G01Y-20537D01*
G03X28005Y-21710I1288J0D01*
G01X28122Y-21763D01*
Y-22321D01*
G02X27578Y-22694I-400J0D01*
G03X27150Y-22614I-429J-1109D01*
G03X26721Y-22694I0J-1190D01*
G02X26176Y-22321I-145J373D01*
G01Y-21175D01*
G03X26000Y-20750I-601J0D01*
G01X25512Y-20261D01*
X25496Y-20223D01*
G03X24300Y-19412I-1196J-476D01*
G03X23633Y-19598I0J-1289D01*
G02X23026Y-19256I-207J342D01*
G01Y-18225D01*
G03X22850Y-17800I-601J0D01*
G01X21812Y-16761D01*
X21796Y-16723D01*
G03X20600Y-15912I-1196J-476D01*
G03X19761Y-16223I0J-1287D01*
G02X19239I-261J303D01*
G03X18400Y-15912I-839J-976D01*
G03X17754Y-16086I0J-1288D01*
G02X17185Y-15896I-201J346D01*
G03X16000Y-15112I-1185J-504D01*
G03X14712Y-16400I0J-1288D01*
G03X14735Y-16644I1288J-2D01*
G02X14380Y-17118I-393J-76D01*
G03X13212Y-18400I120J-1282D01*
G03X13898Y-19539I1289J0D01*
G01Y-20151D01*
X12551Y-21499D01*
G03X12374Y-21924I425J-426D01*
G01Y-22321D01*
G02X11830Y-22694I-400J0D01*
G03X11402Y-22614I-429J-1109D01*
G03X10973Y-22694I0J-1190D01*
G02X10428Y-22321I-145J373D01*
G01Y-16522D01*
X15049Y-11902D01*
X17822D01*
G02X18196Y-12443I0J-400D01*
G03X18112Y-12900I1204J-458D01*
G03X19400Y-14188I1288J0D01*
G03X20239Y-13877I0J1287D01*
G02X20761I261J-303D01*
G03X21600Y-14188I839J976D01*
G03X22029Y-14114I-1J1288D01*
G02X22550Y-14588I133J-377D01*
G03X22512Y-14900I1250J-311D01*
G03X25088I1288J0D01*
G01Y-14899D01*
G03X24754Y-14034I-1288J0D01*
G01X24702Y-13900D01*
X24754Y-13766D01*
G03X25088Y-12901I-954J865D01*
G01Y-12900D01*
G03X25004Y-12443I-1288J-1D01*
G02X25378Y-11902I374J141D01*
G01X27300D01*
G03X27725Y-11725I-1J602D01*
G01X28849Y-10602D01*
X31800D01*
G03X32202Y-10200I0J402D01*
G01Y-6400D01*
G03X31800Y-5998I-402J0D01*
G01X28800D01*
G03X28398Y-6400I0J-402D01*
G01Y-9351D01*
X27051Y-10698D01*
X26595D01*
G02X26198Y-10249I0J400D01*
G03X26202Y-10200I-397J57D01*
G01Y-6400D01*
G03X25800Y-5998I-402J0D01*
G01X23249D01*
X22025Y-4775D01*
G03X21600Y-4598I-426J-425D01*
G01X20576D01*
G02X20189Y-4099I0J400D01*
G03X20202Y-4000I-389J101D01*
G01Y-200D01*
G03X19800Y202I-402J0D01*
G01X18902D01*
Y1751D01*
X20399Y3248D01*
X22450D01*
G03X22625Y3288I0J403D01*
G02X23198Y2928I173J-360D01*
G01Y202D01*
X22800D01*
G03X22398Y-200I0J-402D01*
G01Y-4000D01*
G03X22800Y-4402I402J0D01*
G01X25800D01*
G03X26202Y-4000I0J402D01*
G01Y-200D01*
G03X25800Y202I-402J0D01*
G01X24402D01*
Y3248D01*
X26450D01*
G03X26852Y3650I0J402D01*
G01Y6150D01*
G03X26851Y6174I-402J-5D01*
G02X27250Y6598I399J24D01*
G01X27602D01*
Y6355D01*
X27584Y6316D01*
G03X27548Y6150I365J-166D01*
G01Y3650D01*
G03X27950Y3248I402J0D01*
G01X29898D01*
Y202D01*
X28800D01*
G03X28398Y-200I0J-402D01*
G01Y-4000D01*
G03X28800Y-4402I402J0D01*
G01X31800D01*
G03X32202Y-4000I0J402D01*
G01Y-200D01*
G03X31800Y202I-402J0D01*
G01X31102D01*
Y3600D01*
G03X30925Y4025I-602J-1D01*
G01X30852Y4099D01*
Y6150D01*
G03X30839Y6249I-402J-2D01*
G02X31016Y6688I388J99D01*
G03X31125Y6775I-318J510D01*
G01X32025Y7675D01*
G03X32202Y8100I-425J426D01*
G01Y11500D01*
G03X32192Y11605I-602J-4D01*
G01X32174Y11708D01*
X32389Y11923D01*
X32838Y11475D01*
G03X33263Y11298I426J425D01*
G01X42651D01*
X43575Y10375D01*
G03X44000Y10198I426J425D01*
G01X52800D01*
G03X53225Y10375I-1J602D01*
G01X54216Y11366D01*
X54323Y11342D01*
G03X54599Y11312I276J1258D01*
G01X54600D01*
G03X53312Y12600I0J1288D01*
G01Y12599D01*
G03X53342Y12323I1288J0D01*
G01X53366Y12216D01*
X52551Y11402D01*
X48442D01*
G02X48159Y12084I0J400D01*
G01X51137Y15063D01*
G03X51402Y15700I-636J638D01*
G01Y17380D01*
G03X51788Y18300I-903J920D01*
G03X49212I-1288J0D01*
G03X49598Y17380I1289J0D01*
G01Y16073D01*
X46727Y13202D01*
X45620D01*
G03X44700Y13588I-920J-903D01*
G03X43490Y12741I0J-1288D01*
G02X43029Y12488I-375J138D01*
G03X42900Y12502I-129J-587D01*
G01X33512D01*
X31688Y14325D01*
G03X31263Y14502I-426J-425D01*
G01X30852D01*
Y15150D01*
G03X30450Y15552I-402J0D01*
G01X27788D01*
Y15770D01*
X27791Y15789D01*
G03X27802Y15900I-591J115D01*
G01Y17248D01*
X30450D01*
G03X30831Y17524I0J401D01*
G01X31021Y17661D01*
X31072Y17654D01*
G03X31400Y17612I326J1246D01*
G03X31704Y17648I2J1288D01*
G02X32198Y17260I94J-388D01*
G01Y16134D01*
X32834Y15498D01*
X39545D01*
X39570Y15327D01*
G03X41630Y13541I2060J295D01*
G03X43711Y15622I0J2081D01*
G03X42580Y17473I-2080J0D01*
G02X42480Y18112I183J356D01*
G01X42902Y18534D01*
Y21366D01*
X42066Y22202D01*
X40334D01*
X39978Y21846D01*
G02X39296Y22129I-282J283D01*
G01Y22670D01*
G03X39198Y22932I-402J-1D01*
G01X39149Y23063D01*
X39198Y23194D01*
G03X39276Y23332I-304J263D01*
G01X39321Y23470D01*
X43547D01*
G03X43955Y23639I0J577D01*
G01X44508Y24192D01*
G03X44676Y24600I-408J407D01*
G01Y28050D01*
G03X44508Y28458I-576J1D01*
G01X44158Y28808D01*
G03X43750Y28976I-407J-408D01*
G01X43252D01*
G03X42100Y29688I-1152J-576D01*
G03X40812Y28400I0J-1288D01*
G01Y28382D01*
G02X40412Y27976I-400J-6D01*
G01X39296D01*
Y28574D01*
G03X39197Y28838I-402J0D01*
G01X39149Y28968D01*
X39197Y29099D01*
G03X39296Y29362I-303J264D01*
G01Y30544D01*
G03X39198Y30806I-402J-1D01*
G01X39149Y30937D01*
X39198Y31068D01*
G03X39296Y31330I-304J263D01*
G01Y32288D01*
X39542Y32390D01*
X39634Y32298D01*
X41466D01*
X42402Y33234D01*
Y35766D01*
X42344Y35823D01*
G02X42466Y36472I283J283D01*
G03X43711Y38378I-836J1906D01*
G03X41630Y40459I-2081J0D01*
G03X39585Y38764I0J-2081D01*
G01X39554Y38602D01*
X32498D01*
Y35298D01*
X38134D01*
X38209Y35223D01*
G02X38068Y34882I-142J-141D01*
G01X32988D01*
G03X32612Y34621I0J-401D01*
G01X32563Y34492D01*
X31790D01*
G03X31508Y34422I0J-603D01*
G03X31102Y34488I-407J-1222D01*
G01X31100D01*
G03Y31912I0J-1288D01*
G03X31929Y32214I0J1289D01*
G02X32586Y31908I257J-306D01*
G01Y31330D01*
G03X32684Y31068I402J1D01*
G01X32733Y30937D01*
X32684Y30806D01*
G03X32603Y30659I304J-263D01*
G01X32448Y30520D01*
G03X32145Y30361I104J-567D01*
G01X31492Y29708D01*
G03X31324Y29300I408J-407D01*
G01Y26463D01*
G03X31493Y26055I577J0D01*
G01X31941Y25608D01*
G03X32348Y25440I407J409D01*
G01X32561D01*
X32606Y25301D01*
G03X32685Y25162I382J125D01*
G01X32733Y25032D01*
X32685Y24901D01*
G03X32586Y24638I303J-264D01*
G01Y23969D01*
G02X31953Y23645I-400J1D01*
G03X31200Y23888I-753J-1045D01*
G03X29933Y22830I0J-1288D01*
G02X29256Y22619I-394J71D01*
G01X26602Y25273D01*
Y37400D01*
G03X26337Y38037I-901J-1D01*
G01X24237Y40137D01*
G03X23600Y40402I-638J-636D01*
G01X19900D01*
G03X19263Y40137I1J-901D01*
G01X19030Y39905D01*
X18805Y40129D01*
X18837Y40243D01*
G03X18888Y40600I-1237J359D01*
G03X18591Y41422I-1288J-1D01*
G02Y41678I154J128D01*
G03X18888Y42500I-991J823D01*
G03X17600Y43788I-1288J0D01*
G03X16691Y43413I0J-1289D01*
G01X16550Y43355D01*
X16409Y43413D01*
G03X15500Y43788I-909J-914D01*
G01X15499D01*
G03X14634Y43454I0J-1288D01*
G01X14500Y43402D01*
X14366Y43454D01*
G03X13501Y43788I-865J-954D01*
G01X13500D01*
G03X12212Y42500I0J-1288D01*
G01Y42499D01*
G03X12546Y41634I1288J0D01*
G01X12598Y41500D01*
X12546Y41366D01*
G03X12212Y40500I954J-865D01*
G03X12266Y40130I1288J-1D01*
G02X11883Y39616I-383J-114D01*
G01X9814D01*
G03X9177Y39351I1J-901D01*
G01X8027Y38202D01*
X4900D01*
G03X4498Y37800I0J-402D01*
G01Y35773D01*
X3184Y34459D01*
G02X2502Y34742I-282J283D01*
G01Y36627D01*
X5523Y39648D01*
X7150D01*
G03X7552Y40050I0J402D01*
G01Y42550D01*
G03X7150Y42952I-402J0D01*
G01X4650D01*
G03X4248Y42550I0J-402D01*
G01Y40923D01*
X963Y37637D01*
G03X698Y37000I636J-638D01*
G01Y30673D01*
X243Y30218D01*
G02X-98Y30359I-141J141D01*
G01Y30366D01*
X-391Y30659D01*
X-322Y30789D01*
G03X-276Y30976I-355J187D01*
G01Y31922D01*
G03X-335Y32132I-401J1D01*
G01X-364Y32236D01*
X-335Y32341D01*
G03X-276Y32552I-342J209D01*
G01Y33496D01*
G03X-335Y33706I-401J1D01*
G02Y33916I171J105D01*
G03X-276Y34126I-342J209D01*
G01Y35070D01*
G03X-677Y35472I-401J1D01*
G01X-3827D01*
G03X-4228Y35070I0J-401D01*
G01Y34126D01*
G03X-4169Y33916I401J-1D01*
G02Y33706I-171J-105D01*
G03X-4228Y33496I342J-209D01*
G01Y33479D01*
G02X-4570Y33338I-200J0D01*
G01X-4634Y33402D01*
X-5865D01*
G02X-6148Y34084I0J400D01*
G01X-6098Y34134D01*
Y35771D01*
X-4930D01*
G03X-4528Y36173I0J402D01*
G01Y39323D01*
G03X-4930Y39725I-402J0D01*
G01X-6098D01*
Y40134D01*
X-5234Y40998D01*
X-3234D01*
X-1998Y42234D01*
Y44766D01*
X-2634Y45402D01*
X-7966D01*
X-8316Y45052D01*
G02X-8991Y45259I-282J283D01*
G01X-9934Y46202D01*
X-13034D01*
X-14498Y47666D01*
Y49166D01*
X-15034Y49702D01*
X-21066D01*
X-22002Y48766D01*
Y43634D01*
X-19652Y41284D01*
G02X-19935Y40602I-283J-282D01*
G01X-20066D01*
X-20150Y40518D01*
X-21234Y41602D01*
X-24266D01*
X-25302Y40566D01*
Y39725D01*
X-26346D01*
G03X-26748Y39323I0J-402D01*
G01Y36173D01*
G03X-26346Y35771I402J0D01*
G01X-25302D01*
Y34434D01*
X-24666Y33798D01*
X-20934D01*
X-20198Y34534D01*
Y35598D01*
X-17434D01*
X-17098Y35934D01*
Y40166D01*
X-17289Y40357D01*
G02X-17148Y40698I141J141D01*
G01X-14066D01*
X-13776Y40408D01*
G02X-14058Y39725I-282J-283D01*
G01X-15322D01*
G03X-15724Y39323I0J-402D01*
G01Y36173D01*
G03X-15322Y35771I402J0D01*
G01X-12439D01*
X-12266Y35598D01*
X-11302D01*
Y33834D01*
X-10766Y33298D01*
X-6818D01*
X-6716Y33052D01*
X-6802Y32966D01*
Y29034D01*
X-6266Y28498D01*
X-4228D01*
Y28246D01*
G02X-4835Y27903I-400J0D01*
G03X-5500Y28088I-665J-1103D01*
G03X-6788Y26800I0J-1288D01*
G03X-6180Y25706I1288J0D01*
G02X-6156Y25043I-211J-340D01*
G03X-6688Y24000I756J-1043D01*
G03X-6182Y22976I1289J0D01*
G02X-6158Y22360I-243J-318D01*
G03X-6588Y21400I857J-960D01*
G03X-5300Y20112I1288J0D01*
G03X-4078Y20992I0J1288D01*
G01X-3888Y21129D01*
X-3868Y21128D01*
G03X-3827Y21126I40J400D01*
G01X-677D01*
G03X-276Y21528I0J401D01*
G01Y22472D01*
G03X-335Y22683I-401J2D01*
G01X-364Y22788D01*
X-335Y22892D01*
G03X-276Y23102I-342J209D01*
G01Y24048D01*
G03X-335Y24258I-401J1D01*
G01X-364Y24362D01*
X-335Y24467D01*
G03X-276Y24678I-342J209D01*
G01Y25822D01*
X124D01*
G03X761Y26087I-1J901D01*
G01X866Y26191D01*
G02X1548Y25908I282J-283D01*
G01Y21916D01*
X-466Y19902D01*
X-4066D01*
X-4402Y19566D01*
Y17363D01*
G02X-4872Y16969I-400J0D01*
G03X-5097Y16989I-226J-1268D01*
G01X-5099D01*
G03Y14413I0J-1288D01*
G03X-4740Y14464I0J1289D01*
G02X-4228Y14080I112J-384D01*
G01Y13654D01*
G03X-4169Y13443I401J-2D01*
G01X-4140Y13338D01*
X-4169Y13234D01*
G03X-4228Y13024I342J-209D01*
G01Y12078D01*
G03X-4169Y11868I401J-1D01*
G01X-4140Y11764D01*
X-4169Y11659D01*
G03X-4228Y11448I342J-209D01*
G01Y10504D01*
G03X-4169Y10294I401J-1D01*
G02Y10084I-171J-105D01*
G03X-4228Y9874I342J-209D01*
G01Y8930D01*
G03X-3827Y8528I401J-1D01*
G01X-2474D01*
X-2452Y8523D01*
G03X-2252Y8500I202J879D01*
G01X925D01*
X4748Y4677D01*
Y3050D01*
G03X5150Y2648I402J0D01*
G01X7650D01*
G03X8052Y3050I0J402D01*
G01Y5550D01*
G03X7650Y5952I-402J0D01*
G01X6023D01*
X2583Y9392D01*
G02X2866Y10074I283J282D01*
G01X4498D01*
Y8800D01*
G03X4900Y8398I402J0D01*
G01X8700D01*
G03X9102Y8800I0J402D01*
G01Y10627D01*
X10373Y11898D01*
X14235D01*
X14267Y11887D01*
G03X14700Y11812I433J1212D01*
G03X15499Y12090I0J1287D01*
G01X15623Y12133D01*
X15782Y12054D01*
G03X15863Y11963I712J552D01*
G01X18563Y9263D01*
G03X19200Y8998I638J636D01*
G01X19548D01*
Y8650D01*
G03X19950Y8248I402J0D01*
G01X22450D01*
G03X22852Y8650I0J402D01*
G01Y8998D01*
X23548D01*
Y8650D01*
G03X23950Y8248I402J0D01*
G01X26450D01*
G03X26852Y8650I0J402D01*
G01Y8998D01*
X27548D01*
Y8650D01*
G03X27950Y8248I402J0D01*
G01X30415D01*
G02X30556Y7907I0J-200D01*
G01X30451Y7802D01*
X18700D01*
G03X18275Y7625I1J-602D01*
G01X13775Y3125D01*
G03X13598Y2700I425J-426D01*
G01Y-3261D01*
G03X12912Y-4400I603J-1139D01*
G03X15488I1288J0D01*
G03X14802Y-3261I-1289J0D01*
G01Y2451D01*
X18949Y6598D01*
X19150D01*
G02X19549Y6174I0J-400D01*
G03X19548Y6150I401J-29D01*
G01Y4099D01*
X17875Y2425D01*
G03X17698Y2000I425J-426D01*
G01Y202D01*
X16800D01*
G03X16398Y-200I0J-402D01*
G01Y-4000D01*
G03X16627Y-4362I401J0D01*
G02X16656Y-4707I-86J-181D01*
G03X16575Y-4775I345J-493D01*
G01X5175Y-16175D01*
G03X4998Y-16600I425J-426D01*
G01Y-17987D01*
G02X4480Y-18369I-400J0D01*
G03X4102Y-18312I-379J-1231D01*
G01X4100D01*
G03X2812Y-19600I0J-1288D01*
G03X3886Y-20870I1288J0D01*
G02X4102Y-21547I-67J-394D01*
G01X3103Y-22547D01*
G03X3033Y-22630I423J-428D01*
G02X2515Y-22755I-329J227D01*
G03X1954Y-22614I-562J-1048D01*
G01X1953D01*
G03X776Y-23632I0J-1189D01*
G01X751Y-23803D01*
X5D01*
X-20Y-23632D01*
G03X-1197Y-22614I-1177J-171D01*
G03X-2223Y-23202I0J-1189D01*
G01X-6539D01*
X-11866Y-17875D01*
G03X-12291Y-17698I-426J-425D01*
G01X-21611D01*
G02X-21893Y-17015I0J400D01*
G03X-21512Y-16100I-908J915D01*
G03X-24088I-1288J0D01*
G03X-23707Y-17015I1289J0D01*
G02X-23989Y-17698I-282J-283D01*
G01X-39100D01*
G03X-39525Y-17875I1J-602D01*
G01X-44240Y-22590D01*
G02X-44920Y-22353I-283J283D01*
G03X-46200Y-21212I-1280J-147D01*
G03X-46918Y-21431I0J-1288D01*
G02X-47463Y-21336I-223J332D01*
G03X-48500Y-20812I-1037J-764D01*
G03Y-23388I0J-1288D01*
G03X-47782Y-23169I0J1288D01*
G02X-47237Y-23264I223J-332D01*
G03X-46347Y-23780I1037J764D01*
G02X-46110Y-24460I-46J-397D01*
G01X-48849Y-27199D01*
G03X-49026Y-27624I425J-426D01*
G01Y-33353D01*
G03X-48849Y-33778I602J1D01*
G01X-48003Y-34624D01*
X-48021Y-34726D01*
G03X-48038Y-34916I1172J-201D01*
G02X-48429Y-35312I-400J4D01*
G03X-48594Y-35327I34J-1288D01*
G02X-48822Y-35100I-30J198D01*
G03X-48809Y-34928I-1176J175D01*
G03X-49843Y-33749I-1189J0D01*
G01X-49911Y-33740D01*
X-50283Y-33368D01*
X-50286Y-33291D01*
G03X-51573Y-32065I-1287J-63D01*
G03X-52861Y-33353I0J-1288D01*
G03X-51635Y-34640I1289J0D01*
G01X-51558Y-34643D01*
X-51186Y-35015D01*
X-51177Y-35083D01*
G03X-50064Y-36115I1179J155D01*
G02X-49686Y-36535I-22J-400D01*
G03X-49688Y-36600I1286J-72D01*
G03X-49026Y-37726I1289J0D01*
G01Y-39745D01*
G02X-49570Y-40118I-400J0D01*
G03X-49843Y-40048I-430J-1109D01*
G01X-49911Y-40039D01*
X-50283Y-39667D01*
X-50286Y-39590D01*
G03X-51573Y-38364I-1287J-63D01*
G03X-52861Y-39652I0J-1288D01*
G03X-51635Y-40939I1289J0D01*
G01X-51558Y-40942D01*
X-51186Y-41314D01*
X-51177Y-41382D01*
G03X-49998Y-42416I1179J155D01*
G03X-49570Y-42336I-1J1189D01*
G02X-49026Y-42709I144J-373D01*
G01Y-42802D01*
G03X-48849Y-43227I602J1D01*
G01X-48003Y-44073D01*
X-48021Y-44175D01*
G03X-48035Y-44291I1172J-200D01*
G02X-48432Y-44663I-399J28D01*
G03X-49712Y-45951I8J-1288D01*
G03X-49709Y-46044I1288J-5D01*
G01X-49702Y-46135D01*
X-49908Y-46341D01*
X-50283Y-45966D01*
X-50286Y-45889D01*
G03X-51573Y-44663I-1287J-63D01*
G03X-52861Y-45951I0J-1288D01*
G03X-51635Y-47238I1289J0D01*
G01X-51558Y-47241D01*
X-51186Y-47613D01*
X-51177Y-47681D01*
G03X-49998Y-48715I1179J155D01*
G03X-48809Y-47526I0J1189D01*
G01Y-47525D01*
G03X-48812Y-47441I-1189J0D01*
G01Y-47427D01*
G02X-48613Y-47227I200J0D01*
G01X-48587Y-47229D01*
G03X-48486Y-47238I165J1278D01*
G01X-48409Y-47241D01*
X-48037Y-47613D01*
X-48028Y-47681D01*
G03X-47958Y-47955I1179J155D01*
G02X-48331Y-48500I-373J-145D01*
G01X-48424D01*
G03X-48849Y-48676I0J-601D01*
G01X-49695Y-49522D01*
X-49797Y-49504D01*
G03X-49997Y-49487I-200J-1172D01*
G01X-49998D01*
G03X-48809Y-50676I0J-1189D01*
G03X-48826Y-50474I-1189J2D01*
G01X-48844Y-50372D01*
X-48175Y-49702D01*
X-48003D01*
G02X-47837Y-50014I0J-200D01*
G03X-48038Y-50675I988J-662D01*
G01Y-50676D01*
G03X-47020Y-51853I1189J0D01*
G01X-46936Y-51865D01*
X-46849Y-51952D01*
Y-55773D01*
X-47020Y-55798D01*
G03Y-58152I171J-1177D01*
G01X-46849Y-58177D01*
Y-62072D01*
X-47020Y-62097D01*
G03Y-64451I171J-1177D01*
G01X-46849Y-64476D01*
Y-71521D01*
X-47020Y-71546D01*
G03Y-73900I171J-1177D01*
G01X-46849Y-73925D01*
Y-74670D01*
X-47020Y-74695D01*
G03X-48037Y-75828I171J-1177D01*
G02X-48452Y-76213I-400J15D01*
G03X-48500Y-76212I-51J-1287D01*
G03Y-78788I0J-1288D01*
G03X-48450Y-78787I-1J1288D01*
G01X-48362Y-78784D01*
X-48037Y-79109D01*
X-48028Y-79177D01*
G03X-46875Y-80211I1179J155D01*
G02X-46485Y-80584I-9J-400D01*
G03X-45200Y-81788I1285J84D01*
G03X-43914Y-80577I0J1288D01*
G02X-43561Y-80203I399J-23D01*
G03X-43497Y-80194I-134J1182D01*
G01X-43395Y-80176D01*
X-41502Y-82070D01*
Y-82861D01*
G03X-42188Y-84000I603J-1139D01*
G03X-39612I1288J0D01*
G03X-40298Y-82861I-1289J0D01*
G01Y-81821D01*
G03X-40321Y-81659I-602J-3D01*
G01X-40352Y-81547D01*
X-40128Y-81323D01*
X-35314Y-86137D01*
G02X-35290Y-86676I-283J-283D01*
G03X-35588Y-87500I990J-824D01*
G03X-34902Y-88639I1289J0D01*
G01Y-90100D01*
G03X-34894Y-90193I602J5D01*
G02X-35066Y-90423I-198J-31D01*
G03X-35326Y-90485I167J-1277D01*
G02X-35847Y-90200I-132J378D01*
G03X-37100Y-89212I-1253J-301D01*
G03X-37189Y-89215I-1J-1288D01*
G02X-37615Y-88789I-27J399D01*
G03X-37612Y-88700I-1285J88D01*
G03X-38900Y-87412I-1288J0D01*
G03X-39753Y-87735I0J-1288D01*
G02X-40039Y-87714I-133J150D01*
G03X-40075Y-87675I-459J-388D01*
G01X-42375Y-85375D01*
G03X-42800Y-85198I-426J-425D01*
G01X-44012D01*
Y-84999D01*
G03X-45300Y-83712I-1288J-1D01*
G03Y-86288I0J-1288D01*
G01X-45298D01*
G03X-44920Y-86231I-1J1288D01*
G03X-44500Y-86402I420J430D01*
G01X-43049D01*
X-41102Y-88349D01*
Y-89700D01*
G03X-40925Y-90125I602J1D01*
G01X-40894Y-90157D01*
G02X-41035Y-90498I-141J-141D01*
G01X-42451D01*
X-43379Y-89570D01*
G02X-43438Y-89429I141J142D01*
G01X-43394Y-89304D01*
G03X-43112Y-88500I-1005J804D01*
G03X-45688I-1288J0D01*
G03X-45678Y-88662I1288J-2D01*
G02X-46081Y-89112I-397J-50D01*
G01X-46100D01*
G03Y-91688I0J-1288D01*
G03X-46054Y-91687I-5J1288D01*
G01X-45967Y-91684D01*
X-44425Y-93225D01*
G03X-44210Y-93364I427J424D01*
G01X-44080Y-93412D01*
Y-93751D01*
X-47263D01*
G02X-47626Y-93184I0J400D01*
G03X-47498Y-92600I-1274J585D01*
G03X-47909Y-91609I-1402J-1D01*
G01X-55134Y-84383D01*
Y-81434D01*
G02X-54596Y-81058I400J1D01*
G03X-54150Y-81138I447J1208D01*
G03X-52862Y-79850I0J1288D01*
G03X-53598Y-78686I-1288J0D01*
G01Y-22273D01*
X-49927Y-18602D01*
X-43900D01*
G03X-43263Y-18337I-1J901D01*
G01X-38827Y-13902D01*
X-18673D01*
X-16637Y-15937D01*
G03X-16000Y-16202I638J636D01*
G01X-1300D01*
G03X-663Y-15937I-1J901D01*
G01X4437Y-10837D01*
G03X4702Y-10200I-636J638D01*
G01Y-6173D01*
X6573Y-4302D01*
X8400D01*
G03X8802Y-3900I0J402D01*
G01Y-100D01*
G03X8400Y302I-402J0D01*
G01X6073D01*
X1437Y4937D01*
G03X800Y5202I-638J-636D01*
G01X-4029D01*
X-4500Y5673D01*
Y6252D01*
G03X-4523Y6450I-901J-4D01*
G01X-4528Y6472D01*
Y7827D01*
G03X-4930Y8229I-402J0D01*
G01X-6361D01*
X-6534Y8402D01*
X-7466D01*
X-7639Y8229D01*
X-10598D01*
G03X-11000Y7827I0J-402D01*
G01Y4677D01*
G03X-10598Y4275I402J0D01*
G01X-9452D01*
Y2100D01*
G02X-9871Y1701I-400J1D01*
G03X-9900Y1702I-35J-601D01*
G01X-11951D01*
X-12674Y2425D01*
Y4281D01*
X-12584Y4340D01*
G03X-12402Y4677I-221J337D01*
G01Y7827D01*
G03X-12804Y8229I-402J0D01*
G01X-15322D01*
G03X-15724Y7827I0J-402D01*
G01Y4677D01*
G03X-15542Y4340I402J-1D01*
G01X-15452Y4281D01*
Y2202D01*
G02X-15793Y2061I-200J0D01*
G01X-15934Y2202D01*
X-17634D01*
X-18698Y3266D01*
Y7966D01*
X-18745Y8013D01*
X-18758Y8034D01*
G03X-18895Y8171I-344J-207D01*
G01X-18916Y8184D01*
X-19134Y8402D01*
X-21666D01*
X-21839Y8229D01*
X-21961D01*
X-22034Y8302D01*
X-23366D01*
X-23439Y8229D01*
X-31070D01*
G03X-31472Y7827I0J-402D01*
G01Y6472D01*
X-31477Y6450D01*
G03X-31500Y6252I878J-202D01*
G01Y5175D01*
X-31885Y4790D01*
X-31962Y4787D01*
G03X-33188Y3500I63J-1287D01*
G03X-33104Y3043I1288J1D01*
G02X-33478Y2502I-374J-141D01*
G01X-34500D01*
G03X-35137Y2237I1J-901D01*
G01X-37073Y302D01*
X-38600D01*
G03X-39002Y-100I0J-402D01*
G01Y-3900D01*
G03X-38600Y-4302I402J0D01*
G01X-36473D01*
X-35496Y-5278D01*
X-35481Y-5313D01*
G03X-34300Y-6088I1181J512D01*
G03X-33012Y-4800I0J1288D01*
G03X-33014Y-4725I-1288J3D01*
G02X-32607Y-4301I399J24D01*
G03X-32600Y-4302I60J393D01*
G01X-29600D01*
G03X-29462Y-4277I-2J402D01*
G02X-29220Y-4564I68J-188D01*
G03X-29388Y-5200I1120J-636D01*
G03X-28100Y-6488I1288J0D01*
G03X-26814Y-5277I0J1288D01*
G02X-26415Y-4902I399J-25D01*
G01X-23234D01*
X-22443Y-4111D01*
G02X-22102Y-4252I141J-141D01*
G01Y-4266D01*
X-21566Y-4802D01*
X-14722D01*
G02X-14102Y-5135I220J-333D01*
G01Y-5500D01*
G03X-13925Y-5925I602J1D01*
G01X-13109Y-6741D01*
X-13766Y-7398D01*
X-21266D01*
X-21902Y-8034D01*
Y-12098D01*
X-39200D01*
G03X-39837Y-12363I1J-901D01*
G01X-40139Y-12664D01*
X-40355Y-12447D01*
X-40335Y-12343D01*
G03X-40312Y-12101I-1265J242D01*
G01Y-12100D01*
G03X-40655Y-11225I-1288J0D01*
G02X-40441Y-10562I294J271D01*
G03X-39412Y-9300I-259J1262D01*
G01Y-9299D01*
G03X-39631Y-8581I-1288J-1D01*
G01X-39665Y-8470D01*
X-39604Y-8326D01*
G03X-39212Y-7400I-896J925D01*
G03X-39546Y-6534I-1288J1D01*
G01X-39598Y-6400D01*
X-39533Y-6252D01*
G03X-39112Y-5300I-866J952D01*
G03X-41688I-1288J0D01*
G01Y-5301D01*
G03X-41354Y-6166I1288J0D01*
G01X-41302Y-6300D01*
X-41367Y-6448D01*
G03X-41788Y-7400I866J-952D01*
G01Y-7401D01*
G03X-41569Y-8119I1288J1D01*
G01X-41535Y-8230D01*
X-41596Y-8374D01*
G03X-41988Y-9299I896J-925D01*
G01Y-9300D01*
G03X-41645Y-10175I1288J0D01*
G02X-41859Y-10838I-294J-271D01*
G03X-42005Y-10877I259J-1262D01*
G02X-42489Y-10673I-125J380D01*
G03X-42850Y-10448I-361J-177D01*
G01X-45350D01*
G03X-45752Y-10850I0J-402D01*
G01Y-13350D01*
G03X-45350Y-13752I402J0D01*
G01X-42850D01*
G03X-42489Y-13527I0J402D01*
G02X-42005Y-13323I359J-176D01*
G03X-41764Y-13378I406J1223D01*
G02X-41532Y-14057I-51J-397D01*
G01X-44273Y-16798D01*
X-50300D01*
G03X-50937Y-17063I1J-901D01*
G01X-54452Y-20577D01*
G02X-55134Y-20294I-282J283D01*
G01Y-19017D01*
X-54509Y-18391D01*
G03X-54098Y-17400I-991J992D01*
G03X-55500Y-15998I-1402J0D01*
G03X-56491Y-16409I1J-1402D01*
G01X-57527Y-17445D01*
G03X-57938Y-18436I991J-992D01*
G01Y-84964D01*
G03X-57527Y-85955I1402J1D01*
G01X-50414Y-93068D01*
G02X-50696Y-93751I-283J-283D01*
G01X-57087D01*
G02X-58554Y-92284I0J1467D01*
G01Y-2218D01*
G02X-57807Y-2020I400J0D01*
G03X-55400Y-3418I2407J1373D01*
G03Y2122I0J2770D01*
G03X-57807Y724I0J-2771D01*
G02X-58554Y922I-347J198D01*
G01Y29278D01*
G02X-57807Y29476I400J0D01*
G03X-55400Y28078I2407J1373D01*
G03X-53738Y33064I0J2770D01*
G02X-53823Y33617I240J320D01*
G03X-53748Y33850I-324J233D01*
G01Y34498D01*
X-53239D01*
G03X-52100Y33812I1139J603D01*
G01X-52099D01*
G03X-51734Y33865I-1J1288D01*
G01X-51620Y33899D01*
X-51394Y33673D01*
X-51602Y33466D01*
Y22518D01*
G02X-52284Y22235I-400J0D01*
G01X-53648Y23599D01*
Y26150D01*
G03X-54050Y26552I-402J0D01*
G01X-56550D01*
G03X-56952Y26150I0J-402D01*
G01Y23650D01*
G03X-56550Y23248I402J0D01*
G01X-54999D01*
X-53013Y21262D01*
G02X-53155Y20605I-283J-283D01*
G03X-53324Y20527I454J-1205D01*
G01X-53370Y20502D01*
X-53648D01*
Y21150D01*
G03X-54050Y21552I-402J0D01*
G01X-56550D01*
G03X-56952Y21150I0J-402D01*
G01Y18650D01*
G03X-56550Y18248I402J0D01*
G01X-55902D01*
Y17552D01*
X-56550D01*
G03X-56952Y17150I0J-402D01*
G01Y14650D01*
G03X-56550Y14248I402J0D01*
G01X-54050D01*
G03X-53648Y14650I0J402D01*
G01Y17150D01*
G03X-54050Y17552I-402J0D01*
G01X-54698D01*
Y18248D01*
X-54050D01*
G03X-53763Y18370I-1J401D01*
G02X-53496Y18387I143J-140D01*
G03X-52701Y18112I796J1013D01*
G01X-52700D01*
G03X-51412Y19400I0J1288D01*
G03X-51414Y19475I-1288J3D01*
G02X-51015Y19898I399J23D01*
G01X-46149D01*
X-45609Y19359D01*
X-45702Y19266D01*
Y16234D01*
X-45166Y15698D01*
X-41635D01*
G02X-41352Y15016I0J-400D01*
G01X-41966Y14402D01*
X-45166D01*
X-46002Y13566D01*
Y10234D01*
X-45166Y9398D01*
X-43635D01*
G02X-43352Y8716I0J-400D01*
G01X-44002Y8066D01*
Y1934D01*
X-43266Y1198D01*
X-38534D01*
X-36198Y3534D01*
Y12134D01*
X-35134Y13198D01*
X-32034D01*
X-31598Y13634D01*
Y14666D01*
X-31882Y14950D01*
X-31598Y15234D01*
Y15656D01*
G02X-31086Y16040I400J0D01*
G03X-30724Y15988I362J1236D01*
G03Y18564I0J1288D01*
G03X-31218Y18465I1J-1288D01*
G02X-31772Y18834I-154J370D01*
G01Y18877D01*
G02X-31212Y19243I400J-1D01*
G03X-30701Y19137I512J1182D01*
G01X-30700D01*
G03Y21713I0J1288D01*
G01X-30702D01*
G03X-31080Y21656I1J-1288D01*
G02X-31598Y22038I-118J382D01*
G01Y22466D01*
X-31882Y22750D01*
X-31698Y22934D01*
Y25866D01*
X-32034Y26202D01*
X-36634D01*
X-37447Y27015D01*
G02X-37164Y27698I283J283D01*
G01X-35718D01*
X-35659Y27607D01*
G03X-35323Y27425I336J219D01*
G01X-32173D01*
G03X-31772Y27826I0J401D01*
G01Y28772D01*
G03X-31831Y28982I-401J1D01*
G01X-31860Y29086D01*
X-31831Y29191D01*
G03X-31772Y29402I-342J209D01*
G01Y30346D01*
G03X-31831Y30557I-401J2D01*
G01X-31860Y30662D01*
X-31831Y30766D01*
G03X-31772Y30976I-342J209D01*
G01Y31922D01*
G03X-31831Y32132I-401J1D01*
G01X-31860Y32236D01*
X-31831Y32341D01*
G03X-31772Y32552I-342J209D01*
G01Y33496D01*
G03X-31831Y33706I-401J1D01*
G02Y33916I171J105D01*
G03X-31772Y34126I-342J209D01*
G01Y35070D01*
G03X-32173Y35472I-401J1D01*
G01X-33526D01*
X-33548Y35477D01*
G03X-33748Y35500I-202J-879D01*
G01X-34625D01*
X-35110Y35985D01*
X-35113Y36062D01*
G03X-36400Y37288I-1287J-63D01*
G03X-37688Y36000I0J-1288D01*
G03X-36462Y34713I1289J0D01*
G01X-36385Y34710D01*
X-35719Y34044D01*
X-35704Y33999D01*
G03X-35665Y33916I380J128D01*
G02Y33706I-171J-105D01*
G03X-35724Y33496I342J-209D01*
G01Y32552D01*
G03X-35665Y32341I401J-2D01*
G01X-35636Y32236D01*
X-35665Y32132D01*
G03X-35724Y31923I342J-209D01*
G01Y30776D01*
X-36701D01*
X-37698Y31773D01*
Y33500D01*
G03X-37963Y34137I-901J-1D01*
G01X-39314Y35489D01*
X-39312Y35574D01*
Y35600D01*
G03X-40512Y36885I-1288J0D01*
G01X-40698Y37084D01*
Y39400D01*
G03X-41100Y39802I-402J0D01*
G01X-44900D01*
G03X-45302Y39400I0J-402D01*
G01Y36400D01*
G03X-44900Y35998I402J0D01*
G01X-42373D01*
X-41887Y35512D01*
X-41878Y35444D01*
G03X-40756Y34322I1278J156D01*
G01X-40688Y34313D01*
X-39502Y33127D01*
Y31400D01*
G03X-39237Y30763I901J1D01*
G01X-39059Y30584D01*
G02X-39342Y29902I-283J-282D01*
G01X-46051D01*
X-46898Y30749D01*
Y33400D01*
G03X-47300Y33802I-402J0D01*
G01X-47434D01*
X-47534Y33902D01*
X-50613D01*
G02X-50965Y34491I0J400D01*
G03X-50812Y35100I-1136J609D01*
G03X-52100Y36388I-1288J0D01*
G03X-53239Y35702I0J-1289D01*
G01X-53748D01*
Y36350D01*
G03X-54150Y36752I-402J0D01*
G01X-56650D01*
G03X-57052Y36350I0J-402D01*
G01Y33850D01*
G03X-56977Y33617I399J0D01*
G02X-57062Y33064I-325J-233D01*
G03X-57807Y32220I1661J-2217D01*
G02X-58554Y32418I-347J198D01*
G01Y53386D01*
G02X-57087Y54853I1467J0D01*
G01X57087D01*
G02X58554Y53386I0J-1467D01*
G01Y-76982D01*
G02X57904Y-77294I-400J0D01*
G03X57100Y-77012I-804J-1005D01*
G01X57099D01*
G03X56823Y-77042I0J-1288D01*
G01X56716Y-77066D01*
X56625Y-76975D01*
G03X56200Y-76798I-426J-425D01*
G01X54749D01*
X54502Y-76551D01*
Y-66472D01*
G02X55075Y-66112I400J0D01*
G03X55250Y-66152I175J363D01*
G01X57750D01*
G03X58152Y-65750I0J402D01*
G01Y-63250D01*
G03X57750Y-62848I-402J0D01*
G01X57152D01*
Y-62152D01*
X57750D01*
G03X58152Y-61750I0J402D01*
G01Y-59250D01*
G03X57750Y-58848I-402J0D01*
G01X55770D01*
X52064Y-55143D01*
G02X52146Y-54514I283J283D01*
G03X52788Y-53400I-646J1114D01*
G03X51500Y-52112I-1288J0D01*
G01X51499D01*
G03X51223Y-52142I0J-1288D01*
G01X51116Y-52166D01*
X50675Y-51725D01*
G03X50250Y-51548I-426J-425D01*
G01X50223D01*
G03X49368Y-50973I-1026J-602D01*
G01X49197Y-50948D01*
Y-50202D01*
X49368Y-50177D01*
G03X50223Y-49602I-171J1177D01*
G01X50600D01*
G03X51025Y-49425I-1J602D01*
G01X51337Y-49113D01*
X51464Y-49171D01*
G03X52000Y-49288I536J1171D01*
G03Y-46712I0J1288D01*
G03X50713Y-47960I0J-1288D01*
G01X50710Y-48039D01*
X50597Y-48153D01*
G02X50033Y-48154I-283J283D01*
G03X49368Y-47823I-836J-846D01*
G01X49197Y-47798D01*
Y-47052D01*
X49368Y-47027D01*
G03X50335Y-46194I-171J1177D01*
G01X50378Y-46052D01*
X53130D01*
X54039Y-46961D01*
G03X54500Y-47152I461J461D01*
G01X54848D01*
Y-47750D01*
G03X55250Y-48152I402J0D01*
G01X57750D01*
G03X58152Y-47750I0J402D01*
G01Y-45250D01*
G03X57750Y-44848I-402J0D01*
G01X57152D01*
Y-44152D01*
X57750D01*
G03X58152Y-43750I0J402D01*
G01Y-41250D01*
G03X57750Y-40848I-402J0D01*
G01X55250D01*
G03X54848Y-41250I0J-402D01*
G01Y-43750D01*
G03X55250Y-44152I402J0D01*
G01X55848D01*
Y-44848D01*
X55250D01*
G03X54848Y-45250I0J-402D01*
G01Y-45445D01*
G02X54507Y-45586I-200J1D01*
G01X53861Y-44939D01*
G03X53400Y-44748I-461J-461D01*
G01X50968D01*
G02X50685Y-44066I0J400D01*
G01X50902Y-43848D01*
X51024Y-43897D01*
G03X51499Y-43988I476J1197D01*
G01X51500D01*
G03X52788Y-42700I0J1288D01*
G01Y-42699D01*
G03X52443Y-41822I-1288J0D01*
G02Y-41278I293J272D01*
G03X52788Y-40401I-943J877D01*
G01Y-40400D01*
G03X51500Y-39112I-1288J0D01*
G01X51499D01*
G03X50860Y-39282I1J-1288D01*
G02X50293Y-39090I-198J347D01*
G03X49368Y-38374I-1096J-461D01*
G01X49197Y-38349D01*
Y-37604D01*
X49368Y-37579D01*
G03X50383Y-36487I-171J1177D01*
G02X50780Y-36115I399J-28D01*
G03X52060Y-34827I-8J1288D01*
G03X51658Y-33892I-1288J0D01*
G02X51933Y-33202I275J290D01*
G01X53598D01*
Y-34500D01*
G03X54000Y-34902I402J0D01*
G01X57000D01*
G03X57402Y-34500I0J402D01*
G01Y-30700D01*
G03X57000Y-30298I-402J0D01*
G01X54000D01*
G03X53598Y-30700I0J-402D01*
G01Y-31998D01*
X49849D01*
G03X49508Y-32104I0J-601D01*
G03X49368Y-32075I-311J-1148D01*
G01X49197Y-32050D01*
Y-31304D01*
X49368Y-31279D01*
G03X50383Y-30187I-171J1177D01*
G02X50780Y-29816I399J-29D01*
G03Y-27240I-8J1288D01*
G02X50383Y-26868I2J400D01*
G03X50073Y-26149I-1186J-85D01*
G01X49943Y-26008D01*
X51125Y-24825D01*
G03X51302Y-24400I-425J426D01*
G01Y-21449D01*
X52925Y-19825D01*
G03X53102Y-19400I-425J426D01*
G01Y-18239D01*
G03X53788Y-17100I-603J1139D01*
G03X52642Y-15820I-1288J0D01*
G02X52287Y-15441I44J397D01*
G02X52487Y-15231I200J10D01*
G01X52526Y-15235D01*
G03X53000Y-15283I475J2329D01*
G03X54882Y-14358I0J2377D01*
G02X55598Y-14602I316J-245D01*
G01Y-14848D01*
X55250D01*
G03X54848Y-15250I0J-402D01*
G01Y-17750D01*
G03X55250Y-18152I402J0D01*
G01X57750D01*
G03X58152Y-17750I0J402D01*
G01Y-15250D01*
G03X57750Y-14848I-402J0D01*
G01X57402D01*
Y-11800D01*
G03X57137Y-11163I-901J-1D01*
G01X54590Y-8615D01*
X54587Y-8538D01*
G03X53300Y-7312I-1287J-63D01*
G03X52012Y-8600I0J-1288D01*
G03X53238Y-9887I1289J0D01*
G01X53315Y-9890D01*
X53808Y-10383D01*
X53590Y-10601D01*
X53485Y-10579D01*
G03X53000Y-10529I-485J-2327D01*
G03X50638Y-12642I0J-2377D01*
G02X50017Y-12930I-398J44D01*
G03X49300Y-12712I-717J-1070D01*
G03X48012Y-14000I0J-1288D01*
G03X48028Y-14204I1288J-2D01*
G01X48044Y-14305D01*
X47251Y-15098D01*
X40252D01*
Y-14498D01*
X40418Y-14469D01*
G03X41487Y-13240I-218J1269D01*
G01X41490Y-13161D01*
X44049Y-10602D01*
X46200D01*
G03X46602Y-10200I0J402D01*
G01Y-6400D01*
G03X46200Y-5998I-402J0D01*
G01X43200D01*
G03X42798Y-6400I0J-402D01*
G01Y-10151D01*
X40863Y-12087D01*
X40736Y-12029D01*
G03X40629Y-11986I-533J-1172D01*
G02X40597Y-11623I67J189D01*
G03X40725Y-11525I-298J522D01*
G01X41825Y-10425D01*
G03X42002Y-10000I-425J426D01*
G01Y-6049D01*
X43649Y-4402D01*
X46200D01*
G03X46602Y-4000I0J402D01*
G01Y-200D01*
G03X46200Y202I-402J0D01*
G01X43200D01*
G03X42798Y-200I0J-402D01*
G01Y-3551D01*
X40975Y-5375D01*
G03X40798Y-5800I425J-426D01*
G01Y-6149D01*
X40523D01*
X40466Y-6099D01*
G03X40200Y-5998I-266J-300D01*
G01X37200D01*
G03X36798Y-6400I0J-402D01*
G01Y-7422D01*
G02X36257Y-7796I-400J0D01*
G03X35800Y-7712I-458J-1204D01*
G03X35191Y-7865I0J-1289D01*
G02X34602Y-7513I-189J352D01*
G01Y-5987D01*
G02X35191Y-5635I400J0D01*
G03X35800Y-5788I609J1136D01*
G03X37085Y-4588I0J1288D01*
G01X37098Y-4402D01*
X40200D01*
G03X40602Y-4000I0J402D01*
G01Y-200D01*
G03X40200Y202I-402J0D01*
G01X37200D01*
G03X36798Y-200I0J-402D01*
G01Y-1498D01*
X35900D01*
G03X35475Y-1675I1J-602D01*
G01X33575Y-3575D01*
G03X33398Y-4000I425J-426D01*
G01Y-10090D01*
G03X33112Y-10899I1002J-809D01*
G01Y-10900D01*
G03X34400Y-12188I1288J0D01*
G01X34401D01*
G03X34776Y-12132I-1J1288D01*
G02X35273Y-12393I116J-383D01*
G03X36500Y-13288I1227J394D01*
G03X37786Y-12077I0J1288D01*
G02X38185Y-11702I399J-25D01*
G01X38919D01*
G02X39222Y-12362I-1J-400D01*
G03X38912Y-13200I978J-838D01*
G01Y-13202D01*
G03X38958Y-13542I1288J1D01*
G02X38573Y-14048I-385J-106D01*
G01X37350D01*
G03X36948Y-14450I0J-402D01*
G01Y-16950D01*
G03X37153Y-17300I401J0D01*
G01X37254Y-17474D01*
G02X37250Y-17513I-200J1D01*
G03X37260Y-17625I196J-39D01*
G01X37274Y-17661D01*
Y-17898D01*
X36739D01*
G03X35600Y-17212I-1139J-603D01*
G03X34320Y-18353I0J-1288D01*
G02X33640Y-18590I-397J46D01*
G01X33278Y-18227D01*
X33267Y-18166D01*
G03X32000Y-17112I-1267J-235D01*
G03Y-19688I0J-1288D01*
G03X32650Y-19512I0J1288D01*
G01X32783Y-19434D01*
X33775Y-20425D01*
G03X34200Y-20602I426J425D01*
G01X34497D01*
G02X34697Y-20802I0J-200D01*
G01X34645Y-20936D01*
G03X34312Y-21800I954J-864D01*
G03X34604Y-22617I1289J0D01*
G03X34598Y-22700I596J-85D01*
G01Y-22989D01*
X34319D01*
X34262Y-22935D01*
G03X33449Y-22614I-813J-869D01*
G03X32272Y-23632I0J-1189D01*
G01X32247Y-23803D01*
X31501D01*
X31476Y-23632D01*
G03X30299Y-22614I-1177J-171D01*
G03X29870Y-22694I0J-1190D01*
G02X29326Y-22321I-144J373D01*
G01Y-21555D01*
G03X29825Y-20537I-789J1018D01*
G37*
G36*
G01X-49486Y33500D02*
X-47700D01*
X-47300Y33100D01*
Y30200D01*
X-47600Y29900D01*
Y28800D01*
X-47000Y28200D01*
Y21900D01*
X-47200Y21700D01*
X-51000D01*
X-51200Y21900D01*
Y33300D01*
X-51000Y33500D01*
X-50348D01*
X-50318Y33490D01*
G03X-49516I401J1224D01*
G01X-49486Y33500D01*
G37*
G36*
G01X-36332Y14600D02*
X-32100D01*
X-32000Y14500D01*
Y13800D01*
X-32200Y13600D01*
X-35300D01*
X-35535Y13365D01*
X-35550Y13354D01*
G03X-35654Y13251I226J-332D01*
G01X-35664Y13236D01*
X-36600Y12300D01*
Y3700D01*
X-38700Y1600D01*
X-43100D01*
X-43600Y2100D01*
Y7900D01*
X-42500Y9000D01*
X-42000D01*
X-41602Y9398D01*
X-41534D01*
X-36332Y14600D01*
G37*
G36*
G01X-32000Y15400D02*
X-32200Y15200D01*
X-36300D01*
X-41700Y9800D01*
X-45000D01*
X-45600Y10400D01*
Y13400D01*
X-45000Y14000D01*
X-41800D01*
X-39650Y16150D01*
X-37250D01*
X-37200Y16200D01*
X-32100D01*
X-32000Y16100D01*
Y15400D01*
G37*
G36*
G01X-37101Y22498D02*
X-32198D01*
X-32000Y22300D01*
Y21600D01*
X-32200Y21400D01*
X-35800D01*
X-37310Y19890D01*
G03X-37590Y19610I760J-1040D01*
G01X-41100Y16100D01*
X-45000D01*
X-45300Y16400D01*
Y19100D01*
X-44900Y19500D01*
X-40100D01*
X-37101Y22498D01*
G37*
G36*
G01X-43700Y27700D02*
X-43200Y28200D01*
X-39200D01*
X-36800Y25800D01*
X-32200D01*
X-32100Y25700D01*
Y23100D01*
X-32300Y22900D01*
X-37600D01*
X-39000Y21500D01*
X-43200D01*
X-43700Y22000D01*
Y27700D01*
G37*
G36*
G01X-1277Y-89551D02*
Y-89552D01*
G03X-1191Y-89800I400J0D01*
G02X-996Y-90143I-1009J-800D01*
G02X-1320Y-90360I-187J-71D01*
G03X-2200Y-90012I-880J-939D01*
G03X-3488Y-91300I0J-1288D01*
G03X-3177Y-92139I1287J0D01*
G02Y-92661I-303J-261D01*
G03X-3488Y-93500I976J-839D01*
G03X-2802Y-94639I1289J0D01*
G01Y-95200D01*
G03X-2625Y-95625I602J1D01*
G01X-2375Y-95876D01*
G02X-2516Y-96218I-141J-142D01*
G01X-4235D01*
G02X-4535Y-95553I0J400D01*
G03X-4212Y-94700I-965J853D01*
G03X-6788I-1288J0D01*
G03X-6465Y-95553I1288J0D01*
G02X-6765Y-96218I-300J-265D01*
G01X-7898D01*
Y-95339D01*
G03X-7212Y-94200I-603J1139D01*
G03X-8500Y-92912I-1288J0D01*
G03X-8575Y-92914I-3J-1288D01*
G02X-8998Y-92515I-23J399D01*
G01Y-91300D01*
G03X-9175Y-90875I-602J-1D01*
G01X-10066Y-89984D01*
X-10042Y-89877D01*
G03X-10012Y-89600I-1258J276D01*
G03X-12588I-1288J0D01*
G03X-11729Y-90814I1287J0D01*
G02X-12471Y-90914I-390J90D01*
G03X-12575Y-90775I-528J-287D01*
G01X-13266Y-90084D01*
X-13242Y-89977D01*
G03X-13212Y-89700I-1258J276D01*
G03X-15788I-1288J0D01*
G03X-15477Y-90539I1287J0D01*
G02Y-91061I-303J-261D01*
G03Y-92739I976J-839D01*
G02Y-93261I-303J-261D01*
G03X-15788Y-94100I976J-839D01*
G03X-15102Y-95239I1289J0D01*
G01Y-96218D01*
X-16032D01*
X-17075Y-95175D01*
G03X-17172Y-95096I-426J-424D01*
G02X-17230Y-94817I108J168D01*
G03X-17012Y-94100I-1070J717D01*
G03X-17323Y-93261I-1287J0D01*
G02Y-92739I303J261D01*
G03Y-91061I-976J839D01*
G02Y-90539I303J261D01*
G03X-17012Y-89700I-976J839D01*
G03X-19588I-1288J0D01*
G03X-19277Y-90539I1287J0D01*
G02Y-91061I-303J-261D01*
G03X-19588Y-91900I976J-839D01*
G03X-19167Y-92852I1287J0D01*
G02Y-93148I-135J-148D01*
G03X-19256Y-93237I865J-954D01*
G02X-19578Y-93202I-148J134D01*
G03X-19675Y-93075I-522J-298D01*
G01X-20666Y-92084D01*
X-20642Y-91977D01*
G03X-20612Y-91700I-1258J276D01*
G03X-20923Y-90861I-1287J0D01*
G02Y-90339I303J261D01*
G03X-20612Y-89500I-976J839D01*
G03X-21900Y-88212I-1288J0D01*
G03X-23188Y-89482I0J-1288D01*
G01X-23189Y-89563D01*
X-23388Y-89762D01*
X-23666Y-89484D01*
X-23642Y-89377D01*
G03X-23612Y-89100I-1258J276D01*
G03X-24900Y-87812I-1288J0D01*
G03X-26105Y-88645I0J-1288D01*
G01X-26120Y-88685D01*
X-26292Y-88857D01*
X-26666Y-88484D01*
X-26642Y-88377D01*
G03X-26612Y-88100I-1258J276D01*
G03X-26922Y-87262I-1288J0D01*
G02X-26618Y-86602I304J260D01*
G01X-20500D01*
G03X-20075Y-86425I-1J602D01*
G01X-16111Y-82462D01*
G02X-15443Y-82639I283J-283D01*
G03X-14200Y-83588I1243J340D01*
G03X-13061Y-82902I0J1289D01*
G01X-7500D01*
G03X-7075Y-82725I-1J602D01*
G01X-4151Y-79802D01*
X1100D01*
G03X1525Y-79625I-1J602D01*
G01X5527Y-75623D01*
G03X5703Y-75223I-425J426D01*
G03X6279Y-74368I-601J1026D01*
G01X6304Y-74197D01*
X7050D01*
X7075Y-74368D01*
G03X7600Y-75192I1177J171D01*
G01Y-83691D01*
X6103Y-85189D01*
X2686D01*
G03X2284Y-85590I0J-401D01*
G01Y-86848D01*
X652D01*
Y-86250D01*
G03X250Y-85848I-402J0D01*
G01X-2250D01*
G03X-2652Y-86250I0J-402D01*
G01Y-88750D01*
G03X-2250Y-89152I402J0D01*
G01X-1677D01*
G02X-1277Y-89551I0J-400D01*
G37*
G36*
G01X-23300Y7800D02*
X-23200Y7900D01*
X-22200D01*
X-22100Y7800D01*
Y-3200D01*
X-23400Y-4500D01*
X-26800D01*
X-27100Y-4200D01*
Y0D01*
X-26600Y500D01*
X-25200D01*
X-23300Y2400D01*
Y7800D01*
G37*
G36*
G01X-12400Y-6600D02*
X-11000D01*
X-7900Y-9700D01*
Y-13600D01*
X-8600Y-14300D01*
X-15725D01*
X-17663Y-12363D01*
G03X-18300Y-12098I-638J-636D01*
G01X-21500D01*
Y-8200D01*
X-21100Y-7800D01*
X-13600D01*
X-12400Y-6600D01*
G37*
G36*
G01X-21500Y8000D02*
X-19300D01*
X-19100Y7800D01*
Y3350D01*
G02X-19599Y2962I-400J0D01*
G03X-19917Y3002I-318J-1248D01*
G03Y426I0J-1288D01*
G03X-18630Y1676I0J1288D01*
G02X-17947Y1947I400J-12D01*
G01X-17800Y1800D01*
X-16100D01*
X-14400Y100D01*
Y-3900D01*
X-14900Y-4400D01*
X-21400D01*
X-21700Y-4100D01*
Y-3368D01*
X-21698Y-3366D01*
Y7801D01*
X-21500Y8000D01*
G37*
G36*
G01X-24100Y41200D02*
X-21400D01*
X-20600Y40400D01*
Y34700D01*
X-21100Y34200D01*
X-24500D01*
X-24671Y34371D01*
X-24651Y34475D01*
G03X-24629Y34714I-1266J237D01*
G03X-24900Y35504I-1287J0D01*
G01Y40400D01*
X-24100Y41200D01*
G37*
G36*
G01X-20000Y36000D02*
X-20100Y36100D01*
Y40000D01*
X-19900Y40200D01*
X-17700D01*
X-17500Y40000D01*
Y36100D01*
X-17600Y36000D01*
X-20000D01*
G37*
G36*
G01X-20900Y49300D02*
X-15200D01*
X-14900Y49000D01*
Y47500D01*
X-13200Y45800D01*
X-10100D01*
X-9400Y45100D01*
Y41979D01*
G02X-10065Y41680I-400J1D01*
G03X-10917Y42002I-852J-966D01*
G03Y39426I0J-1288D01*
G03X-9777Y40115I0J1288D01*
G01X-9721Y40221D01*
X-9400D01*
Y39465D01*
X-9408Y39438D01*
G03X-9425Y39323I384J-116D01*
G01Y36175D01*
X-9600Y36000D01*
X-12100D01*
X-12300Y36200D01*
Y39500D01*
X-13900Y41100D01*
X-18900D01*
X-21600Y43800D01*
Y48600D01*
X-20900Y49300D01*
G37*
G36*
G01X-5941Y998D02*
X-2766D01*
X-1502Y-266D01*
Y-3866D01*
X-766Y-4602D01*
X2566D01*
X3202Y-3966D01*
Y-342D01*
G02X3884Y-59I400J0D01*
G01X4998Y-1173D01*
Y-3327D01*
X3163Y-5163D01*
G03X2898Y-5800I636J-638D01*
G01Y-9827D01*
X-1673Y-14398D01*
X-7165D01*
G02X-7498Y-13778I0J400D01*
G01Y-9534D01*
X-9198Y-7834D01*
Y-7503D01*
G02X-8864Y-7355I200J0D01*
G03X-8000Y-7688I864J954D01*
G03X-6712Y-6400I0J1288D01*
G03X-6850Y-5820I-1288J0D01*
G01X-6915Y-5690D01*
X-5527Y-4302D01*
X-3600D01*
G03X-3198Y-3900I0J402D01*
G01Y-100D01*
G03X-3600Y302I-402J0D01*
G01X-5727D01*
X-6082Y657D01*
G02X-5941Y998I141J141D01*
G37*
G36*
G01X-12898Y400D02*
G03X-12901Y456I-602J-4D01*
G02X-12577Y631I199J19D01*
G03X-12200Y498I377J468D01*
G01X-10149D01*
X-9021Y-630D01*
G02X-9006Y-896I-141J-141D01*
G03X-9288Y-1700I1005J-804D01*
G03X-8000Y-2988I1288J0D01*
G03X-7309Y-2787I0J1288D01*
G02X-7002Y-2956I107J-169D01*
G01Y-3227D01*
X-8637Y-4863D01*
G03X-8901Y-5480I637J-638D01*
G03X-9161Y-5843I901J-920D01*
G02X-9428Y-5937I-180J86D01*
G03X-9600Y-5898I-173J-363D01*
G01X-12251D01*
X-12898Y-5251D01*
Y400D01*
G37*
G36*
G01X-6200Y1400D02*
X-7600Y2800D01*
Y7700D01*
X-7300Y8000D01*
X-6700D01*
X-6500Y7800D01*
Y3400D01*
X-6000Y2900D01*
X400D01*
X2800Y500D01*
Y-3800D01*
X2400Y-4200D01*
X-600D01*
X-1100Y-3700D01*
Y-100D01*
X-2600Y1400D01*
X-6200D01*
G37*
G36*
G01X-7800Y45000D02*
X-2800D01*
X-2400Y44600D01*
Y42400D01*
X-3400Y41400D01*
X-5400D01*
X-6500Y40300D01*
Y34300D01*
X-7100Y33700D01*
X-10600D01*
X-10900Y34000D01*
Y35200D01*
X-10502Y35598D01*
X-9434D01*
X-9432Y35600D01*
X-9400D01*
X-9000Y36000D01*
Y36032D01*
X-8998Y36034D01*
Y43802D01*
X-7800Y45000D01*
G37*
G36*
G01X4949Y17998D02*
X10051D01*
X10698Y17351D01*
Y14800D01*
G03X11100Y14398I402J0D01*
G01X11534D01*
X11889Y14043D01*
G02X11748Y13702I-141J-141D01*
G01X10000D01*
G03X9363Y13437I1J-901D01*
G01X8127Y12202D01*
X4900D01*
G03X4544Y11985I1J-402D01*
G01X4488Y11878D01*
X-276D01*
Y12078D01*
Y13024D01*
G03X-335Y13234I-401J1D01*
G02Y13443I170J104D01*
G03X-276Y13654I-342J209D01*
G01Y13874D01*
X-151Y13998D01*
X1300D01*
G03X1725Y14175I-1J602D01*
G01X3025Y15475D01*
G03X3202Y15900I-425J426D01*
G01Y16251D01*
X4949Y17998D01*
G37*
G36*
G01X4900Y33000D02*
X8800D01*
X9500Y32300D01*
Y26200D01*
X8500Y25200D01*
X5000D01*
X4400Y24600D01*
Y21700D01*
X340Y17640D01*
X328Y17631D01*
G03X69Y17372I772J-1031D01*
G01X60Y17360D01*
X-500Y16800D01*
X-3800D01*
X-4000Y17000D01*
Y19400D01*
X-3900Y19500D01*
X-300D01*
X1950Y21750D01*
Y26150D01*
X3900Y28100D01*
Y29553D01*
G03X3902Y29600I-899J62D01*
G01Y32001D01*
X4900Y33000D01*
G37*
G36*
G01X-500Y30200D02*
Y29600D01*
X-700Y29400D01*
X-4100D01*
X-4600Y28900D01*
X-6100D01*
X-6400Y29200D01*
Y32800D01*
X-6200Y33000D01*
X-4800D01*
X-4400Y32600D01*
Y30800D01*
X-4000Y30400D01*
X-700D01*
X-500Y30200D01*
G37*
G36*
G01X15753Y-74197D02*
X16499D01*
X16524Y-74368D01*
G03X17100Y-75223I1177J171D01*
G01Y-76301D01*
G03X17276Y-76726I601J0D01*
G01X21198Y-80649D01*
Y-86651D01*
X14751Y-93098D01*
X11300D01*
G03X10875Y-93275I1J-602D01*
G01X7932Y-96218D01*
X5522D01*
Y-95828D01*
X7225Y-94125D01*
G03X7402Y-93700I-425J426D01*
G01Y-92939D01*
G03X8088Y-91800I-603J1139D01*
G03X6800Y-90512I-1288J0D01*
G03X5906Y-90872I-1J-1288D01*
G02X5267Y-90754I-277J288D01*
G03X5154Y-90559I-1167J-546D01*
G02X5481Y-89929I327J230D01*
G01X6622D01*
G03X7024Y-89528I0J401D01*
G01Y-86110D01*
X8486Y-84648D01*
G02X9073Y-84671I283J-283D01*
G03X9378Y-84811I305J261D01*
G01X13314D01*
G03X13716Y-84410I1J401D01*
G01Y-83152D01*
X15348D01*
Y-83750D01*
G03X15750Y-84152I402J0D01*
G01X18250D01*
G03X18652Y-83750I0J402D01*
G01Y-81250D01*
G03X18250Y-80848I-402J0D01*
G01X15750D01*
G03X15348Y-81250I0J-402D01*
G01Y-81848D01*
X13716D01*
Y-80472D01*
G03X13314Y-80071I-401J-1D01*
G01X11998D01*
Y-79722D01*
G03X11807Y-79261I-652J0D01*
G01X10478Y-77933D01*
Y-75697D01*
G02X11010Y-75320I400J-1D01*
G03X11402Y-75386I391J1123D01*
G03X12579Y-74368I0J1189D01*
G01X12604Y-74197D01*
X13349D01*
X13374Y-74368D01*
G03X15728I1177J171D01*
G01X15753Y-74197D01*
G37*
G36*
G01X11627Y26575D02*
G03X11762Y26662I-629J1124D01*
G02X12398Y26339I236J-323D01*
G01Y26134D01*
X12584Y25948D01*
X12596Y25931D01*
G03X12712Y25815I336J220D01*
G01X12729Y25803D01*
X13534Y24998D01*
X16334D01*
X17098Y24234D01*
Y21437D01*
G02X16533Y21073I-400J0D01*
G03X16000Y21188I-532J-1173D01*
G03X14712Y19900I0J-1288D01*
G03X15115Y18964I1288J0D01*
G02X15123Y18391I-275J-290D01*
G01X15034Y18302D01*
X11449D01*
X10725Y19025D01*
G03X10300Y19202I-426J-425D01*
G01X5942D01*
G02X5659Y19884I0J400D01*
G01X6173Y20398D01*
X8700D01*
G03X9102Y20800I0J402D01*
G01Y23800D01*
G03X8700Y24202I-402J0D01*
G01X5052D01*
G02X4911Y24543I0J200D01*
G01X5166Y24798D01*
X8666D01*
X9042Y25174D01*
G02X9722Y24941I283J-283D01*
G03X11000Y23812I1278J159D01*
G03X12288Y25100I0J1288D01*
G03X11627Y26225I-1288J0D01*
G02Y26575I97J175D01*
G37*
G36*
G01X10187Y37812D02*
X15480D01*
G02X15816Y37196I0J-400D01*
G03X15612Y36500I1085J-696D01*
G03X18188I1288J0D01*
G03X18186Y36575I-1288J3D01*
G02X18585Y36998I399J23D01*
G01X18915D01*
G02X19314Y36575I0J-400D01*
G03X19312Y36500I1286J-72D01*
G03X20600Y35212I1288J0D01*
G03X21194Y35357I0J1289D01*
G01X21324Y35425D01*
X22498Y34251D01*
Y22029D01*
G02X21886Y21690I-400J0D01*
G03X21201Y21888I-686J-1090D01*
G02X20802Y22288I1J400D01*
G01Y31266D01*
X18766Y33302D01*
X13134D01*
X12626Y32793D01*
G02X12001Y32869I-283J283D01*
G03X10900Y33488I-1101J-670D01*
G03X9928Y33045I0J-1288D01*
G02X9343Y33025I-302J262D01*
G01X8966Y33402D01*
X5642D01*
G02X5359Y34084I0J400D01*
G01X5673Y34398D01*
X8700D01*
G03X9102Y34800I0J402D01*
G01Y36727D01*
X10187Y37812D01*
G37*
G36*
G01X13300Y32900D02*
X18600D01*
X20400Y31100D01*
Y21609D01*
G03X19912Y20600I799J-1009D01*
G03X19913Y20550I1288J1D01*
G03X19548Y20150I37J-400D01*
G01Y18648D01*
X16588Y15688D01*
X16504D01*
G03X15224Y14573I-4J-1288D01*
G01X15200Y14400D01*
X12100D01*
X11100Y15400D01*
Y17400D01*
X11600Y17900D01*
X15200D01*
X15912Y18612D01*
X15996D01*
G03X17288Y19904I4J1288D01*
G01Y19988D01*
X17500Y20200D01*
Y24400D01*
X16500Y25400D01*
X13700D01*
X12800Y26300D01*
Y32400D01*
X13300Y32900D01*
G37*
G36*
G01X20016Y-95535D02*
X25316Y-90235D01*
G02X25998Y-90518I282J-283D01*
G01Y-96218D01*
X23760D01*
G03X22146Y-95719I-1615J-2364D01*
G03X20581Y-96185I1J-2863D01*
G01X20531Y-96218D01*
X20299D01*
G02X20016Y-95535I0J400D01*
G37*
G36*
G01X29602Y-93018D02*
Y-88843D01*
G02X30284Y-88561I400J-1D01*
G01X33087Y-91364D01*
G02X32961Y-92015I-283J-283D01*
G03X32218Y-92878I504J-1185D01*
G02X31657Y-93139I-388J100D01*
G03X31100Y-93012I-558J-1161D01*
G03X30262Y-93322I0J-1288D01*
G02X29602Y-93018I-260J304D01*
G37*
G36*
G01X57165Y-79586D02*
G03X57904Y-79306I-65J1286D01*
G02X58554Y-79618I250J-312D01*
G01Y-92284D01*
G02X57087Y-93751I-1467J0D01*
G01X41043D01*
G03X38581Y-96033I0J-2469D01*
G01X38567Y-96218D01*
X36376D01*
Y-94813D01*
G02X36995Y-94478I400J0D01*
G03X37700Y-94688I705J1078D01*
G03Y-92112I0J1288D01*
G03X36727Y-92556I0J-1288D01*
G01X36668Y-92624D01*
X36376D01*
Y-92200D01*
G03X36208Y-91792I-576J1D01*
G01X31676Y-87261D01*
Y-81600D01*
X34300Y-78976D01*
X41637D01*
G02X41919Y-79659I-1J-400D01*
G01X41524Y-80055D01*
X38110D01*
G03X37709Y-80456I0J-402D01*
G01Y-81848D01*
X36652D01*
Y-81250D01*
G03X36250Y-80848I-402J0D01*
G01X33750D01*
G03X33348Y-81250I0J-402D01*
G01Y-83750D01*
G03X33750Y-84152I402J0D01*
G01X36250D01*
G03X36652Y-83750I0J402D01*
G01Y-83152D01*
X37709D01*
Y-87544D01*
G03X38110Y-87945I402J1D01*
G01X39428D01*
Y-88579D01*
G03X39618Y-89040I651J-1D01*
G01X40848Y-90270D01*
Y-92250D01*
G03X41250Y-92652I402J0D01*
G01X43750D01*
G03X44152Y-92250I0J402D01*
G01Y-89750D01*
G03X43750Y-89348I-402J0D01*
G01X41770D01*
X40730Y-88309D01*
Y-87945D01*
X42048D01*
G03X42449Y-87544I0J402D01*
G01Y-80972D01*
X43170Y-80252D01*
X47551D01*
Y-80453D01*
Y-87544D01*
G03X47952Y-87945I401J1D01*
G01X49270D01*
Y-88309D01*
X48230Y-89348D01*
X46250D01*
G03X45848Y-89750I0J-402D01*
G01Y-92250D01*
G03X46250Y-92652I402J0D01*
G01X48750D01*
G03X49152Y-92250I0J402D01*
G01Y-90270D01*
X50382Y-89040D01*
G03X50572Y-88579I-461J460D01*
G01Y-87945D01*
X51890D01*
G03X52291Y-87544I-1J402D01*
G01Y-84652D01*
X53500D01*
G03X53961Y-84461I0J652D01*
G01X54270Y-84152D01*
X56250D01*
G03X56652Y-83750I0J402D01*
G01Y-81250D01*
G03X56530Y-80963I-401J-1D01*
G02X56513Y-80696I140J143D01*
G03X56786Y-79965I-1013J795D01*
G02X57165Y-79586I400J-21D01*
G37*
G36*
G01X40500Y21800D02*
X41900D01*
X42500Y21200D01*
Y18700D01*
X41500Y17700D01*
X41429Y17693D01*
G03X39595Y16058I201J-2071D01*
G01X39561Y15900D01*
X33000D01*
X32600Y16300D01*
Y18300D01*
X32900Y18600D01*
X39000D01*
X39900Y19500D01*
Y21200D01*
X40500Y21800D01*
G37*
G36*
G01X32900Y38200D02*
X39400D01*
X39579Y38021D01*
X39591Y37962D01*
G03X41214Y36339I2039J416D01*
G01X41273Y36327D01*
X42000Y35600D01*
Y33400D01*
X41300Y32700D01*
X39800D01*
X39300Y33200D01*
Y34700D01*
X38300Y35700D01*
X32900D01*
Y38200D01*
G37*
%LPC*%
G75*
G36*
G01X-49998Y-65235D02*
G02X-48809Y-66424I0J-1189D01*
G02X-49844Y-67603I-1189J0D01*
G01X-49911Y-67612D01*
X-50283Y-67983D01*
X-50287Y-68060D01*
G02X-50295Y-68162I-1287J50D01*
G03X-50101Y-68387I198J-25D01*
G02X-49998Y-68383I98J-1186D01*
G02X-48808Y-69573I0J-1190D01*
G02X-49887Y-70758I-1190J0D01*
G01X-49911Y-70761D01*
X-50283Y-71133D01*
X-50286Y-71210D01*
G02X-50295Y-71312I-1287J62D01*
G03X-50101Y-71537I198J-25D01*
G02X-49998Y-71533I98J-1186D01*
G02X-48808Y-72723I0J-1190D01*
G02X-49887Y-73908I-1190J0D01*
G01X-49911Y-73911D01*
X-50283Y-74283D01*
X-50286Y-74360D01*
G02X-51573Y-75586I-1287J63D01*
G02X-52861Y-74298I0J1288D01*
G02X-51635Y-73011I1289J0D01*
G01X-51558Y-73008D01*
X-51185Y-72635D01*
X-51184Y-72630D01*
X-51388Y-72426D01*
X-51479Y-72433D01*
G02X-51573Y-72436I-88J1285D01*
G02X-52861Y-71148I0J1288D01*
G02X-51635Y-69861I1289J0D01*
G01X-51558Y-69858D01*
X-51185Y-69485D01*
X-51184Y-69480D01*
X-51388Y-69276D01*
X-51479Y-69283D01*
G02X-51573Y-69286I-88J1285D01*
G02X-52861Y-67998I0J1288D01*
G02X-51634Y-66711I1288J0D01*
G01X-51557Y-66708D01*
X-51186Y-66336D01*
X-51177Y-66269D01*
G02X-49998Y-65235I1179J-155D01*
G37*
G36*
G01X-31472Y36173D02*
Y39323D01*
G02X-31070Y39725I402J0D01*
G01X-28552D01*
G02X-28150Y39323I0J-402D01*
G01Y36173D01*
G02X-28552Y35771I-402J0D01*
G01X-31070D01*
G02X-31472Y36173I0J402D01*
G37*
G36*
G01X-51635Y-57263D02*
X-51558Y-57260D01*
X-51186Y-56888D01*
X-51177Y-56820D01*
G02X-49998Y-55786I1179J-155D01*
G02X-48809Y-56975I0J-1189D01*
G02X-49843Y-58154I-1189J0D01*
G01X-49911Y-58163D01*
X-50283Y-58535D01*
X-50286Y-58612D01*
G02X-51573Y-59838I-1287J63D01*
G02X-52861Y-58550I0J1288D01*
G02X-51635Y-57263I1289J0D01*
G37*
G36*
G01X54848Y-22750D02*
Y-20250D01*
G02X55250Y-19848I402J0D01*
G01X57750D01*
G02X58152Y-20250I0J-402D01*
G01Y-22750D01*
G02X57750Y-23152I-402J0D01*
G01X56102D01*
Y-24098D01*
X57000D01*
G02X57402Y-24500I0J-402D01*
G01Y-28300D01*
G02X57000Y-28702I-402J0D01*
G01X54000D01*
G02X53598Y-28300I0J402D01*
G01Y-24500D01*
G02X54000Y-24098I402J0D01*
G01X54898D01*
Y-22948D01*
X54882Y-22910D01*
G02X54848Y-22750I368J162D01*
G37*
G36*
G01X-45350Y-5448D02*
X-42850D01*
G02X-42448Y-5850I0J-402D01*
G01Y-8350D01*
G02X-42850Y-8752I-402J0D01*
G01X-45350D01*
G02X-45615Y-8651I1J402D01*
G01X-45672Y-8602D01*
X-47198D01*
Y-9900D01*
G02X-47600Y-10302I-402J0D01*
G01X-50600D01*
G02X-51002Y-9900I0J402D01*
G01Y-6100D01*
G02X-50600Y-5698I402J0D01*
G01X-47600D01*
G02X-47198Y-6100I0J-402D01*
G01Y-7398D01*
X-45752D01*
Y-5850D01*
G02X-45350Y-5448I402J0D01*
G37*
G36*
G01X-51068Y8451D02*
X-47132D01*
G02X-46730Y8050I1J-401D01*
G01Y1750D01*
G02X-47132Y1349I-401J0D01*
G01X-49893D01*
X-49915Y1344D01*
G02X-50200Y1312I-285J1256D01*
G02X-50485Y1344I0J1288D01*
G01X-50507Y1349D01*
X-51068D01*
G02X-51470Y1750I-1J401D01*
G01Y2385D01*
X-51472Y2400D01*
G02X-51488Y2600I1272J202D01*
G02X-51472Y2800I1288J-2D01*
G01X-51470Y2815D01*
Y4585D01*
X-51472Y4600D01*
G02X-51488Y4800I1272J202D01*
G02X-51472Y5000I1288J-2D01*
G01X-51470Y5015D01*
Y6885D01*
X-51472Y6900D01*
G02X-51488Y7100I1272J202D01*
G02X-51472Y7300I1288J-2D01*
G01X-51470Y7315D01*
Y8050D01*
G02X-51068Y8451I401J0D01*
G37*
G36*
G01X-35724Y10504D02*
Y11448D01*
G02X-35323Y11850I401J1D01*
G01X-32173D01*
G02X-31772Y11448I0J-401D01*
G01Y10504D01*
G02X-31831Y10294I-401J-1D01*
G03Y10084I171J-105D01*
G02X-31772Y9874I-342J-209D01*
G01Y8930D01*
G02X-32173Y8528I-401J-1D01*
G01X-35323D01*
G02X-35724Y8930I0J401D01*
G01Y9874D01*
G02X-35665Y10084I401J1D01*
G03Y10294I-171J105D01*
G02X-35724Y10504I342J209D01*
G37*
G36*
G01X27466Y43354D02*
G03X27734I134J148D01*
G02X28599Y43688I865J-954D01*
G01X28600D01*
G02X29509Y43313I0J-1289D01*
G03X29791I141J141D01*
G02X30700Y43688I909J-914D01*
G02X31988Y42400I0J-1288D01*
G02X31613Y41491I-1289J0D01*
G03Y41209I141J-141D01*
G02X31988Y40300I-914J-909D01*
G02X30700Y39012I-1288J0D01*
G02X29748Y39433I0J1287D01*
G03X29466Y39446I-148J-135D01*
G02X28600Y39112I-865J954D01*
G02X27734Y39446I-1J1288D01*
G03X27466I-134J-148D01*
G02X26601Y39112I-865J954D01*
G01X26600D01*
G02X25312Y40400I0J1288D01*
G01Y40401D01*
G02X25646Y41266I1288J0D01*
G03Y41534I-148J134D01*
G02X25312Y42399I954J865D01*
G01Y42400D01*
G02X26600Y43688I1288J0D01*
G01X26601D01*
G02X27466Y43354I0J-1288D01*
G37*
G36*
G01X-31367Y48934D02*
X-31319Y48949D01*
X-30766Y49502D01*
X-23734D01*
X-22698Y48466D01*
Y44034D01*
X-25034Y41698D01*
X-34966D01*
X-36002Y42734D01*
Y45766D01*
X-35066Y46702D01*
X-33066D01*
X-32302Y47466D01*
Y47966D01*
X-32249Y48019D01*
X-32234Y48067D01*
G02X-31367Y48934I1234J-367D01*
G37*
G36*
G01X-58126Y45854D02*
Y52546D01*
G02X-57725Y52948I401J1D01*
G01X-53001D01*
G02X-52600Y52546I0J-401D01*
G01Y45854D01*
G02X-53001Y45452I-401J-1D01*
G01X-54798D01*
Y41752D01*
X-54150D01*
G02X-53748Y41350I0J-402D01*
G01Y38850D01*
G02X-54150Y38448I-402J0D01*
G01X-56650D01*
G02X-57052Y38850I0J402D01*
G01Y41350D01*
G02X-56650Y41752I402J0D01*
G01X-56002D01*
Y45452D01*
X-57725D01*
G02X-58126Y45854I0J401D01*
G37*
G36*
G01X11975Y52948D02*
X16699D01*
G02X17100Y52546I0J-401D01*
G01Y45854D01*
G02X16699Y45452I-401J-1D01*
G01X11975D01*
G02X11574Y45854I0J401D01*
G01Y48598D01*
X8549D01*
X5984Y46034D01*
X6008Y45927D01*
G02X6038Y45651I-1258J-276D01*
G01Y45650D01*
G02X4750Y46938I-1288J0D01*
G01X4751D01*
G02X5027Y46908I0J-1288D01*
G01X5134Y46884D01*
X7875Y49625D01*
G02X8300Y49802I426J-425D01*
G01X11574D01*
Y52546D01*
G02X11975Y52948I401J1D01*
G37*
G54D41*
X-36000Y-15700D03*
X-27000D03*
X100Y-19600D03*
X-3900D03*
X11200Y-3700D03*
X10500Y7500D03*
X21300Y52100D03*
G54D40*
X53000Y-1094D03*
G54D39*
X-49998Y-53825D03*
%LPD*%
G75*
G36*
G01X-30600Y49100D02*
X-23993D01*
X-23937Y48994D01*
G03X-23165Y48365I1136J606D01*
G01X-23100Y48300D01*
Y44200D01*
X-25200Y42100D01*
X-34800D01*
X-35600Y42900D01*
Y45553D01*
X-35558Y45607D01*
G03X-35519Y45668I-317J246D01*
G01X-35505Y45695D01*
X-34900Y46300D01*
X-32900D01*
X-31900Y47300D01*
Y47800D01*
X-30600Y49100D01*
G37*
G54D10*
X-55917Y-91286D03*
X-52917Y-85286D03*
X-54150Y-79850D03*
X-55500Y-17300D03*
X-52917Y-7286D03*
X-55917D03*
X-52917Y-4286D03*
X-55917D03*
Y4714D03*
X-52917Y13714D03*
Y10714D03*
X-55917Y7714D03*
X-52700Y19400D03*
X-52917Y37714D03*
Y43714D03*
X-48900Y-92600D03*
X-49917Y-88286D03*
X-47600Y-88300D03*
X-46100Y-90400D03*
X-51573Y-80597D03*
X-49917Y-85286D03*
X-48500Y-77500D03*
X-51573Y-74298D03*
Y-77447D03*
Y-71148D03*
Y-67998D03*
X-48424D03*
Y-71148D03*
X-51573Y-61699D03*
X-48424D03*
X-51573Y-64849D03*
X-49917Y-61286D03*
Y-64286D03*
X-51573Y-58550D03*
X-48424Y-45951D03*
X-51573D03*
X-48387Y-52287D03*
X-51573Y-39652D03*
Y-42802D03*
X-48400Y-36600D03*
X-51573Y-33353D03*
Y-36502D03*
Y-30203D03*
X-49917Y-28286D03*
X-46200Y-22500D03*
X-48500Y-22100D03*
X-49917Y-25286D03*
Y-1286D03*
Y-4286D03*
X-50200Y4800D03*
Y2600D03*
Y7100D03*
X-46917Y13714D03*
Y10714D03*
X-50200Y27200D03*
Y22700D03*
Y24900D03*
X-52100Y35100D03*
X-46917Y40714D03*
X-49917D03*
X-46917Y34714D03*
X-49917D03*
X-46917Y46714D03*
Y43714D03*
X-49917D03*
X-46917Y52714D03*
Y49714D03*
X-44400Y-88500D03*
X-40900Y-84000D03*
X-45200Y-80500D03*
X-45300Y-85000D03*
X-45274Y-67998D03*
X-42100Y-71200D03*
X-40700Y-64000D03*
X-41500Y-60124D03*
X-40200Y-53600D03*
X-41200Y-55800D03*
X-45262Y-58562D03*
X-45300Y-49200D03*
X-40200Y-50954D03*
X-45312Y-52212D03*
X-41000Y-46500D03*
X-39400Y-39100D03*
X-41600Y-12100D03*
X-40700Y-9300D03*
X-40500Y-7400D03*
X-40400Y-5300D03*
X-40917Y-1286D03*
X-40100Y13200D03*
X-40200Y18300D03*
X-40917Y40714D03*
X-43917D03*
Y34714D03*
X-40600Y35600D03*
X-43917Y46714D03*
X-40917Y43714D03*
X-43917D03*
Y52714D03*
Y49714D03*
X-34900Y-91700D03*
X-38900Y-88700D03*
X-37100Y-90500D03*
X-34300Y-87500D03*
X-36767Y-72868D03*
X-37900Y-75300D03*
X-32995Y-77905D03*
X-38638Y-70997D03*
X-35600Y-62900D03*
Y-60700D03*
X-38600Y-63300D03*
X-35300Y-56100D03*
X-32563Y-52363D03*
X-35200Y-42700D03*
X-35900Y-39300D03*
X-36000Y-15700D03*
X-33800Y-10400D03*
X-34300Y-4800D03*
X-38600Y14900D03*
X-38700Y19700D03*
X-36550Y18850D03*
X-36400Y36000D03*
X-34917Y40714D03*
Y37714D03*
X-27900Y-92500D03*
Y-88100D03*
Y-90300D03*
X-30700Y-88000D03*
X-32200Y-89600D03*
X-30900Y-91400D03*
X-26338Y-74260D03*
X-26376Y-71148D03*
X-26363Y-58563D03*
X-29538Y-52238D03*
X-26400Y-49100D03*
Y-52300D03*
X-29500Y-39600D03*
X-26376Y-33353D03*
X-29526D03*
X-31100Y-29200D03*
X-27000Y-15700D03*
X-31917Y-16286D03*
X-27800Y-10600D03*
X-31917Y-10286D03*
X-28100Y-5200D03*
X-31900Y3500D03*
X-31151Y12551D03*
X-28917Y13714D03*
Y10714D03*
X-25887Y13686D03*
X-30700Y20425D03*
X-30724Y17276D03*
X-25887Y19686D03*
Y16686D03*
X-31151Y26724D03*
X-28917Y25714D03*
X-25887Y25686D03*
Y22686D03*
X-28917Y31714D03*
Y28714D03*
X-25887Y28686D03*
X-27449Y35151D03*
X-26200Y40700D03*
X-28917Y40714D03*
X-31917D03*
X-25917Y34714D03*
X-28917D03*
X-31000Y45300D03*
X-28600Y43000D03*
X-26200D03*
X-31000Y43100D03*
Y47700D03*
X-28917Y53214D03*
X-31917D03*
X-21900Y-93900D03*
X-24900Y-93500D03*
Y-89100D03*
X-21900Y-91700D03*
Y-89500D03*
X-24900Y-91300D03*
X-21400Y-73100D03*
X-22500Y-79022D03*
X-21800Y-75872D03*
X-23227Y-71148D03*
X-22500Y-63300D03*
X-20900Y-60200D03*
X-19900Y-56400D03*
X-21600Y-50200D03*
X-20200Y-48500D03*
X-23200Y-39600D03*
X-22300Y-44300D03*
X-21500Y-34800D03*
X-20250Y-38750D03*
X-19700Y-30200D03*
X-21400Y-31700D03*
X-22800Y-16100D03*
X-22917Y-7286D03*
Y-10286D03*
X-23000Y300D03*
Y-1900D03*
X-19917Y1714D03*
Y10714D03*
X-19887Y19686D03*
X-22887D03*
X-19887Y16686D03*
X-22887D03*
X-19887Y25686D03*
X-22887D03*
X-19887Y22686D03*
X-22887D03*
X-19887Y28686D03*
X-22887D03*
X-23700Y40300D03*
X-21800D03*
X-23700Y35200D03*
X-21800D03*
X-22800Y49600D03*
X-18300Y-94100D03*
X-14500D03*
Y-91900D03*
Y-89700D03*
X-18300Y-91900D03*
Y-89700D03*
X-12700Y-80700D03*
X-14200Y-82300D03*
X-14000Y-73000D03*
X-13800Y-75200D03*
X-19000Y-66424D03*
X-18000Y-60200D03*
X-16800Y-63300D03*
X-14350Y-58150D03*
X-16300Y-56400D03*
X-15348Y-54397D03*
X-17500Y-47400D03*
Y-45200D03*
X-17400Y-42100D03*
X-15200Y-38900D03*
X-15500Y-34900D03*
X-13917Y34714D03*
X-16917D03*
X-13917Y53014D03*
X-16917D03*
X-8500Y-94200D03*
X-11300Y-92200D03*
Y-89600D03*
X-9600Y-66800D03*
X-11400Y-12900D03*
X-9100D03*
X-10300Y-11200D03*
X-8000Y-6400D03*
Y-1700D03*
X-9700Y-4900D03*
X-7700Y34700D03*
X-9800D03*
X-10917Y40714D03*
Y53014D03*
X-7917Y49714D03*
X800Y-92700D03*
X-5500Y-94700D03*
X-2200Y-93500D03*
Y-91300D03*
X800Y-90500D03*
X-5500Y-85800D03*
X-4000Y-84000D03*
X400Y-69500D03*
X-4900Y-67000D03*
X281Y-34730D03*
X-3900Y-19600D03*
X100D03*
X-2100Y-8500D03*
X-600Y1800D03*
X700Y13100D03*
X-5099Y15701D03*
X-5400Y24000D03*
X-5500Y26800D03*
X-5300Y21400D03*
X-5400Y29874D03*
Y32000D03*
X-1917Y40714D03*
Y46714D03*
X-4917D03*
X3800Y-93600D03*
X4100Y-91300D03*
X6800Y-91800D03*
X3528Y-66323D03*
X6700Y-66300D03*
X6677Y-60024D03*
X3528D03*
Y-63173D03*
X6677D03*
X3528Y-53724D03*
X6677Y-56874D03*
X3528D03*
X6677Y-53724D03*
Y-47425D03*
X3528D03*
Y-41126D03*
X6677Y-44276D03*
X3528D03*
X6677Y-41126D03*
Y-34827D03*
Y-37976D03*
X3528D03*
Y-34827D03*
X6600Y-31800D03*
X4100Y-19600D03*
X1000Y900D03*
X7083Y1714D03*
Y13714D03*
X1100Y16600D03*
X1083Y46714D03*
X4750Y45650D03*
X9900Y-90300D03*
X13000Y-69500D03*
X13100Y-66400D03*
X12976Y-60024D03*
Y-63173D03*
X9827Y-60024D03*
X12976Y-53724D03*
X9827D03*
Y-47425D03*
X12976D03*
X9900Y-50500D03*
X9827Y-41126D03*
X12976D03*
X9827Y-44276D03*
X12976D03*
Y-34827D03*
X9827Y-37976D03*
X12976D03*
X9827Y-34827D03*
X8100Y-18900D03*
X14200Y-4400D03*
X10083Y-1286D03*
X11200Y-3700D03*
X10500Y7500D03*
X13083Y19714D03*
X13200Y19600D03*
X11000Y25100D03*
X10083Y22714D03*
X13900Y31600D03*
X11000Y27700D03*
X10900Y32200D03*
X13500Y40500D03*
Y42500D03*
X10083Y46714D03*
Y52714D03*
X15500Y-91000D03*
X19276Y-69472D03*
Y-66323D03*
X16126Y-60024D03*
X19276D03*
X19300Y-56900D03*
X19276Y-53724D03*
X16126D03*
X19276Y-47425D03*
X16126D03*
X19276Y-44276D03*
Y-41126D03*
X16126D03*
Y-44276D03*
X19276Y-34827D03*
X16126Y-37976D03*
Y-34827D03*
X19276Y-37976D03*
X20700Y-20000D03*
X20600Y-17200D03*
X18400D03*
X19400Y-12900D03*
X16000Y-16400D03*
X14500Y-18400D03*
X14700Y13100D03*
X16000Y19900D03*
X16500Y14400D03*
X18200Y31500D03*
X16000D03*
X16900Y36500D03*
X20600D03*
X17600Y40600D03*
X15500Y40500D03*
X17600Y42500D03*
X15500D03*
X24400Y-94800D03*
X25575Y-69472D03*
Y-66323D03*
Y-63173D03*
Y-60024D03*
Y-53724D03*
Y-56874D03*
Y-47425D03*
Y-41126D03*
Y-44276D03*
Y-34827D03*
Y-37976D03*
X24300Y-20700D03*
X21600Y-12900D03*
X23800D03*
Y-14900D03*
X21200Y20600D03*
X25200Y20000D03*
X21500Y33500D03*
X26600Y40400D03*
X22083Y46714D03*
Y43714D03*
X26600Y42400D03*
X21300Y52100D03*
X22083Y49714D03*
X31100Y-94300D03*
X33465Y-93200D03*
X30500Y-90700D03*
X31874Y-69472D03*
Y-66323D03*
X28724Y-69472D03*
Y-66323D03*
Y-63173D03*
X31924Y-63124D03*
X28724Y-60024D03*
X31874D03*
X28724Y-53724D03*
Y-56874D03*
X31874Y-47425D03*
X28724D03*
X31874Y-41126D03*
Y-44276D03*
X28724Y-41126D03*
Y-44276D03*
Y-34827D03*
Y-37976D03*
X31874D03*
Y-34827D03*
X28537Y-20537D03*
X28400Y-18300D03*
X32000Y-18400D03*
X31400Y18900D03*
X31200Y22600D03*
X31100Y33200D03*
X30700Y40300D03*
X28600Y40400D03*
X34083Y43714D03*
X30700Y42400D03*
X28600D03*
X37700Y-93400D03*
X37083Y-91286D03*
X40600Y-76100D03*
X35024Y-69472D03*
Y-66323D03*
Y-60024D03*
Y-53724D03*
Y-56874D03*
Y-47425D03*
X38200Y-47500D03*
X35024Y-44276D03*
Y-41126D03*
Y-37976D03*
Y-34827D03*
X35600Y-21800D03*
X40200Y-13200D03*
X35600Y-18500D03*
X35800Y-9000D03*
X34400Y-10900D03*
X36500Y-12000D03*
X35800Y-4500D03*
X40083Y1714D03*
X40800Y7000D03*
X40100Y18300D03*
X40600Y33800D03*
X39900Y35700D03*
X39543Y46961D03*
X46700Y-88400D03*
X44497Y-72597D03*
X44100Y-76100D03*
X44600Y-66400D03*
X44500Y-60000D03*
Y-63300D03*
X41323Y-60024D03*
X44500Y-53700D03*
X41300D03*
Y-44300D03*
X41323Y-41126D03*
X44472Y-34827D03*
X41323D03*
X44472Y-28528D03*
X41323D03*
X44472Y-31677D03*
X41323D03*
X44500Y-22300D03*
X42400Y-21600D03*
X44472Y-25378D03*
X41323D03*
X44700Y12300D03*
X41200Y20500D03*
X46083Y25714D03*
X42100Y25600D03*
X46083Y28714D03*
X42100Y28400D03*
X46083Y37714D03*
Y46714D03*
Y43714D03*
X52083Y-91286D03*
X47600Y-72600D03*
X51400Y-64300D03*
X47600Y-53700D03*
X51500Y-53400D03*
X52000Y-48000D03*
X51500Y-40400D03*
X47622Y-41126D03*
X51500Y-42700D03*
X50772Y-34827D03*
X47622D03*
X50772Y-28528D03*
X47622D03*
Y-31700D03*
X49200Y-17000D03*
X49300Y-14000D03*
X51000Y-15500D03*
X52500Y-17100D03*
X53300Y-8600D03*
X49083Y-7286D03*
Y-1286D03*
X52083Y-4286D03*
X49083D03*
Y4714D03*
X50500Y18300D03*
X49400Y25700D03*
X49083Y25714D03*
Y31714D03*
Y28714D03*
Y37714D03*
Y43714D03*
X52083Y52714D03*
X49083D03*
X52083Y49714D03*
X55083Y-91286D03*
X55500Y-79900D03*
X55083Y-85286D03*
X57100Y-78300D03*
X54600Y12600D03*
X56000Y46961D03*
X57500Y52700D03*
X55083Y52714D03*
G54D11*
X-55400Y-648D03*
Y30848D03*
G54D20*
X-27449Y6252D03*
X-29024D03*
X-30598D03*
Y37748D03*
X-29024D03*
X-27449D03*
X-19575Y6252D03*
X-21150D03*
X-22724D03*
X-24299D03*
X-25874D03*
Y37748D03*
X-24299D03*
X-22724D03*
X-21150D03*
X-19575D03*
X-13276Y6252D03*
X-14850D03*
X-16425D03*
X-18000D03*
Y37748D03*
X-16425D03*
X-14850D03*
X-13276D03*
X-6976Y6252D03*
X-8551D03*
X-10126D03*
X-11701D03*
Y37748D03*
X-10126D03*
X-8551D03*
X-6976D03*
X-5402Y6252D03*
Y37748D03*
G54D30*
X56000Y7039D03*
Y46961D03*
G54D21*
X-18000Y22000D03*
G54D12*
X-55300Y10900D03*
Y19900D03*
Y15900D03*
Y24900D03*
X-55400Y35100D03*
Y40100D03*
X-44100Y-12100D03*
Y-7100D03*
X-33500Y44500D03*
Y49500D03*
X-11500Y44500D03*
Y49500D03*
X-1000Y-87500D03*
Y-82500D03*
X-4000Y43500D03*
X1000D03*
X6400Y4300D03*
X5900Y41300D03*
X11400Y4300D03*
X10900Y41300D03*
X17000Y-87500D03*
Y-82500D03*
X21200Y4900D03*
Y13900D03*
Y9900D03*
Y18900D03*
X25200Y4900D03*
Y13900D03*
Y9900D03*
Y18900D03*
X33600Y-15700D03*
X29200Y4900D03*
Y13900D03*
Y9900D03*
Y18900D03*
X35000Y-87500D03*
Y-82500D03*
X38600Y-15700D03*
X42500Y-91000D03*
X47500D03*
X55000Y-87500D03*
Y-82500D03*
X56500Y-69500D03*
Y-60500D03*
Y-64500D03*
Y-55500D03*
Y-51500D03*
Y-46500D03*
Y-42500D03*
Y-37500D03*
Y-21500D03*
Y-16500D03*
G54D31*
G01X-54150Y-79850D02*
X-54500Y-79500D01*
Y-21900D01*
X-50300Y-17700D01*
X-43900D01*
X-39200Y-13000D01*
X-18300D01*
X-16000Y-15300D01*
X-1300D01*
X3800Y-10200D01*
Y-5800D01*
X6900Y-2700D01*
Y-2000D01*
G01X-49998Y-79022D02*
X-51573Y-80597D01*
G01X-49998Y-72723D02*
X-51573Y-74298D01*
G01X-46849Y-79022D02*
X-48371Y-77500D01*
X-48500D01*
G01X-49998Y-75872D02*
X-51573Y-77447D01*
G01X-49998Y-69573D02*
X-51573Y-71148D01*
G01X-49998Y-66424D02*
X-51573Y-67998D01*
G01X-46849Y-66424D02*
X-48424Y-67998D01*
G01X-46849Y-69573D02*
X-48424Y-71148D01*
G01X-49998Y-60124D02*
X-51573Y-61699D01*
G01X-46849Y-60124D02*
X-48424Y-61699D01*
G01X-49998Y-63274D02*
X-51573Y-64849D01*
G01X-49998Y-56975D02*
X-51573Y-58550D01*
G01X-48387Y-52287D02*
X-46849Y-53825D01*
G01Y-47526D02*
X-48424Y-45951D01*
G01X-46849Y-50676D02*
X-45312Y-52212D01*
G01X-49998Y-47526D02*
X-51573Y-45951D01*
G01X-49998Y-41227D02*
X-51573Y-39652D01*
G01X-49998Y-44376D02*
X-51573Y-42802D01*
G01X-49998Y-34928D02*
X-51573Y-33353D01*
G01X-49998Y-38077D02*
X-51573Y-36502D01*
G01X-49998Y-31778D02*
X-51573Y-30203D01*
G01X-43699Y-60124D02*
X-41500D01*
G01X-44100Y-12100D02*
X-41600D01*
G01X-43000Y37900D02*
X-40600Y35500D01*
G01D02*
X-38600Y33500D01*
Y31400D01*
X-37074Y29874D01*
X-33748D01*
G01X-40600Y35600D02*
Y35500D01*
G01X-32995Y-77905D02*
X-31101Y-76011D01*
Y-75872D01*
G01X-37100Y-2000D02*
Y-1000D01*
X-34500Y1600D01*
X-31000D01*
X-29000Y3600D01*
X-26600D01*
X-25900Y4300D01*
Y6226D01*
X-25874Y6252D01*
G01X-37100Y-2000D02*
Y-2400D01*
X-34700Y-4800D01*
X-34300D01*
G01X-33748Y12551D02*
X-31151D01*
G01X-33748Y26724D02*
X-31151D01*
G01X-33748Y34598D02*
X-34998D01*
X-36400Y36000D01*
G01X-27951Y-75872D02*
X-26338Y-74260D01*
G01X-27951Y-69573D02*
X-26376Y-71148D01*
G01X-27951Y-66424D02*
X-24802D01*
G01X-27951Y-56975D02*
X-26363Y-58563D01*
G01X-26400Y-52300D02*
X-26500Y-52400D01*
X-26526D01*
X-27951Y-53825D01*
G01X-26400Y-49100D02*
Y-49124D01*
X-27951Y-50676D01*
G01X-31100Y-2000D02*
Y-1300D01*
X-27600Y2200D01*
X-25900D01*
X-24299Y3801D01*
Y6252D01*
G01X-31900Y3500D02*
X-30598Y4802D01*
Y6252D01*
G01X-27449Y37748D02*
Y35151D01*
G01X-21400Y-73100D02*
X-24424D01*
X-24802Y-72723D01*
G01Y-79022D02*
X-22500D01*
G01X-21800Y-75872D02*
X-24802D01*
G01Y-69573D02*
X-23227Y-71148D01*
G01X-24802Y-66424D02*
X-19000D01*
G01X-24802Y-63274D02*
X-22526D01*
X-22500Y-63300D01*
G01X-20900Y-60200D02*
X-20976Y-60124D01*
X-24802D01*
G01Y-41227D02*
X-23300Y-39725D01*
Y-39700D01*
X-23200Y-39600D01*
G01X-22300Y-44300D02*
X-22376Y-44376D01*
X-24802D01*
G01X-21500Y-34800D02*
X-21628Y-34928D01*
X-24802D01*
G01Y-38077D02*
X-24524Y-37800D01*
X-21200D01*
X-20250Y-38750D01*
G01X-24802Y-31778D02*
X-24724Y-31700D01*
X-21400D01*
G01X-16425Y37748D02*
Y35125D01*
G01X-8000Y-6400D02*
Y-5500D01*
X-5100Y-2600D01*
Y-2000D01*
G01X-8551Y6252D02*
Y1851D01*
X-5100Y-1600D01*
Y-2000D01*
G01X-4921Y-104094D02*
Y-96921D01*
X-3700Y-95700D01*
G01D02*
X-2953Y-96447D01*
Y-104094D01*
G01X6900Y-2000D02*
Y-1800D01*
X800Y4300D01*
X-4402D01*
X-5402Y5300D01*
Y6252D01*
G01X-2252Y9402D02*
X1298D01*
X6400Y4300D01*
G01X-2252Y10976D02*
X6124D01*
X6800Y10300D01*
G01X-2252Y15701D02*
X-5099D01*
G01X-2252D02*
X201D01*
X1100Y16600D01*
G01X-2252Y26724D02*
X124D01*
X3000Y29600D01*
Y33000D01*
X6300Y36300D01*
X6800D01*
G01X-2252Y29874D02*
X-5400D01*
G01X-2252Y28299D02*
X-401D01*
X1600Y30300D01*
Y37000D01*
X5900Y41300D01*
G01X5102Y-64748D02*
X3528Y-66323D01*
G01X5102Y-67898D02*
X6700Y-66300D01*
G01X8252Y-61598D02*
X6677Y-63173D01*
G01X6800Y10300D02*
X7500D01*
X10000Y12800D01*
X14400D01*
X14700Y13100D01*
G01X1100Y16600D02*
X6800Y22300D01*
G01X29200Y18900D02*
Y21400D01*
X25700Y24900D01*
Y37400D01*
X23600Y39500D01*
X19900D01*
X19114Y38714D01*
X9814D01*
X7400Y36300D01*
X6800D01*
G01X14551Y-58449D02*
X12976Y-60024D01*
G01X14551Y-61598D02*
X12976Y-63173D01*
G01X11402Y-58449D02*
X9827Y-60024D01*
G01X14551Y-52150D02*
X12976Y-53724D01*
G01X14551Y-55299D02*
X12976Y-53724D01*
G01X11402Y-52150D02*
X9827Y-53724D01*
G01X11402Y-55299D02*
X9827Y-53724D01*
G01X11402Y-49000D02*
X9827Y-47425D01*
G01X14551Y-49000D02*
X12976Y-47425D01*
G01X11402Y-42701D02*
X9827Y-41126D01*
G01X14551Y-42701D02*
X12976Y-41126D01*
G01X11402Y-39551D02*
X9827Y-37976D01*
G01X11402Y-45850D02*
X9827Y-44276D01*
G01X14551Y-45850D02*
X12976Y-44276D01*
G01X14551Y-36402D02*
X12976Y-34827D01*
G01X14551Y-39551D02*
X12976Y-37976D01*
G01X11402Y-36402D02*
X9827Y-34827D01*
G01X17701Y-58449D02*
X16126Y-60024D01*
G01X20850Y-58449D02*
X19276Y-60024D01*
G01X20850Y-52150D02*
X19276Y-53724D01*
G01X17701Y-52150D02*
X16126Y-53724D01*
G01X20850Y-55299D02*
X19276Y-53724D01*
G01X20850Y-49000D02*
X19276Y-47425D01*
G01X17701Y-49000D02*
X16126Y-47425D01*
G01X17701Y-39551D02*
X16126Y-37976D01*
G01X20850Y-45850D02*
X19276Y-44276D01*
G01X20850Y-42701D02*
X19276Y-41126D01*
G01X17701Y-42701D02*
X16126Y-41126D01*
G01X17701Y-45850D02*
X16126Y-44276D01*
G01X20850Y-36402D02*
X19276Y-34827D01*
G01X17701Y-36402D02*
X16126Y-34827D01*
G01X20850Y-39551D02*
X19276Y-37976D01*
G01X16500Y14400D02*
Y12600D01*
X19200Y9900D01*
X21200D01*
G01X24000Y-61598D02*
X25575Y-63173D01*
G01X27150Y-61598D02*
X28724Y-63173D01*
G01X20850Y-61598D02*
X24000D01*
G01Y-58449D02*
X25575Y-60024D01*
G01X24000Y-52150D02*
X25575Y-53724D01*
G01X27150Y-58449D02*
X28724Y-60024D01*
G01X24000Y-55299D02*
X25575Y-56874D01*
G01X27150Y-55299D02*
X28724Y-56874D01*
G01X24000Y-49000D02*
X25575Y-47425D01*
G01X27150Y-49000D02*
X28724Y-47425D01*
G01X27150Y-52150D02*
X28724Y-53724D01*
G01X24000Y-39551D02*
X25575Y-37976D01*
G01X24000Y-42701D02*
X25575Y-41126D01*
G01X27150Y-42701D02*
X28724Y-41126D01*
G01X24000Y-45850D02*
X25575Y-44276D01*
G01X27150Y-45850D02*
X28724Y-44276D01*
G01X24000Y-36402D02*
X25575Y-34827D01*
G01X27150Y-36402D02*
X28724Y-34827D01*
G01X27150Y-39551D02*
X28724Y-37976D01*
G01X25200Y9900D02*
X21200D01*
G01X29200D02*
X25200D01*
G01X21200Y18900D02*
Y20600D01*
G01X25200Y18900D02*
Y20000D01*
G01X33449Y-61598D02*
X31924Y-63124D01*
G01X30299Y-58449D02*
X31874Y-60024D01*
G01X30299Y-61598D02*
X31874Y-60024D01*
G01X33449Y-58449D02*
X35024Y-60024D01*
G01X30299Y-52150D02*
X28724Y-53724D01*
G01X30299Y-55299D02*
X28724Y-56874D01*
G01X33449Y-55299D02*
X35024Y-56874D01*
G01X33449Y-52150D02*
X35024Y-53724D01*
G01X30299Y-49000D02*
X31874Y-47425D01*
G01X33449Y-49000D02*
X35024Y-47425D01*
G01X30299Y-42701D02*
X31874Y-41126D01*
G01X30299Y-45850D02*
X31874Y-44276D01*
G01X33449Y-45850D02*
X35024Y-44276D01*
G01X33449Y-42701D02*
X35024Y-41126D01*
G01X30299Y-39551D02*
X31874Y-37976D01*
G01X33449Y-39551D02*
X35024Y-37976D01*
G01X30299Y-36402D02*
X31874Y-34827D01*
G01X33449Y-36402D02*
X35024Y-34827D01*
G01X29200Y18900D02*
X31400D01*
G01X39748Y-58449D02*
X41323Y-60024D01*
G01X36598Y-52150D02*
X37466Y-53017D01*
Y-54432D01*
X35024Y-56874D01*
G01X36598Y-45850D02*
X35024Y-44276D01*
G01X44500Y-53700D02*
X44724Y-53924D01*
Y-53976D01*
X46047Y-55299D01*
G01X44700Y12300D02*
X47100D01*
X50500Y15700D01*
Y18300D01*
G01X56500Y-16500D02*
Y-11800D01*
X53300Y-8600D01*
G54D13*
X-55363Y49200D03*
X-38237D03*
X14337D03*
X31463D03*
G54D22*
X-27000Y46500D03*
X-18000D03*
G54D32*
G01X-48900Y-92600D02*
X-56536Y-84964D01*
Y-18436D01*
X-55500Y-17400D01*
G54D23*
X-18100Y-10100D03*
Y-2100D03*
G54D14*
X-49998Y-72723D03*
X-46849D03*
X-49998Y-75872D03*
X-46849D03*
X-49998Y-79022D03*
X-46849D03*
X-49998Y-66424D03*
X-46849D03*
X-49998Y-69573D03*
X-46849D03*
X-49998Y-60124D03*
X-46849D03*
X-49998Y-63274D03*
X-46849D03*
X-49998Y-53825D03*
X-46849D03*
X-49998Y-56975D03*
X-46849D03*
X-49998Y-47526D03*
X-46849D03*
X-49998Y-50676D03*
X-46849D03*
X-49998Y-41227D03*
X-46849D03*
X-49998Y-44376D03*
X-46849D03*
X-49998Y-34928D03*
X-46849D03*
X-49998Y-38077D03*
X-46849D03*
X-49998Y-31778D03*
X-46849D03*
X-43699Y-72723D03*
Y-75872D03*
Y-79022D03*
Y-66424D03*
Y-69573D03*
Y-60124D03*
Y-63274D03*
Y-53825D03*
Y-56975D03*
Y-47526D03*
Y-50676D03*
Y-41227D03*
Y-44376D03*
Y-34928D03*
Y-38077D03*
Y-31778D03*
X-31101Y-72723D03*
X-27951D03*
X-31101Y-75872D03*
X-27951D03*
X-31101Y-79022D03*
X-27951D03*
X-31101Y-66424D03*
X-27951D03*
X-31101Y-69573D03*
X-27951D03*
X-31101Y-60124D03*
X-27951D03*
X-31101Y-63274D03*
X-27951D03*
X-31101Y-53825D03*
X-27951D03*
X-31101Y-56975D03*
X-27951D03*
X-31101Y-47526D03*
X-27951D03*
X-31101Y-50676D03*
X-27951D03*
X-31101Y-41227D03*
X-27951D03*
X-31101Y-44376D03*
X-27951D03*
X-31101Y-34928D03*
X-27951D03*
X-31101Y-38077D03*
X-27951D03*
X-31101Y-31778D03*
X-27951D03*
X-24802Y-72723D03*
Y-75872D03*
Y-79022D03*
Y-66424D03*
Y-69573D03*
Y-60124D03*
Y-63274D03*
Y-53825D03*
Y-56975D03*
Y-47526D03*
Y-50676D03*
Y-41227D03*
Y-44376D03*
Y-34928D03*
Y-38077D03*
Y-31778D03*
X-1197Y-74197D03*
Y-71047D03*
Y-67898D03*
Y-64748D03*
Y-61598D03*
Y-58449D03*
Y-55299D03*
Y-52150D03*
Y-49000D03*
Y-45850D03*
Y-42701D03*
Y-39551D03*
Y-36402D03*
Y-33252D03*
Y-30102D03*
Y-26953D03*
Y-23803D03*
X5102Y-74197D03*
X1953D03*
X5102Y-71047D03*
X1953D03*
X5102Y-67898D03*
X1953D03*
X5102Y-64748D03*
X1953D03*
X5102Y-61598D03*
X1953D03*
X5102Y-58449D03*
X1953D03*
X5102Y-55299D03*
X1953D03*
X5102Y-52150D03*
X1953D03*
X5102Y-49000D03*
X1953D03*
X5102Y-45850D03*
X1953D03*
X5102Y-42701D03*
X1953D03*
X5102Y-39551D03*
X1953D03*
X5102Y-36402D03*
X1953D03*
X5102Y-33252D03*
X1953D03*
X5102Y-30102D03*
X1953D03*
X5102Y-26953D03*
X1953D03*
X5102Y-23803D03*
X1953D03*
X11402Y-74197D03*
X8252D03*
X11402Y-71047D03*
X8252D03*
X11402Y-67898D03*
X8252D03*
X11402Y-64748D03*
X8252D03*
X11402Y-61598D03*
X8252D03*
X11402Y-58449D03*
X8252D03*
X11402Y-55299D03*
X8252D03*
X11402Y-52150D03*
X8252D03*
X11402Y-49000D03*
X8252D03*
X11402Y-45850D03*
X8252D03*
X11402Y-42701D03*
X8252D03*
X11402Y-39551D03*
X8252D03*
X11402Y-36402D03*
X8252D03*
X11402Y-33252D03*
X8252D03*
X11402Y-30102D03*
X8252D03*
X11402Y-26953D03*
X8252D03*
X11402Y-23803D03*
X8252D03*
X17701Y-74197D03*
X14551D03*
X17701Y-71047D03*
X14551D03*
X17701Y-67898D03*
X14551D03*
X17701Y-64748D03*
X14551D03*
X17701Y-61598D03*
X14551D03*
X17701Y-58449D03*
X14551D03*
X17701Y-55299D03*
X14551D03*
X17701Y-52150D03*
X14551D03*
X17701Y-49000D03*
X14551D03*
X17701Y-45850D03*
X14551D03*
X17701Y-42701D03*
X14551D03*
X17701Y-39551D03*
X14551D03*
X17701Y-36402D03*
X14551D03*
X17701Y-33252D03*
X14551D03*
X17701Y-30102D03*
X14551D03*
X17701Y-26953D03*
X14551D03*
X17701Y-23803D03*
X14551D03*
X27150Y-74197D03*
X24000D03*
X20850D03*
X27150Y-71047D03*
X24000D03*
X20850D03*
X27150Y-67898D03*
X24000D03*
X20850D03*
X27150Y-64748D03*
X24000D03*
X20850D03*
X27150Y-61598D03*
X24000D03*
X20850D03*
X27150Y-58449D03*
X24000D03*
X20850D03*
X27150Y-55299D03*
X24000D03*
X20850D03*
X27150Y-52150D03*
X24000D03*
X20850D03*
X27150Y-49000D03*
X24000D03*
X20850D03*
X27150Y-45850D03*
X24000D03*
X20850D03*
X27150Y-42701D03*
X24000D03*
X20850D03*
X27150Y-39551D03*
X24000D03*
X20850D03*
X27150Y-36402D03*
X24000D03*
X20850D03*
X27150Y-33252D03*
X24000D03*
X20850D03*
X27150Y-30102D03*
X24000D03*
X20850D03*
X27150Y-26953D03*
X24000D03*
X20850D03*
X27150Y-23803D03*
X24000D03*
X20850D03*
X33449Y-74197D03*
X30299D03*
X33449Y-71047D03*
X30299D03*
X33449Y-67898D03*
X30299D03*
X33449Y-64748D03*
X30299D03*
X33449Y-61598D03*
X30299D03*
X33449Y-58449D03*
X30299D03*
X33449Y-55299D03*
X30299D03*
X33449Y-52150D03*
X30299D03*
X33449Y-49000D03*
X30299D03*
X33449Y-45850D03*
X30299D03*
X33449Y-42701D03*
X30299D03*
X33449Y-39551D03*
X30299D03*
X33449Y-36402D03*
X30299D03*
X33449Y-33252D03*
X30299D03*
X33449Y-30102D03*
X30299D03*
Y-26953D03*
X33449Y-23803D03*
X30299D03*
X39748Y-74197D03*
X36598D03*
X39748Y-71047D03*
X36598D03*
X39748Y-67898D03*
X36598D03*
X39748Y-64748D03*
X36598D03*
X39748Y-61598D03*
Y-58449D03*
X36598D03*
X39748Y-55299D03*
Y-52150D03*
X36598D03*
X39748Y-49000D03*
Y-45850D03*
X36598D03*
X39748Y-42701D03*
Y-39551D03*
Y-36402D03*
Y-33252D03*
X36598D03*
X39748Y-30102D03*
X36598D03*
X39748Y-26953D03*
X36598D03*
X39748Y-23803D03*
X36598D03*
X46047Y-74197D03*
X42898D03*
X46047Y-71047D03*
X42898D03*
X46047Y-67898D03*
X42898D03*
X46047Y-64748D03*
X42898D03*
X46047Y-61598D03*
X42898D03*
X46047Y-58449D03*
X42898D03*
X46047Y-55299D03*
X42898D03*
X46047Y-52150D03*
X42898D03*
X46047Y-49000D03*
X42898D03*
X46047Y-45850D03*
X42898D03*
X46047Y-42701D03*
X42898D03*
X46047Y-39551D03*
X42898D03*
X46047Y-36402D03*
X42898D03*
X46047Y-33252D03*
X42898D03*
X46047Y-30102D03*
X42898D03*
X46047Y-26953D03*
X42898D03*
X46047Y-23803D03*
X42898D03*
X49197Y-74197D03*
Y-71047D03*
Y-67898D03*
Y-64748D03*
Y-61598D03*
Y-58449D03*
Y-55299D03*
Y-52150D03*
Y-49000D03*
Y-45850D03*
Y-42701D03*
Y-39551D03*
Y-36402D03*
Y-33252D03*
Y-30102D03*
Y-26953D03*
Y-23803D03*
G54D33*
G01X-55500Y-17400D02*
Y-17300D01*
G54D24*
X0Y55354D03*
G54D15*
X-49100Y-14200D03*
Y-8000D03*
X-37100Y-8200D03*
Y-2000D03*
X-25100Y-8200D03*
X-31100D03*
X-25100Y-2000D03*
X-31100D03*
X-5100Y-8200D03*
X-11100D03*
X-5100Y-2000D03*
X-11100D03*
X900Y-8200D03*
Y-2000D03*
X6900Y-8200D03*
Y-2000D03*
X18300Y-8300D03*
Y-2100D03*
X24300Y-8300D03*
Y-2100D03*
X30300Y-8300D03*
Y-2100D03*
X38700Y-8300D03*
Y-2100D03*
X44700Y-8300D03*
Y-2100D03*
X55500Y-32600D03*
Y-26400D03*
G54D34*
G01X-55300Y19900D02*
Y15900D01*
G01X-52700Y19400D02*
X-53200Y19900D01*
X-55300D01*
G01Y24900D02*
Y24400D01*
X-51400Y20500D01*
X-45900D01*
X-43300Y17900D01*
G01X-55400Y35100D02*
X-52100D01*
G01X-55400Y40100D02*
Y49163D01*
X-55363Y49200D01*
G01X-45200Y-80500D02*
X-45274Y-80426D01*
Y-77926D01*
X-46849Y-76351D01*
Y-75872D01*
G01Y-72723D02*
X-45274Y-74298D01*
Y-76326D01*
X-44200Y-77400D01*
X-43200D01*
X-34600Y-86000D01*
X-20500D01*
X-13500Y-79000D01*
X-7500D01*
X-4900Y-76400D01*
X-250D01*
X1953Y-74197D01*
G01X-40700Y-64000D02*
X-42900Y-61800D01*
X-45375D01*
X-46849Y-63274D01*
G01Y-56975D02*
X-45262Y-58562D01*
G01X-45300Y-49200D02*
X-45399Y-49101D01*
X-48424D01*
X-49998Y-50676D01*
G01X-48400Y-36600D02*
X-48424Y-36624D01*
Y-42802D01*
X-46849Y-44376D01*
G01X-35200Y-42700D02*
X-39600D01*
X-42700Y-45800D01*
X-44300D01*
X-45300Y-44800D01*
Y-42776D01*
X-46849Y-41227D01*
G01X1953Y-33252D02*
X378Y-31677D01*
X-7584D01*
X-16062Y-23200D01*
X-35500D01*
X-39700Y-27400D01*
Y-33016D01*
X-43088Y-36404D01*
X-45176D01*
X-46849Y-38077D01*
G01X-1197Y-23803D02*
X-6788D01*
X-12291Y-18300D01*
X-39100D01*
X-48424Y-27624D01*
Y-33353D01*
X-46849Y-34928D01*
G01X-1197Y-26953D02*
X-2800D01*
X-3300Y-26453D01*
Y-25400D01*
X-3700Y-25000D01*
X-4550D01*
X-4900Y-25350D01*
Y-26603D01*
X-5250Y-26953D01*
X-6038D01*
X-13491Y-19500D01*
X-38000D01*
X-46849Y-28349D01*
Y-31778D01*
G01X-49100Y-8000D02*
X-45000D01*
X-44100Y-7100D01*
G01X-33748Y28299D02*
X-37799D01*
X-38800Y29300D01*
X-46300D01*
X-48900Y31900D01*
G01D02*
X-49200D01*
G01X-44400Y-88500D02*
X-44200Y-88700D01*
Y-89600D01*
X-42700Y-91100D01*
X-40400D01*
X-34449Y-97051D01*
Y-104094D01*
G01X-45300Y-85000D02*
X-44500Y-85800D01*
X-42800D01*
X-40500Y-88100D01*
Y-89700D01*
X-32480Y-97720D01*
Y-104094D01*
G01X-46100Y-90400D02*
Y-90700D01*
X-44000Y-92800D01*
X-40000D01*
X-36417Y-96383D01*
Y-104094D01*
G01X-43699Y-79022D02*
X-40900Y-81821D01*
Y-84000D01*
G01X-43699Y-66424D02*
X-45274Y-67998D01*
G01X-43699Y-69573D02*
X-42236Y-71036D01*
Y-71064D01*
X-42100Y-71200D01*
G01X1953Y-58449D02*
X378Y-60024D01*
X-7424D01*
X-14200Y-66800D01*
X-16600D01*
X-17900Y-68100D01*
X-38873D01*
X-43699Y-63274D01*
G01Y-56975D02*
X-42524Y-55800D01*
X-41200D01*
G01X-41000Y-46500D02*
X-42026Y-47526D01*
X-43699D01*
G01X-1197Y-36402D02*
X-7098D01*
X-18000Y-25500D01*
X-33600D01*
X-36800Y-28700D01*
Y-37400D01*
X-37200Y-37800D01*
X-37900D01*
X-38639Y-37061D01*
X-39534D01*
X-43699Y-41227D01*
G01X-39400Y-39100D02*
Y-40077D01*
X-43699Y-44376D01*
G01Y-38077D02*
X-42277D01*
X-41200Y-37000D01*
Y-36100D01*
X-40371Y-35271D01*
X-39929D01*
X-39300Y-35900D01*
X-38650D01*
X-38300Y-35550D01*
Y-28200D01*
X-34500Y-24400D01*
X-16952D01*
X-8100Y-33252D01*
X-1197D01*
G01X-43699Y-34928D02*
X-45274Y-33353D01*
Y-28874D01*
X-37200Y-20800D01*
X-14281D01*
X-6554Y-28528D01*
X378D01*
X1953Y-30102D01*
G01X-43699Y-31778D02*
Y-29399D01*
X-43198Y-28898D01*
X-42702D01*
X-42100Y-29500D01*
Y-31400D01*
X-41750Y-31750D01*
X-41255D01*
X-40905Y-31400D01*
Y-26605D01*
X-36400Y-22100D01*
X-15071D01*
X-7069Y-30102D01*
X-1197D01*
G01X-43300Y17900D02*
X-43000D01*
G01X-30512Y-104094D02*
Y-98288D01*
X-37100Y-91700D01*
Y-90500D01*
G01X-34300Y-87500D02*
Y-90100D01*
X-32700Y-91700D01*
Y-94800D01*
X-28543Y-98957D01*
Y-104094D01*
G01X-31101Y-72723D02*
X-32423D01*
X-37000Y-77300D01*
Y-82000D01*
X-34100Y-84900D01*
X-21100D01*
X-14100Y-77900D01*
X-8400D01*
X-4697Y-74197D01*
X-1197D01*
G01X1953Y-71047D02*
X378Y-72622D01*
X-4822D01*
X-8900Y-76700D01*
X-14800D01*
X-21900Y-83800D01*
X-33300D01*
X-35500Y-81600D01*
Y-77400D01*
X-32496Y-74396D01*
X-29624D01*
X-27951Y-72723D01*
G01X-1197Y-61598D02*
X-7098D01*
X-11900Y-66400D01*
Y-66900D01*
X-10770Y-68030D01*
Y-68525D01*
X-11375Y-69130D01*
X-11870D01*
X-13000Y-68000D01*
X-15700D01*
X-19000Y-71300D01*
Y-76000D01*
X-20447Y-77447D01*
X-28547D01*
X-29526Y-78426D01*
Y-81026D01*
X-30300Y-81800D01*
X-33700D01*
X-34100Y-81400D01*
Y-80700D01*
X-33600Y-80200D01*
X-32279D01*
X-31101Y-79022D01*
G01X-37900Y-75300D02*
X-37733Y-75467D01*
X-37167D01*
X-31273Y-69573D01*
X-31101D01*
G01X-1197Y-58449D02*
X-7449D01*
X-13900Y-64900D01*
X-37600D01*
X-38000Y-65300D01*
Y-66000D01*
X-37300Y-66700D01*
X-31377D01*
X-31101Y-66424D01*
G01X-38600Y-63300D02*
X-38800Y-63100D01*
Y-61100D01*
X-37200Y-59500D01*
Y-52400D01*
X-34063Y-49263D01*
X-29688D01*
X-27951Y-47526D01*
G01X-35300Y-56100D02*
X-31976D01*
X-31101Y-56975D01*
G01X-35900Y-39300D02*
X-33973Y-41227D01*
X-31101D01*
G01X1953Y-39551D02*
X378Y-37976D01*
X-7924D01*
X-19300Y-26600D01*
X-32800D01*
X-35400Y-29200D01*
Y-37600D01*
X-33400Y-39600D01*
X-32624D01*
X-31101Y-38077D01*
G01X-1197Y-39551D02*
X-10356D01*
X-10706Y-39201D01*
Y-38706D01*
X-10197Y-38197D01*
Y-37702D01*
X-15683Y-32216D01*
G03X-16673I-495J-495D01*
G01X-17333Y-32876D01*
G02X-18323Y-31886I-495J495D01*
G01X-17663Y-31226D01*
G03Y-29937I-645J644D01*
G01X-19900Y-27700D01*
X-32000D01*
X-34100Y-29800D01*
Y-37000D01*
X-33548Y-37552D01*
X-32753D01*
X-31704Y-36502D01*
X-29526D01*
X-27951Y-38077D01*
G01X-33748Y17276D02*
X-30724D01*
G01X-33748Y18850D02*
X-36550D01*
G01X-33748Y20425D02*
X-30700D01*
G01X-26575Y-104094D02*
Y-99525D01*
X-30900Y-95200D01*
Y-91400D01*
G01X-24606Y-104094D02*
Y-99194D01*
X-27900Y-95900D01*
Y-92500D01*
G01X-22638Y-104094D02*
Y-99162D01*
X-26400Y-95400D01*
Y-89600D01*
X-27900Y-88100D01*
G01X-27951Y-79022D02*
Y-82049D01*
X-27520Y-82480D01*
X-26550D01*
X-26200Y-82130D01*
Y-80900D01*
X-25800Y-80500D01*
X-24900D01*
X-23300Y-82100D01*
X-22000D01*
X-17900Y-78000D01*
Y-76050D01*
X-17550Y-75700D01*
X-16250D01*
X-15900Y-75350D01*
Y-74350D01*
X-16250Y-74000D01*
X-17352D01*
X-17702Y-73650D01*
Y-72602D01*
X-15200Y-70100D01*
X-12914D01*
X-12564Y-70450D01*
Y-71750D01*
X-12214Y-72100D01*
X-11514D01*
X-11164Y-71750D01*
Y-70450D01*
X-10814Y-70100D01*
X-10000D01*
X-9026Y-71074D01*
X-8579D01*
X-8250Y-70745D01*
Y-70250D01*
X-9050Y-69450D01*
Y-68650D01*
X-8643Y-68243D01*
X-8148D01*
X-6893Y-69498D01*
X-6398D01*
X-5903Y-69003D01*
Y-68508D01*
X-7158Y-67253D01*
Y-66758D01*
X-5148Y-64748D01*
X-1197D01*
G01Y-55299D02*
X-1698Y-55800D01*
X-3043D01*
X-3393Y-55450D01*
Y-55050D01*
X-3743Y-54700D01*
X-4550D01*
X-4900Y-55050D01*
Y-55450D01*
X-5250Y-55800D01*
X-6900D01*
X-8200Y-54500D01*
X-8705D01*
X-9105Y-54900D01*
Y-55395D01*
X-8828Y-55672D01*
Y-56222D01*
X-9076Y-56471D01*
X-9429D01*
X-10371Y-55529D01*
X-11029D01*
X-11278Y-55778D01*
Y-56422D01*
X-10176Y-57524D01*
Y-57876D01*
X-10458Y-58158D01*
X-10952D01*
X-11808Y-57302D01*
X-12302D01*
X-12652Y-57652D01*
Y-58148D01*
X-11798Y-59002D01*
Y-59498D01*
X-13252Y-60952D01*
X-13748D01*
X-15252Y-59448D01*
X-15748D01*
X-16052Y-59752D01*
Y-60248D01*
X-15150Y-61150D01*
Y-61450D01*
X-15500Y-61800D01*
X-18350D01*
X-18700Y-62150D01*
Y-63450D01*
X-19050Y-63800D01*
X-20150D01*
X-20500Y-63450D01*
Y-62500D01*
X-21301Y-61699D01*
X-27299D01*
X-27951Y-62351D01*
Y-63274D01*
G01Y-60124D02*
X-29500Y-58576D01*
Y-56200D01*
X-28700Y-55400D01*
X-23400D01*
X-23200Y-55600D01*
Y-56500D01*
X-22648Y-57052D01*
X-22152D01*
X-21700Y-56600D01*
Y-54703D01*
X-22749Y-53654D01*
Y-53159D01*
X-22254Y-52664D01*
X-21759D01*
X-20459Y-53964D01*
X-19964D01*
X-19469Y-53469D01*
Y-52974D01*
X-20574Y-51869D01*
Y-51374D01*
X-20079Y-50879D01*
X-19584D01*
X-18479Y-51984D01*
X-17984D01*
X-17400Y-51400D01*
X-16200D01*
X-10650Y-45850D01*
X-1197D01*
G01X-32563Y-52363D02*
X-31101Y-53825D01*
G01X-23200Y-46472D02*
X-23228D01*
X-23749Y-45951D01*
X-30551D01*
X-31101Y-46501D01*
Y-47526D01*
G01X-29538Y-52238D02*
X-31101Y-50676D01*
G01X-27951Y-44376D02*
X-26275Y-42700D01*
X-19995D01*
X-19648Y-42352D01*
Y-41874D01*
X-19998Y-41524D01*
X-21500D01*
X-21800Y-41224D01*
Y-40800D01*
X-21500Y-40500D01*
X-18900D01*
X-18100Y-39700D01*
X-17200D01*
X-15498Y-41402D01*
X-14302D01*
X-12100Y-39200D01*
Y-38645D01*
X-12645Y-38100D01*
X-13200D01*
X-14000Y-38900D01*
X-15200D01*
G01X-31101Y-44376D02*
X-29500Y-42776D01*
Y-39600D01*
G01X-27951Y-41227D02*
X-26376Y-39652D01*
Y-37376D01*
X-25400Y-36400D01*
X-20400D01*
G01X-27951Y-34928D02*
X-26376Y-33353D01*
G01X-31101Y-34928D02*
X-29526Y-33353D01*
G01X-19700Y-30200D02*
X-19900D01*
X-19903Y-30203D01*
X-26376D01*
X-27951Y-31778D01*
G01X-31101D02*
Y-29201D01*
X-31100Y-29200D01*
G01Y-31777D02*
X-31101Y-31778D01*
G01X-20669Y-104094D02*
Y-99431D01*
X-24900Y-95200D01*
Y-93500D01*
G01X-18701Y-104094D02*
Y-98499D01*
X-21800Y-95400D01*
X-22600D01*
X-23400Y-94600D01*
Y-90600D01*
X-24900Y-89100D01*
G01X-16732Y-104094D02*
Y-98268D01*
X-18600Y-96400D01*
X-19400D01*
X-21900Y-93900D01*
G01X-14764Y-104094D02*
Y-98336D01*
X-17500Y-95600D01*
X-19000D01*
X-20100Y-94500D01*
Y-93500D01*
X-21900Y-91700D01*
G01X-18000Y-60200D02*
X-18400D01*
X-20100Y-58500D01*
X-23276D01*
X-24802Y-56975D01*
G01X1953Y-49000D02*
X378Y-47425D01*
X-10225D01*
X-15400Y-52600D01*
X-16700D01*
X-19900Y-55800D01*
Y-56400D01*
G01X-21800Y-46524D02*
Y-46100D01*
X-21198Y-45498D01*
X-20502D01*
X-19845Y-46155D01*
X-19350D01*
X-19000Y-45805D01*
Y-45300D01*
X-19800Y-44500D01*
Y-44100D01*
G01X-23200Y-46472D02*
Y-48304D01*
X-22773Y-48723D01*
X-22278Y-48720D01*
X-21800Y-48242D01*
Y-46524D01*
G01X-21600Y-50200D02*
X-24326D01*
X-24802Y-50676D01*
G01X1953Y-45850D02*
X378Y-44276D01*
X-10876D01*
X-15800Y-49200D01*
X-19500D01*
X-20200Y-48500D01*
G01X-19800Y-44100D02*
X-17800Y-42100D01*
X-17400D01*
G01X-20400Y-36400D02*
X-18945Y-37855D01*
X-18050D01*
X-17700Y-37505D01*
Y-37000D01*
X-20000Y-34700D01*
Y-34195D01*
X-19650Y-33845D01*
X-18955D01*
X-15550Y-37250D01*
X-14850D01*
X-14300Y-36700D01*
Y-36100D01*
X-15500Y-34900D01*
G01X-12795Y-104094D02*
Y-98805D01*
X-14500Y-97100D01*
Y-94100D01*
G01X-10827Y-104094D02*
Y-99173D01*
X-13000Y-97000D01*
Y-91200D01*
X-14500Y-89700D01*
G01X-14200Y-82300D02*
X-7500D01*
X-4400Y-79200D01*
X1100D01*
X5102Y-75198D01*
Y-74197D01*
G01X-16800Y-63300D02*
X-13900D01*
X-7500Y-56900D01*
X352D01*
X1953Y-55299D01*
G01X-1197Y-49000D02*
X-9500D01*
X-14845Y-54345D01*
X-15297D01*
X-15348Y-54397D01*
G01X-14850Y6252D02*
Y1750D01*
X-13500Y400D01*
Y-5500D01*
X-11100Y-7900D01*
G01X-8000Y-1700D02*
Y-800D01*
X-9900Y1100D01*
X-12200D01*
X-13276Y2176D01*
Y6252D01*
G01X-6890Y-104094D02*
Y-99110D01*
X-8500Y-97500D01*
Y-94200D01*
G01X-8858Y-104094D02*
Y-99242D01*
X-10900Y-97200D01*
Y-94400D01*
X-9600Y-93100D01*
Y-91300D01*
X-11300Y-89600D01*
G01X5102Y-71047D02*
X3700Y-72449D01*
Y-74800D01*
X500Y-78000D01*
X-4900D01*
X-7700Y-80800D01*
X-12600D01*
X-12700Y-80700D01*
G01X-9600Y-66800D02*
X-5900Y-63100D01*
X451D01*
X1953Y-61598D01*
G01X-11100Y-7900D02*
Y-8200D01*
G01X-984Y-104094D02*
Y-96416D01*
X-2200Y-95200D01*
Y-93500D01*
G01X984Y-104094D02*
Y-97200D01*
X300Y-96516D01*
Y-93200D01*
X800Y-92700D01*
G01X-4900Y-67000D02*
X-4223Y-66323D01*
X378D01*
X1953Y-64748D01*
G01X12200Y16700D02*
X10300Y18600D01*
X4700D01*
X2600Y16500D01*
Y15900D01*
X1300Y14600D01*
X-400D01*
X-874Y14126D01*
X-2252D01*
G01X-5400Y24000D02*
X-4975Y23575D01*
X-2252D01*
G01Y25150D02*
X-3850D01*
X-5500Y26800D01*
G01X-5300Y21400D02*
X-4700Y22000D01*
X-2252D01*
G01X4921Y-104094D02*
Y-95579D01*
X6800Y-93700D01*
Y-91800D01*
G01X2953Y-104094D02*
X2947Y-104089D01*
Y-94453D01*
X3800Y-93600D01*
G01X6890Y-104094D02*
Y-98110D01*
X11300Y-93700D01*
X15000D01*
X21800Y-86900D01*
Y-80400D01*
X17701Y-76301D01*
Y-74197D01*
G01X400Y-69500D02*
X425Y-69475D01*
Y-69425D01*
X1953Y-67898D01*
G01X5102Y-33252D02*
X3528Y-31677D01*
Y-22972D01*
X5600Y-20900D01*
Y-16600D01*
X17000Y-5200D01*
X21600D01*
X24300Y-7900D01*
Y-8300D01*
G01X5102Y-30102D02*
X6614Y-28591D01*
Y-18284D01*
X6677Y-18221D01*
Y-17823D01*
X16200Y-8300D01*
X18300D01*
G01X6600Y-31800D02*
X6800D01*
X8252Y-33252D01*
G01X4750Y45650D02*
X8300Y49200D01*
X14337D01*
G01X10827Y-104094D02*
Y-97473D01*
X13000Y-95300D01*
X15800D01*
X23400Y-87700D01*
Y-78600D01*
X20850Y-76050D01*
Y-74197D01*
G01X12795Y-104094D02*
Y-98305D01*
X15000Y-96100D01*
X16200D01*
X24200Y-88100D01*
Y-78200D01*
X22425Y-76425D01*
Y-72622D01*
X20850Y-71047D01*
G01X8858Y-104094D02*
Y-97742D01*
X12100Y-94500D01*
X15400D01*
X22600Y-87300D01*
Y-79927D01*
X19276Y-76603D01*
Y-72576D01*
X17747Y-71047D01*
X17701D01*
G01Y-67898D02*
X15998Y-69600D01*
X13200D01*
X13100Y-69500D01*
X13000D01*
G01X17701Y-64748D02*
X16049Y-66400D01*
X13100D01*
G01X8252Y-30102D02*
X9827Y-28528D01*
Y-16273D01*
X14800Y-11300D01*
X27300D01*
X30300Y-8300D01*
G01X14500Y-18400D02*
Y-20400D01*
X12976Y-21924D01*
Y-30776D01*
X13900Y-31700D01*
X16000D01*
X17552Y-33252D01*
X17701D01*
G01X13000Y16300D02*
X12600D01*
Y16700D01*
X12200D01*
G01X14764Y-104094D02*
Y-98736D01*
X25000Y-88500D01*
Y-77400D01*
X24000Y-76400D01*
Y-74197D01*
G01X16732Y-104094D02*
Y-97968D01*
X25800Y-88900D01*
Y-77000D01*
X25575Y-76775D01*
Y-72622D01*
X24000Y-71047D01*
G01X20850Y-67898D02*
X19276Y-69472D01*
G01X20850Y-64748D02*
X19276Y-66323D01*
G01X20700Y-20000D02*
X19200Y-21500D01*
Y-31400D01*
X20850Y-33050D01*
Y-33252D01*
G01X17701Y-30102D02*
X16126Y-28528D01*
Y-21974D01*
X18400Y-19700D01*
Y-17200D01*
G01X18300Y-2100D02*
Y2000D01*
X21200Y4900D01*
G01X29200Y13900D02*
X31600Y11500D01*
Y8100D01*
X30700Y7200D01*
X18700D01*
X14200Y2700D01*
Y-4400D01*
G01X16900Y36500D02*
X18000Y37600D01*
X19600D01*
X20100Y38100D01*
X22100D01*
X24000Y36200D01*
Y24000D01*
X27200Y20800D01*
Y15900D01*
X25200Y13900D01*
G01X26575Y-104094D02*
X26600Y-104069D01*
Y-79699D01*
X27150Y-79150D01*
Y-74197D01*
G01X24000Y-67898D02*
X25575Y-69472D01*
G01X24000Y-64748D02*
X25575Y-66323D01*
G01X24000Y-33252D02*
Y-33200D01*
X25500Y-31700D01*
X27700D01*
X28724Y-30676D01*
Y-20724D01*
X28537Y-20537D01*
G01X20850Y-30102D02*
X20998D01*
X22425Y-28675D01*
Y-18225D01*
X21400Y-17200D01*
X20600D01*
G01X24300Y-20700D02*
X25100D01*
X25575Y-21175D01*
Y-28225D01*
X24000Y-29800D01*
Y-30102D01*
G01X24300Y-8300D02*
Y-9800D01*
G01Y-2100D02*
X23800Y-1600D01*
Y3500D01*
X25200Y4900D01*
G01X21200Y13900D02*
X23100Y15800D01*
Y34500D01*
X21100Y36500D01*
X20600D01*
G01X30512Y-104094D02*
Y-100100D01*
X28200Y-97788D01*
Y-80500D01*
X30299Y-78401D01*
Y-74197D01*
G01X32480Y-104094D02*
Y-100080D01*
X29000Y-96600D01*
Y-80900D01*
X31874Y-78026D01*
Y-72474D01*
X30447Y-71047D01*
X30299D01*
G01X28543Y-104094D02*
Y-100143D01*
X27400Y-99000D01*
Y-80100D01*
X28724Y-78776D01*
Y-72622D01*
X27150Y-71047D01*
G01X33449Y-67898D02*
X35024Y-69472D01*
G01X30299Y-67898D02*
X31874Y-69472D01*
G01X27150Y-67898D02*
X28724Y-69472D01*
G01X33449Y-64748D02*
X35024Y-66323D01*
G01X30299Y-64748D02*
X31874Y-66323D01*
G01X27150Y-64748D02*
X28724Y-66323D01*
G01X36598Y-23803D02*
X37300Y-23101D01*
Y-20900D01*
X36400Y-20000D01*
X34200D01*
X32600Y-18400D01*
X32000D01*
G01X30300Y-2100D02*
X30500Y-1900D01*
Y3600D01*
X29200Y4900D01*
G01X54600Y12600D02*
X52800Y10800D01*
X44000D01*
X42900Y11900D01*
X33263D01*
X31263Y13900D01*
X29200D01*
G01X35941Y22079D02*
X31721D01*
X31200Y22600D01*
G01X31100Y33200D02*
X31790Y33890D01*
X35941D01*
G01X40600Y-76100D02*
X40567Y-76067D01*
X39567D01*
X38100Y-74600D01*
Y-63246D01*
X39748Y-61598D01*
G01X41300Y-53700D02*
X39748Y-55252D01*
Y-55299D01*
G01Y-52150D02*
X41200Y-50698D01*
Y-44400D01*
X41300Y-44300D01*
G01X39748Y-42701D02*
X41323Y-41126D01*
G01X39748Y-33252D02*
X41323Y-31677D01*
G01X39748Y-36402D02*
X41323Y-34827D01*
G01X39748Y-30102D02*
X41323Y-28528D01*
G01X39748Y-26953D02*
X41323Y-25378D01*
G01X35600Y-21800D02*
Y-22300D01*
X35200Y-22700D01*
Y-26200D01*
X35953Y-26953D01*
X36598D01*
G01X39748Y-23803D02*
Y-20048D01*
X38200Y-18500D01*
X35600D01*
G01X49300Y-14000D02*
X49200D01*
X47500Y-15700D01*
X38600D01*
G01X40200Y-13200D02*
X40500Y-12900D01*
X40900D01*
X44700Y-9100D01*
Y-8300D01*
G01X35800Y-9000D02*
X38300D01*
X38700Y-8600D01*
Y-8300D01*
G01Y-2100D02*
X35900D01*
X34000Y-4000D01*
Y-10100D01*
X34400Y-10500D01*
Y-10900D01*
G01X44700Y-2100D02*
Y-2500D01*
X41400Y-5800D01*
Y-10000D01*
X40300Y-11100D01*
X37400D01*
X36500Y-12000D01*
G01X42898Y-67898D02*
Y-67902D01*
X41200Y-69600D01*
Y-74462D01*
X42838Y-76100D01*
X44100D01*
G01X42898Y-64748D02*
X42948D01*
X44600Y-66400D01*
G01X46047Y-71047D02*
X44497Y-72597D01*
G01X46047Y-64748D02*
X45948D01*
X44500Y-63300D01*
G01X55500Y-79900D02*
Y-79600D01*
X53100Y-77200D01*
Y-63300D01*
X49800Y-60000D01*
X47598D01*
X46047Y-58449D01*
G01X51500Y-42700D02*
X51200D01*
X49800Y-44100D01*
X48900D01*
X47800Y-45200D01*
Y-47247D01*
X46047Y-49000D01*
G01Y-42701D02*
X47622Y-41126D01*
G01X46047Y-33252D02*
X47622Y-31677D01*
G01X42898Y-33252D02*
X44472Y-31677D01*
G01X46047Y-36402D02*
X47622Y-34827D01*
G01X42898Y-36402D02*
X44472Y-34827D01*
G01X49200Y-17000D02*
Y-18500D01*
X47622Y-20078D01*
Y-24778D01*
X46047Y-26353D01*
Y-26953D01*
G01Y-30102D02*
X47622Y-28528D01*
G01X42898Y-30102D02*
X44472Y-28528D01*
G01X42898Y-26953D02*
X44472Y-25378D01*
G01X46047Y-23803D02*
X46003D01*
X44500Y-22300D01*
G01X42400Y-21600D02*
X42500Y-21700D01*
Y-23100D01*
X42898Y-23498D01*
Y-23803D01*
G01X49197Y-71047D02*
X47644Y-72600D01*
X47600D01*
G01X57100Y-78300D02*
X56200Y-77400D01*
X54500D01*
X53900Y-76800D01*
Y-62900D01*
X49449Y-58449D01*
X49197D01*
G01X51400Y-64300D02*
X49645D01*
X49197Y-64748D01*
G01Y-52150D02*
X50250D01*
X51500Y-53400D01*
G01X52000Y-48000D02*
X51900Y-48100D01*
X51500D01*
X50600Y-49000D01*
X49197D01*
G01Y-42701D02*
X51498Y-40400D01*
X51500D01*
G01X55500Y-32600D02*
X49849D01*
X49197Y-33252D01*
G01Y-36402D02*
X50772Y-34827D01*
G01X49197Y-30102D02*
X50772Y-28528D01*
G01X47622Y-31677D02*
Y-31700D01*
G01X52500Y-17100D02*
Y-19400D01*
X50700Y-21200D01*
Y-24400D01*
X49197Y-25903D01*
Y-26953D01*
G01X51000Y-15500D02*
Y-19200D01*
X49197Y-21003D01*
Y-23803D01*
G01X56500Y-21500D02*
X55500Y-22500D01*
Y-26400D01*
G54D16*
X-49100Y4900D03*
Y24900D03*
X-41100Y4900D03*
Y24900D03*
X6900Y29300D03*
X14900D03*
G54D25*
X4654Y-87559D03*
Y-82441D03*
X11346Y-87559D03*
Y-82441D03*
G54D35*
G01X-1000Y-87500D02*
X4594D01*
X4654Y-87559D01*
G01X8252Y-74197D02*
Y-83961D01*
X4654Y-87559D01*
G01X17000Y-82500D02*
X11406D01*
X11346Y-82441D01*
G01X8252Y-71047D02*
X9827Y-72622D01*
Y-78203D01*
X11346Y-79722D01*
Y-82441D01*
G01X40079Y-84000D02*
Y-88579D01*
X42500Y-91000D01*
G01X35000Y-82500D02*
X38579D01*
X40079Y-84000D01*
G01X46047Y-67898D02*
X47550Y-69400D01*
X49600D01*
X51100Y-70900D01*
Y-78500D01*
X50000Y-79600D01*
X42900D01*
X40079Y-82421D01*
Y-84000D01*
G01X44500Y-60000D02*
Y-58000D01*
X43374Y-56874D01*
X38126D01*
X36598Y-58402D01*
Y-58449D01*
G01X47600Y-53700D02*
X46050Y-52150D01*
X46047D01*
G01X49921Y-84000D02*
Y-88579D01*
X47500Y-91000D01*
G01X49921Y-84000D02*
X53500D01*
X55000Y-82500D01*
G01X49921Y-84000D02*
Y-82379D01*
X52000Y-80300D01*
Y-70200D01*
X49698Y-67898D01*
X49197D01*
G01X56500Y-60500D02*
X51299Y-55299D01*
X49197D01*
G01Y-45850D02*
X49647Y-45400D01*
X53400D01*
X54500Y-46500D01*
X56500D01*
G01Y-64500D02*
Y-60500D01*
G01Y-46500D02*
Y-42500D01*
G54D26*
X35941Y14205D03*
Y17354D03*
Y40150D03*
Y37000D03*
G54D17*
X-49200Y11900D03*
Y17900D03*
Y31900D03*
Y37900D03*
X-43000Y11900D03*
Y17900D03*
Y31900D03*
Y37900D03*
X6800Y10300D03*
Y16300D03*
Y22300D03*
Y36300D03*
X13000Y10300D03*
Y16300D03*
Y22300D03*
Y36300D03*
G54D36*
G01X41043Y-94252D02*
X57087D01*
G03X59055Y-92283I0J1968D01*
G01Y53386D01*
G03X57087Y55354I-1968J0D01*
G01X-57087D01*
G03X-59055Y53386I0J-1968D01*
G01Y-92283D01*
G03X-57087Y-94252I1968J-1D01*
G01X-41043D01*
G02X-39075Y-96220I0J-1968D01*
G01Y-110000D01*
X19783D01*
Y-98583D01*
G02X22146Y-96220I2363J0D01*
G02X24508Y-98583I0J-2362D01*
G01Y-110000D01*
X39075D01*
Y-96220D01*
G02X41043Y-94252I1968J0D01*
G01X39075Y-96220D02*
Y-110000D01*
X24508D01*
Y-98583D01*
G03X22146Y-96220I-2362J1D01*
G03X19783Y-98583I0J-2363D01*
G01Y-110000D01*
X-39075D01*
Y-96220D01*
G03X-41043Y-94252I-1968J0D01*
G01X-57087D01*
G02X-59055Y-92283I0J1968D01*
G01Y53386D01*
G02X-57087Y55354I1968J0D01*
G01X57087D01*
G02X59055Y53386I0J-1968D01*
G01Y-92283D01*
G02X57087Y-94252I-1968J-1D01*
G01X41043D01*
G03X39075Y-96220I0J-1968D01*
G54D18*
X-36417Y-104094D03*
X-34449D03*
X-32480D03*
X-30512D03*
X-28543D03*
X-26575D03*
X-24606D03*
X-22638D03*
X-20669D03*
X-18701D03*
X-16732D03*
X-14764D03*
X-12795D03*
X-10827D03*
X-8858D03*
X-6890D03*
X-4921D03*
X-2953D03*
X-984D03*
X984D03*
X2953D03*
X4921D03*
X6890D03*
X8858D03*
X10827D03*
X12795D03*
X14764D03*
X16732D03*
X26575D03*
X28543D03*
X30512D03*
X32480D03*
X34449D03*
X36417D03*
G54D27*
X35941Y20110D03*
Y26016D03*
Y24047D03*
Y22079D03*
Y33890D03*
Y31921D03*
Y29953D03*
Y27984D03*
G54D37*
G01X-38638Y-70997D02*
Y-72238D01*
X-40300Y-73900D01*
X-42522D01*
X-43699Y-72723D01*
G01X-36767Y-72868D02*
X-38207D01*
X-39989Y-74650D01*
X-42476D01*
X-43699Y-75872D01*
G01X-40200Y-53600D02*
X-41100Y-52700D01*
X-42700D01*
X-43699Y-53699D01*
Y-53825D01*
G01Y-50676D02*
X-42675Y-51700D01*
X-40946D01*
X-40200Y-50954D01*
G01X-35600Y-62900D02*
X-34750Y-62050D01*
X-32325D01*
X-31101Y-63274D01*
G01X-35600Y-60700D02*
X-35000Y-61300D01*
X-32276D01*
X-31101Y-60124D01*
G01X-14000Y-73000D02*
X-13500Y-73500D01*
X-9000D01*
X-4600Y-69100D01*
X-2399D01*
X-1197Y-67898D01*
G01X-13800Y-75200D02*
X-12850Y-74250D01*
X-8689D01*
X-4289Y-69850D01*
X-2394D01*
X-1197Y-71047D01*
G01X-14350Y-58150D02*
Y-56850D01*
X-11224Y-53724D01*
X-524D01*
X1050Y-52150D01*
X1953D01*
G01X-16300Y-56400D02*
X-14961D01*
X-11511Y-52950D01*
X-8763D01*
X-8514Y-52701D01*
Y-52249D01*
X-8265Y-52000D01*
X-7913D01*
X-7664Y-52249D01*
Y-52701D01*
X-7415Y-52950D01*
X-7063D01*
X-6814Y-52701D01*
Y-52249D01*
X-6565Y-52000D01*
X-6213D01*
X-5964Y-52249D01*
Y-52701D01*
X-5715Y-52950D01*
X-5363D01*
X-5114Y-52701D01*
Y-52249D01*
X-4865Y-52000D01*
X-4513D01*
X-4264Y-52249D01*
Y-52701D01*
X-4015Y-52950D01*
X-3100D01*
X-2300Y-52150D01*
X-1197D01*
G01X-17500Y-47400D02*
X-16700Y-46600D01*
X-15800D01*
X-11300Y-42100D01*
X-6073D01*
X-5824Y-42349D01*
Y-42951D01*
X-5575Y-43200D01*
X-5223D01*
X-4974Y-42951D01*
Y-42349D01*
X-4725Y-42100D01*
X-4373D01*
X-4124Y-42349D01*
Y-42951D01*
X-3875Y-43200D01*
X-3523D01*
X-3274Y-42951D01*
Y-42349D01*
X-3025Y-42100D01*
X-1798D01*
X-1197Y-42701D01*
G01X1953D02*
X378Y-41126D01*
X-11387D01*
X-16111Y-45850D01*
X-16850D01*
X-17500Y-45200D01*
G01X36417Y-104094D02*
Y-99217D01*
X35800Y-98600D01*
Y-92200D01*
X31100Y-87500D01*
Y-81361D01*
X34061Y-78400D01*
X46200D01*
X47950Y-76650D01*
Y-75444D01*
X49197Y-74197D01*
G01X34449Y-104094D02*
Y-99151D01*
X35050Y-98550D01*
Y-92511D01*
X30350Y-87811D01*
Y-81050D01*
X33750Y-77650D01*
X45889D01*
X47200Y-76339D01*
Y-75350D01*
X46047Y-74197D01*
G01X35941Y26016D02*
X32348D01*
X31900Y26463D01*
Y29300D01*
X32553Y29953D01*
X35941D01*
G01X42100Y28400D02*
X43750D01*
X44100Y28050D01*
Y24600D01*
X43547Y24047D01*
X35941D01*
G01X42100Y25600D02*
X41100Y26600D01*
X36525D01*
X35941Y26016D01*
G01X42100Y28400D02*
X41100Y27400D01*
X36525D01*
X35941Y27984D01*
G54D28*
X40079Y-84000D03*
X49921D03*
G54D19*
X-33748Y9402D03*
Y10976D03*
Y12551D03*
Y14126D03*
Y15701D03*
Y17276D03*
Y18850D03*
Y20425D03*
Y22000D03*
Y23575D03*
Y25150D03*
Y26724D03*
Y28299D03*
Y29874D03*
Y31449D03*
Y33024D03*
Y34598D03*
X-2252Y12551D03*
Y10976D03*
Y9402D03*
Y20425D03*
Y18850D03*
Y17276D03*
Y15701D03*
Y14126D03*
Y26724D03*
Y25150D03*
Y23575D03*
Y22000D03*
Y33024D03*
Y31449D03*
Y29874D03*
Y28299D03*
Y34598D03*
G54D38*
G01X1953Y-36402D02*
X281Y-34730D01*
G01X8252Y-58449D02*
X6677Y-60024D01*
G01X5102Y-58449D02*
X3528Y-60024D01*
G01X5102Y-61598D02*
X3528Y-63173D01*
G01X5102Y-52150D02*
X3528Y-53724D01*
G01X8252Y-55299D02*
X6677Y-56874D01*
G01X5102Y-55299D02*
X3528Y-56874D01*
G01X8252Y-52150D02*
X6677Y-53724D01*
G01X8252Y-49000D02*
X6677Y-47425D01*
G01X5102Y-49000D02*
X3528Y-47425D01*
G01X5102Y-42701D02*
X3528Y-41126D01*
G01X8252Y-45850D02*
X6677Y-44276D01*
G01X5102Y-45850D02*
X3528Y-44276D01*
G01X8252Y-42701D02*
X6677Y-41126D01*
G01X8252Y-36402D02*
X6677Y-34827D01*
G01X8252Y-39551D02*
X6677Y-37976D01*
G01X5102Y-39551D02*
X3528Y-37976D01*
G01X5102Y-36402D02*
X3528Y-34827D01*
G54D29*
X39543Y7039D03*
Y46961D03*
M02*
